<svg height="512pt" viewBox="-8 0 512 512" width="512pt" xmlns="http://www.w3.org/2000/svg"><path d="m247.5 512-65.347656-54.921875-87.613282 9.449219-18.101562-86.234375-76.4375-43.871094 36.0625-80.421875-36.0625-80.421875 76.4375-43.871094 18.101562-86.234375 87.613282 9.449219 65.347656-54.921875 65.347656 54.921875 87.613282-9.449219 18.101562 86.234375 76.4375 43.871094-36.0625 80.421875 36.0625 80.421875-76.4375 43.871094-18.101562 86.234375-87.613282-9.449219zm0 0" fill="#ff641a"/><path d="m312.847656 457.078125 87.613282 9.449219 18.101562-86.234375 76.4375-43.871094-36.0625-80.421875 36.0625-80.421875-76.4375-43.871094-18.101562-86.234375-87.613282 9.449219-65.347656-54.921875v512zm0 0" fill="#f03800"/><path d="m157.5 241h-30v-45h-30v120h30v-45h30v45h30v-120h-30zm0 0" fill="#fff7cc"/><path d="m397.5 196h-90v30h30v90h30v-90h30zm0 0" fill="#ffe6b3"/><path d="m247.5 196c-24.8125 0-45 20.1875-45 45v30c0 24.8125 20.1875 45 45 45s45-20.1875 45-45v-30c0-24.8125-20.1875-45-45-45zm15 75c0 8.277344-6.722656 15-15 15s-15-6.722656-15-15v-30c0-8.277344 6.722656-15 15-15s15 6.722656 15 15zm0 0" fill="#fff7cc"/><path d="m262.5 241v30c0 8.277344-6.722656 15-15 15v30c24.8125 0 45-20.1875 45-45v-30c0-24.8125-20.1875-45-45-45v30c8.277344 0 15 6.722656 15 15zm0 0" fill="#ffe6b3"/></svg>