<svg id="Capa_1" enable-background="new 0 0 512 512" height="512" viewBox="0 0 512 512" width="512" xmlns="http://www.w3.org/2000/svg"><g><g><path d="m494.89 204.7c-17.65-23.66-29.47-51.79-34.2-81.33-2.91-18.16-11.34-34.65-24.38-47.69-13.03-13.03-29.52-21.46-47.68-24.37-29.54-4.73-57.67-16.55-81.33-34.2-15.01-11.19-32.75-17.11-51.3-17.11s-36.29 5.92-51.3 17.11c-23.66 17.65-51.79 29.47-81.33 34.2-18.16 2.91-34.65 11.34-47.69 24.38-13.03 13.03-21.46 29.52-24.37 47.68-4.73 29.54-16.55 57.67-34.2 81.33-11.19 15.01-17.11 32.75-17.11 51.3s5.92 36.29 17.11 51.3c17.65 23.66 29.47 51.79 34.2 81.33 2.91 18.16 11.34 34.64 24.38 47.69 13.04 13.03 29.52 21.46 47.68 24.37 29.54 4.73 57.67 16.55 81.33 34.2 15.01 11.19 32.75 17.11 51.3 17.11s36.29-5.92 51.3-17.11c23.66-17.65 51.79-29.47 81.33-34.2 18.16-2.91 34.65-11.34 47.69-24.38 13.03-13.03 21.46-29.52 24.37-47.68 2.37-14.77 6.5-29.19 12.25-42.87 5.76-13.68 13.12-26.63 21.95-38.46 11.19-15.01 17.11-32.75 17.11-51.3s-5.92-36.29-17.11-51.3z" fill="#fff239"/></g><g><path d="m512 256c0 18.55-5.92 36.29-17.11 51.3-8.83 11.83-16.19 24.78-21.95 38.46-5.75 13.68-9.88 28.1-12.25 42.87-2.91 18.16-11.34 34.65-24.37 47.68-13.04 13.04-29.53 21.47-47.69 24.38-29.54 4.73-57.67 16.55-81.33 34.2-15.01 11.19-32.75 17.11-51.3 17.11v-512c18.55 0 36.29 5.92 51.3 17.11 23.66 17.65 51.79 29.47 81.33 34.2 18.16 2.91 34.65 11.34 47.68 24.37 13.04 13.04 21.47 29.53 24.38 47.69 4.73 29.54 16.55 57.67 34.2 81.33 11.19 15.01 17.11 32.75 17.11 51.3z" fill="#ffd600"/></g><g><path d="m256 73c-100.91 0-183 82.09-183 183s82.09 183 183 183 183-82.09 183-183-82.09-183-183-183z" fill="#ffd600"/></g><g><path d="m439 256c0 100.91-82.09 183-183 183v-366c100.91 0 183 82.09 183 183z" fill="#ffb229"/></g><g><path d="m358.13 218.96c-2.13-5.97-7.79-9.96-14.13-9.96h-54.22l-19.68-54.13c-2.16-5.92-7.79-9.87-14.1-9.87s-11.94 3.95-14.1 9.87l-19.68 54.13h-54.22c-6.34 0-12 3.99-14.13 9.96s-.28 12.63 4.63 16.65l41.65 34.08-22.25 61.18c-2.18 6.02-.31 12.76 4.66 16.79 4.98 4.03 11.96 4.45 17.39 1.06l56.05-35.03 56.05 35.03c2.44 1.53 5.2 2.28 7.95 2.28 3.36 0 6.7-1.13 9.44-3.34 4.97-4.03 6.84-10.77 4.66-16.79l-22.25-61.18 41.65-34.08c4.91-4.02 6.76-10.68 4.63-16.65z" fill="#fff239"/></g><g><path d="m353.5 235.61-41.65 34.08 22.25 61.18c2.18 6.02.31 12.76-4.66 16.79-2.74 2.21-6.08 3.34-9.44 3.34-2.75 0-5.51-.75-7.95-2.28l-56.05-35.03v-168.69c6.31 0 11.94 3.95 14.1 9.87l19.68 54.13h54.22c6.34 0 12 3.99 14.13 9.96s.28 12.63-4.63 16.65z" fill="#ffd600"/></g></g></svg>