<svg id="Capa_1" enable-background="new 0 0 512 512" height="512" viewBox="0 0 512 512" width="512" xmlns="http://www.w3.org/2000/svg"><g><g><g><path d="m153.25 342.422-25.24 166.426c-2.812 0-5.625-.659-8.211-1.978l-22.695-11.569-86.731-44.215c-6.345-3.235-10.373-9.932-10.373-17.256v-132.1c0-3.698 1.02-7.232 2.854-10.24l118.708 40.198z" fill="#d5daf3"/><path d="m153.25 342.422-25.24 166.426c-2.812 0-5.625-.659-8.211-1.978l-22.695-11.569v-155.764l24.456-7.85z" fill="#bec6ed"/><path d="m128.009 355.291v153.559c2.804 0 5.619-.66 8.199-1.981l119.792-61.055 22.081-74.599-22.081-81.178-81.81 20.266z" fill="#d5daf3"/><path d="m256 290.037 22.081 81.178-22.081 74.596-119.789 61.059c-2.586 1.319-5.398 1.978-8.2 1.978v-13.547l88.212-44.967c5.445-2.776 8.873-8.37 8.873-14.482v-130.063l5.828-9.539z" fill="#bec6ed"/><path d="m256 290.037-143.442 57.371-109.711-55.926c1.732-2.841 4.187-5.233 7.177-6.828l117.985-63.41 75.036 21.765z" fill="#6c7fd8"/><path d="m256 290.037-127.99 65.252-15.453-7.881 102.348-52.176c4.305-2.195 4.372-8.322.115-10.609l-102.463-55.077 15.453-8.303 75.035 21.768z" fill="#4f66d0"/></g><g><path d="m415.369 339.29-31.379 169.558c-2.802 0-5.615-.659-8.2-1.978l-22.705-11.569-97.085-49.49v-155.774l138.364 42.763z" fill="#d5daf3"/><path d="m415.369 339.29-31.379 169.558c-2.802 0-5.615-.659-8.2-1.978l-22.705-11.569v-155.764l41.279-6.737z" fill="#bec6ed"/><path d="m383.994 355.29v153.563c2.81 0 5.62-.66 8.207-1.981l109.425-55.785c6.348-3.234 10.373-9.931 10.373-17.258v-132.101c0-3.695-1.023-7.227-2.852-10.243l-70.301 20.081z" fill="#d5daf3"/><path d="m512 301.73v132.1c0 7.325-4.028 14.021-10.374 17.256l-109.426 55.784c-2.586 1.319-5.398 1.978-8.211 1.978v-13.547l86.731-44.215c6.346-3.235 10.374-9.931 10.374-17.256v-128.041l6.038-8.014 22.014-6.285c1.834 3.008 2.854 6.541 2.854 10.24z" fill="#bec6ed"/><path d="m509.157 291.479-140.62 55.929-112.537-57.371 32.636-30.411 17.822-16.617 77.531-21.768 40.836 21.943 77.15 41.465c2.989 1.597 5.451 3.997 7.182 6.83z" fill="#6c7fd8"/><g fill="#4f66d0"><path d="m509.157 291.479-125.167 63.81-15.453-7.881 102.355-52.177c4.237-2.16 4.45-8.268.268-10.533-.03-.016-.06-.032-.089-.048l-102.534-55.104 15.453-8.303 117.987 63.408c2.987 1.595 5.449 3.995 7.18 6.828z"/><path d="m424.826 243.185c-9.375 30.72-37.942 53.065-71.742 53.065-27.392 0-51.365-14.69-64.448-36.623l17.822-16.617 77.531-21.768z"/></g></g><g><path d="m278.077 123.467-52.982 149.953-97.084-52.179v-140.073c0-3.698 1.02-7.232 2.843-10.25l120.284 42.938z" fill="#d5daf3"/><path d="m278.077 123.467-22.077 166.57-30.905-16.617v-154.455l26.043-5.109z" fill="#bec6ed"/><path d="m383.99 81.168-88.771 187.792-39.219 21.077v-155.32l52.986-36.156 72.15-27.643c1.834 3.018 2.854 6.552 2.854 10.25z" fill="#d5daf3"/><path d="m381.136 70.918-24.405 9.35-3.647 4.948v51.842c0 4.993-3.787 9.104-8.747 9.68-37.303 4.333-66.26 36.038-66.26 74.503 0 18.121 6.428 34.758 17.142 47.718l57.865-31.105v.004l30.905-16.617v-68.373-71.7c.001-3.698-1.019-7.232-2.853-10.25z" fill="#bec6ed"/><path d="m381.136 70.922-140.589 55.914-109.689-55.914c1.733-2.847 4.181-5.233 7.172-6.834l109.409-58.776c.03-.012.054-.031.084-.043 5.349-2.841 11.696-2.828 17.033.043l109.409 58.777c2.989 1.6 5.444 3.986 7.171 6.833z" fill="#6c7fd8"/><path d="m381.136 70.918-125.136 63.799-15.453-7.881 102.335-52.172c4.235-2.159 4.447-8.264.267-10.528-.03-.016-.06-.032-.089-.048l-102.513-55.064 6.892-3.709c.031-.021.051-.031.082-.051 5.347-2.833 11.693-2.823 17.029.051l109.416 58.772c2.988 1.597 5.439 3.987 7.17 6.831z" fill="#4f66d0"/></g></g><path d="m444.523 221.244c0-41.426-57.613-73.633-57.613-73.633l-18.363.219c-34.18 6.994-59.561 37.166-59.561 73.413 0 36.221 25.418 66.385 59.561 73.408l17.965-.593c0 .002 58.011-31.388 58.011-72.814z" fill="#0ed2b3"/><path d="m458.997 221.242c0 41.424-33.574 75.007-75.007 75.007-5.295 0-10.456-.546-15.442-1.597 34.006-7.119 59.544-37.282 59.544-73.411 0-36.128-25.538-66.292-59.544-73.411 4.986-1.051 10.147-1.597 15.442-1.597 41.434.001 75.007 33.585 75.007 75.009z" fill="#0ab69f"/><g><g><path d="m373.796 255.284c-1.88 0-3.764-.682-5.25-2.059l-24.989-23.154c-3.13-2.9-3.317-7.789-.417-10.919s7.789-3.317 10.918-.417l19.396 17.971 38.047-39.734c2.942-3.092 7.833-3.213 10.923-.273 3.092 2.941 3.214 7.831.273 10.923l-43.302 45.26c-1.517 1.596-3.556 2.402-5.599 2.402z" fill="#f3f0f3"/></g></g></g></svg>