<?xml version="1.0" encoding="iso-8859-1"?>
<!-- Generator: Adobe Illustrator 19.0.0, SVG Export Plug-In . SVG Version: 6.00 Build 0)  -->
<svg version="1.1" id="Capa_1" xmlns="http://www.w3.org/2000/svg" xmlns:xlink="http://www.w3.org/1999/xlink" x="0px" y="0px"
	 viewBox="0 0 512 512" style="enable-background:new 0 0 512 512;" xml:space="preserve">
<polygon style="fill:#EF5350;" points="484.016,289.897 512,263.895 485.576,236.31 506.809,204.557 474.735,183.809 
	488.072,148.014 452.078,135.223 456.802,97.317 418.828,93.172 414.683,55.198 376.777,59.922 363.986,23.928 328.191,37.265 
	307.443,5.191 275.69,26.424 248.105,0 222.103,27.984 189.168,8.633 170.321,41.858 133.811,30.625 123.134,67.302 85.018,64.79 
	83.087,102.94 45.419,109.287 52.338,146.854 17.149,161.717 32.545,196.676 1.733,219.252 24.776,249.719 0,278.793 
	29.448,303.124 12.045,337.128 46.311,354.011 37.218,391.112 74.454,399.639 74.164,437.836 112.361,437.546 120.888,474.782 
	157.989,465.689 174.872,499.955 208.876,482.552 233.207,512 262.281,487.224 292.748,510.267 315.324,479.454 350.283,494.851 
	365.146,459.662 402.713,466.581 409.059,428.913 447.21,426.982 444.698,388.866 481.375,378.189 470.142,341.679 503.367,322.832 
	"/>
<g>
	<path style="fill:#FFFFFF;" d="M157.512,325.436c-8.771-19.608-48.044,5.174-61.902-25.806
		c-8.712-19.478,5.039-33.629,20.072-40.353c7.712-3.45,25.656-9.279,29.515-0.651c1.345,3.007,1.943,9.955-2.764,12.06
		c-4.053,1.812-9.28-1.81-20.262,3.102c-9.413,4.209-13.075,10.399-10.269,16.673c7.25,16.209,46.697-8.181,61.84,25.676
		c8.362,18.694-0.382,34.213-18.423,42.282c-17.125,7.659-34.056,4.88-37.447-2.702c-1.638-3.66-0.694-10.671,3.358-12.484
		c5.36-2.397,13.391,6.089,26.725,0.126C155.801,339.85,161.02,333.28,157.512,325.436z"/>
	<path style="fill:#FFFFFF;" d="M198.17,329.369c-0.116-0.261-0.22-0.842-0.322-1.424l-11.549-93.509
		c-0.578-4.447,3.441-8.441,8.277-10.606c4.967-2.221,10.623-2.554,13.553,0.841l62.008,70.939c0.365,0.465,0.672,0.798,0.847,1.19
		c1.813,4.053-2.988,9.808-7.564,11.854c-2.875,1.287-5.507,1.365-7.271-0.826l-12.744-15.164l-29.936,13.39l2.809,19.607
		c0.458,2.775-1.354,4.685-4.231,5.971C207.47,333.682,200.041,333.553,198.17,329.369z M233.78,280.968l-29.324-35.045
		l6.578,45.219L233.78,280.968z"/>
	<path style="fill:#FFFFFF;" d="M301.062,291.818c-3.791,1.696-8.267,1.502-9.847-2.027l-38.005-84.968
		c-1.638-3.661,1.844-7.101,6.156-9.031c4.184-1.871,9.2-2.231,10.835,1.429l33.738,75.427l31.897-14.267
		c3.399-1.521,6.734,1.379,8.431,5.17c1.638,3.66,1.632,8.212-1.767,9.732L301.062,291.818z"/>
	<path style="fill:#FFFFFF;" d="M359.945,200.063l19.869-8.887c3.401-1.521,6.823,0.871,8.402,4.4
		c1.344,3.006,1.224,7.297-2.436,8.933l-19.871,8.887l11.752,26.276l36.996-16.548c3.399-1.521,6.937,1.132,8.75,5.185
		c1.579,3.529,1.573,8.081-2.086,9.718l-46.537,20.816c-3.791,1.696-8.267,1.502-9.847-2.027l-37.948-84.839
		c-1.579-3.529,1.264-6.997,5.054-8.693l46.537-20.816c3.66-1.637,7.055,1.394,8.634,4.923c1.813,4.053,1.431,8.459-1.97,9.979
		l-36.994,16.548L359.945,200.063z"/>
</g>
<g>
</g>
<g>
</g>
<g>
</g>
<g>
</g>
<g>
</g>
<g>
</g>
<g>
</g>
<g>
</g>
<g>
</g>
<g>
</g>
<g>
</g>
<g>
</g>
<g>
</g>
<g>
</g>
<g>
</g>
</svg>
