<svg id="Capa_1" enable-background="new 0 0 512 512" height="512" viewBox="0 0 512 512" width="512" xmlns="http://www.w3.org/2000/svg"><g><path d="m361 377 49.2 15-8.101 45-41.099 15 35.698 15-8.101 45h-120.298c-28.799 0-56.999-10.8-78.3-30h-69l30-165h45c8.401 0 15-6.599 15-15v-105c32.999 0 60 27.001 60 60v60h152.703l-8.101 45z" fill="#ffd5cc"/><path d="m407.501 407h-272.865l-13.636 75h69c21.301 19.2 49.501 30 78.3 30h120.298l8.101-45-35.699-15 41.1-15z" fill="#ffc0b3"/><g id="Customer_Feedback_2_"><g><path d="m151 512h-60v-195h60z" fill="#4d5e80"/></g><g><path d="m402.1 437-5.402 30h-95.698v-30z" fill="#fa9"/></g><g><path d="m415.602 362-5.402 30h-109.2v-30z" fill="#ffc0b3"/></g><g><path d="m311.195 169.849-55.195-29.019-55.195 29.019 10.547-61.465-44.648-43.521 61.699-8.965 27.597-55.898 27.598 55.898 61.699 8.965-44.648 43.521z" fill="#ffdf40"/></g><g><path d="m477.898 257.967-55.195-29.019-55.195 29.019 10.547-61.465-44.648-43.521 61.699-8.965 27.598-55.898 27.598 55.898 61.698 8.965-44.648 43.521z" fill="#ffbe40"/></g><g><path d="m144.492 257.967-55.195-29.019-55.195 29.019 10.547-61.465-44.649-43.521 61.699-8.965 27.598-55.898 27.598 55.898 61.699 8.965-44.648 43.521z" fill="#ffdf40"/></g></g><path d="m311.195 169.849-10.547-61.465 44.649-43.521-61.699-8.965-27.598-55.898v140.83z" fill="#ffbe40"/><path d="m91 407h60v105h-60z" fill="#3d4b66"/></g></svg>