<svg width="86" height="87" viewBox="0 0 86 87" fill="none" xmlns="http://www.w3.org/2000/svg"><path fill-rule="evenodd" clip-rule="evenodd" d="M9.52188 0H76.4782C81.7369 0 86 4.31211 86 9.63136L85.9999 62.0721C85.9999 67.3913 81.7369 72.1155 76.4781 72.1155H48.4433C46.0249 72.1155 43.6971 71.9469 41.9324 73.6197L30.4583 84.7358C25.4323 89.5 16.125 86.2944 16.125 79.3271C16.125 74.9312 13.3825 72.1155 9.03663 72.1155H8.45279C3.78444 72.1155 0 68.2876 0 63.5655L5.15536e-05 9.63136C5.15536e-05 4.31211 4.26312 0 9.52188 0ZM40.4679 12.0393C37.8385 12.0393 35.707 14.1953 35.707 16.855V50.5647C35.707 53.2243 37.8385 55.3804 40.4679 55.3804H45.2288C47.8582 55.3804 49.9897 53.2243 49.9897 50.5647V16.855C49.9897 14.1953 47.8582 12.0393 45.2288 12.0393H40.4679ZM21.4242 26.4861C18.7948 26.4861 16.6633 28.6422 16.6633 31.3018V50.5645C16.6633 53.2241 18.7948 55.3802 21.4242 55.3802H26.1851C28.8145 55.3802 30.946 53.2241 30.946 50.5645V31.3018C30.946 28.6422 28.8145 26.4861 26.1851 26.4861H21.4242ZM54.7506 40.9331C54.7506 38.2735 56.8822 36.1174 59.5115 36.1174H64.2725C66.9018 36.1174 69.0334 38.2735 69.0334 40.9331V50.5645C69.0334 53.2241 66.9018 55.3801 64.2725 55.3801H59.5115C56.8822 55.3801 54.7506 53.2241 54.7506 50.5645V40.9331Z" fill="#2D87F1"></path></svg>
