<svg width="30" height="31" viewBox="0 0 30 31" fill="none" xmlns="http://www.w3.org/2000/svg">
<g id="Crown">
<path id="Vector" d="M24.302 24.0738H5.7089C5.51867 24.0738 5.33624 24.1494 5.20173 24.2839C5.06722 24.4184 4.99166 24.6008 4.99166 24.791V26.2145C4.99166 26.4047 5.06722 26.5872 5.20173 26.7217C5.33624 26.8562 5.51867 26.9317 5.7089 26.9317H24.302C24.4903 26.9318 24.6711 26.8577 24.8053 26.7256C24.9395 26.5934 25.0163 26.4138 25.0192 26.2255V24.791C25.0164 24.6017 24.9399 24.4209 24.806 24.287C24.6721 24.1531 24.4913 24.0767 24.302 24.0738ZM27.1599 9.72898C26.5746 9.72898 26.0133 9.96149 25.5994 10.3754C25.1855 10.7892 24.953 11.3506 24.953 11.9359C24.9576 12.2407 25.0252 12.5413 25.1517 12.8186L21.9186 14.7607C21.7551 14.8576 21.5741 14.9211 21.386 14.9475C21.1978 14.9738 21.0063 14.9626 20.8225 14.9143C20.6388 14.8661 20.4664 14.7818 20.3155 14.6664C20.1646 14.551 20.0381 14.4068 19.9434 14.2421L16.302 7.86415C16.6644 7.58147 16.9296 7.19269 17.0604 6.75207C17.1912 6.31145 17.1812 5.84098 17.0317 5.40633C16.8823 4.97168 16.6008 4.59454 16.2267 4.32755C15.8526 4.06056 15.4044 3.91705 14.9448 3.91705C14.4851 3.91705 14.037 4.06056 13.6628 4.32755C13.2887 4.59454 13.0073 4.97168 12.8578 5.40633C12.7083 5.84098 12.6983 6.31145 12.8291 6.75207C12.96 7.19269 13.2251 7.58147 13.5875 7.86415L9.94614 14.2421C9.85141 14.4068 9.72492 14.551 9.574 14.6664C9.42308 14.7818 9.25073 14.8661 9.06698 14.9143C8.88322 14.9626 8.69171 14.9738 8.50356 14.9475C8.31541 14.9211 8.13438 14.8576 7.97097 14.7607L4.73786 12.8186C4.86687 12.5421 4.93462 12.241 4.93648 11.9359C4.93841 11.5066 4.81189 11.0866 4.5732 10.7298C4.33451 10.373 3.99456 10.0957 3.59704 9.9337C3.19953 9.77165 2.76264 9.73221 2.34253 9.82044C1.92243 9.90867 1.53831 10.1205 1.23958 10.4288C0.940839 10.7371 0.741138 11.1277 0.666146 11.5503C0.591154 11.973 0.6443 12.4084 0.818752 12.8007C0.993204 13.1929 1.28099 13.524 1.6451 13.7513C2.00921 13.9787 2.43301 14.092 2.862 14.0766C2.97942 14.088 3.09768 14.088 3.2151 14.0766L6.44821 22.6945H23.5848L26.8068 14.0766H27.1599C27.7026 14.0376 28.2103 13.7946 28.5809 13.3964C28.9516 12.9982 29.1577 12.4744 29.1577 11.9304C29.1577 11.3863 28.9516 10.8625 28.5809 10.4643C28.2103 10.0661 27.7026 9.82308 27.1599 9.78415V9.72898Z" fill="#FFCA38"/>
</g>
</svg>
