<svg xmlns="http://www.w3.org/2000/svg" width="203" height="50" viewBox="0 0 203 50" fill="none">
    <path d="M15.2518 45.9715C14.488 45.9734 13.7374 45.772 13.0771 45.3881C12.7782 45.2167 12.5013 45.0095 12.2526 44.7709C11.6317 44.1821 11.2002 43.4217 11.0134 42.5866L5.5454 11.8039C5.40405 11.1746 5.40381 10.5217 5.54471 9.89228C5.6856 9.26284 5.96413 8.67241 6.36029 8.16339C6.76748 7.64433 7.28671 7.22401 7.87918 6.93382C8.47136 6.64701 9.121 6.49862 9.77898 6.49986H20.3871C21.8461 6.49811 23.2929 6.7662 24.6544 7.29063C26.2061 7.88398 27.6144 8.79934 28.7867 9.97641L28.9314 10.1259C29.2787 10.4731 29.6791 10.7628 30.1176 10.9842C30.7627 11.3013 31.472 11.4663 32.191 11.4664H47.4811C48.1335 11.4653 48.7778 11.6113 49.366 11.8936C49.9542 12.1759 50.4712 12.5872 50.8785 13.0969C51.2858 13.6066 51.5729 14.2016 51.7185 14.8376C51.8641 15.4736 51.8644 16.1343 51.7195 16.7704L47.3798 42.5914C47.1612 43.5506 46.6232 44.407 45.8539 45.0203C45.0847 45.6335 44.13 45.9673 43.1462 45.9667L15.2518 45.9715Z" fill="url(#paint0_linear_50_44)"/>
    <path d="M20.3719 6.65885C21.9141 6.65703 23.4415 6.9598 24.8664 7.54978C26.2913 8.13976 27.5857 9.00534 28.6752 10.0968L28.8247 10.2415C29.2674 10.6847 29.7937 11.0357 30.3731 11.2741C30.9525 11.5125 31.5734 11.6335 32.1999 11.6302H47.49C48.1225 11.631 48.7466 11.7742 49.3162 12.0492C49.8857 12.3241 50.3861 12.7236 50.7802 13.2182C51.1743 13.7128 51.4521 14.2898 51.5928 14.9064C51.7336 15.5229 51.7338 16.1633 51.5934 16.7799L47.2538 42.5817C47.1281 43.1444 46.8867 43.6748 46.545 44.1391C46.1563 44.6705 45.6485 45.1034 45.0624 45.4032C44.4762 45.703 43.828 45.8612 43.1697 45.8653H15.2511C14.2974 45.8652 13.3721 45.5411 12.6266 44.9463C11.8811 44.3515 11.3597 43.5212 11.1477 42.5913L5.67493 11.7652C5.54017 11.1514 5.5447 10.5151 5.68822 9.9033C5.83173 9.29147 6.11057 8.71958 6.50423 8.22971C6.89788 7.73983 7.39635 7.34445 7.96295 7.0726C8.52955 6.80075 9.14989 6.65937 9.77833 6.65885H20.3864M20.3864 6.38883H9.77833C8.59113 6.39011 7.45299 6.86262 6.61396 7.70255C5.77494 8.54248 5.30365 9.68113 5.30365 10.8683C5.3036 11.193 5.34082 11.5166 5.41455 11.8327L10.8825 42.6202C11.1076 43.6109 11.6624 44.4959 12.456 45.1301C13.2497 45.7643 14.2352 46.1103 15.2511 46.1113H43.1166C43.8203 46.1095 44.5136 45.9417 45.1403 45.6217C45.767 45.3016 46.3094 44.8383 46.7234 44.2693C47.087 43.7749 47.3432 43.2099 47.4756 42.6106L51.8152 16.7944C51.9629 16.1393 51.9611 15.4595 51.8102 14.8052C51.6594 14.1509 51.3631 13.5389 50.9436 13.0147C50.524 12.4904 49.9918 12.0673 49.3864 11.7767C48.7811 11.4862 48.1181 11.3355 47.4466 11.3361H32.1758C31.4773 11.3334 30.7889 11.1684 30.1651 10.8539C29.7377 10.6411 29.3483 10.3592 29.0127 10.0197L28.868 9.87504C27.753 8.75836 26.4286 7.87263 24.9707 7.26862C23.5128 6.66461 21.95 6.35416 20.3719 6.35507L20.3864 6.38883Z" fill="#A9E5BB"/>
    <path d="M23.8341 9.70633L49.0958 3.18718C49.8706 2.98734 50.6828 2.9821 51.4602 3.17192C52.2376 3.36173 52.956 3.74072 53.5515 4.27518C54.147 4.80964 54.6012 5.483 54.8738 6.23537C55.1463 6.98774 55.2286 7.79579 55.1134 8.58766L52.5868 25.8836C52.4673 26.7172 52.1352 27.506 51.6224 28.174C51.2151 28.6949 50.7055 29.127 50.1251 29.4437C49.5447 29.7605 48.9056 29.9552 48.2471 30.016L33.9552 31.4143C33.4058 31.4688 32.8512 31.4281 32.3157 31.2938C31.1716 31.0137 30.1678 30.3285 29.4901 29.365L21.0519 17.185C20.6059 16.5419 20.3219 15.8006 20.2242 15.0241C20.1264 14.2476 20.2179 13.459 20.4906 12.7254C20.7634 11.9919 21.2094 11.3351 21.7908 10.8111C22.3721 10.2871 23.0714 9.9114 23.8293 9.71597L23.8341 9.70633Z" fill="#3F6972"/>
    <path d="M33.4884 31.5782C33.0835 31.5789 32.6801 31.5287 32.2877 31.4287C31.1126 31.1345 30.0845 30.4234 29.3946 29.4276L20.9467 17.2669C20.4884 16.6059 20.1966 15.844 20.0962 15.0459C19.9958 14.2479 20.0897 13.4374 20.3701 12.6835C20.6504 11.9296 21.1088 11.2547 21.7063 10.7161C22.3037 10.1776 23.0224 9.7914 23.8013 9.5905L49.063 3.07136C49.8598 2.86547 50.6952 2.85987 51.4948 3.05503C52.2944 3.25019 53.0332 3.64005 53.6456 4.18992C54.258 4.73978 54.7249 5.43258 55.0047 6.20658C55.2846 6.98059 55.3686 7.81178 55.2494 8.62613L52.7179 25.9221C52.5588 27.0258 52.0336 28.044 51.2265 28.8135C50.4195 29.5829 49.3773 30.059 48.2674 30.1654L33.9754 31.5685C33.8114 31.5685 33.6523 31.5782 33.4884 31.5782ZM23.8447 9.70624L23.8784 9.83642C23.1408 10.0252 22.4598 10.3896 21.8934 10.8985C21.3271 11.4075 20.8923 12.0459 20.6261 12.7592C20.3599 13.4726 20.2702 14.2397 20.3646 14.9953C20.4591 15.7508 20.7349 16.4723 21.1685 17.0981L29.6116 29.2781C30.2673 30.2225 31.2442 30.8961 32.3601 31.1731C32.8822 31.2985 33.4213 31.3376 33.9561 31.2888L48.2432 29.8857C49.2933 29.7828 50.2787 29.3314 51.0424 28.6035C51.8062 27.8755 52.3043 26.913 52.4576 25.8691L54.9842 8.58756C55.0998 7.81635 55.0225 7.02852 54.7593 6.29446C54.496 5.5604 54.0551 4.903 53.4757 4.38098C52.8964 3.85896 52.1968 3.48859 51.4394 3.30298C50.6819 3.11736 49.8903 3.12227 49.1353 3.31728L23.8688 9.83642L23.8447 9.70624Z" fill="#A9E5BB"/>
    <path d="M28.4009 11.0854L54.5835 7.07359C55.4024 6.94653 56.2402 7.03139 57.017 7.32005C57.7938 7.60872 58.4836 8.09156 59.0208 8.72255C59.558 9.35354 59.9246 10.1116 60.0856 10.9245C60.2466 11.7374 60.1967 12.578 59.9406 13.3661L54.5208 30.1655C54.212 31.1475 53.597 32.0049 52.7658 32.6122C51.9347 33.2195 50.9309 33.5449 49.9015 33.5407H35.3588C34.449 33.5421 33.5573 33.2872 32.7855 32.8054C32.0138 32.3236 31.3933 31.6343 30.995 30.8164L24.7507 18.0288C24.4138 17.3426 24.2437 16.5864 24.2542 15.822C24.2648 15.0575 24.4557 14.3063 24.8115 13.6296C25.1672 12.9529 25.6777 12.3698 26.3015 11.9276C26.9252 11.4855 27.6445 11.1969 28.4009 11.0854Z" fill="#003844"/>
    <path d="M17.7105 11.341H55.6296C56.3055 11.3412 56.9727 11.4934 57.5819 11.7863C58.1911 12.0791 58.7266 12.5053 59.1488 13.0331C59.5711 13.5609 59.8693 14.1769 60.0213 14.8355C60.1733 15.4941 60.1753 16.1785 60.0271 16.8379L55.6874 42.5915C55.5528 43.1985 55.2916 43.7703 54.9207 44.2695C54.503 44.8403 53.9565 45.3046 53.3256 45.6247C52.6947 45.9447 51.9973 46.1115 51.2899 46.1114H16.3941C15.7751 46.113 15.1625 45.9869 14.5945 45.7409C14.0265 45.4948 13.5154 45.1343 13.0931 44.6817C12.6708 44.2291 12.3465 43.6942 12.1404 43.1106C11.9343 42.5269 11.8509 41.907 11.8953 41.2896L13.2165 15.5312C13.2936 14.3923 13.8008 13.3253 14.6352 12.5464C15.4696 11.7674 16.569 11.3348 17.7105 11.3362V11.341Z" fill="url(#paint1_linear_50_44)"/>
    <path d="M51.2945 46.2417H16.394C15.7577 46.2426 15.1281 46.1124 14.5443 45.8593C13.9605 45.6062 13.4351 45.2356 13.0008 44.7705C12.5666 44.3055 12.2327 43.756 12.0201 43.1563C11.8075 42.5566 11.7206 41.9195 11.765 41.2848L13.0814 15.5313C13.1326 14.8068 13.3525 14.1042 13.7233 13.4797C14.0942 12.8552 14.6058 12.326 15.2174 11.9342C15.9616 11.4578 16.8268 11.2051 17.7103 11.2061H55.6294C56.3779 11.2061 57.1153 11.3872 57.7786 11.7339C58.4419 12.0807 59.0115 12.5829 59.4387 13.1975C59.8095 13.7244 60.0651 14.3234 60.1889 14.9557C60.3127 15.5879 60.3018 16.2392 60.1571 16.867L55.8174 42.6157C55.5857 43.6439 55.0113 44.5627 54.1886 45.2216C53.3659 45.8805 52.3437 46.2402 51.2897 46.2417H51.2945ZM17.7103 11.4809C16.6047 11.4788 15.5399 11.8988 14.7334 12.6551C13.9269 13.4114 13.4395 14.4471 13.3707 15.5506L12.0495 41.3041C12.0079 41.9004 12.0892 42.4989 12.2882 43.0625C12.4872 43.6262 12.7998 44.1429 13.2066 44.5809C13.6134 45.0189 14.1057 45.3687 14.6531 45.6088C15.2006 45.8488 15.7914 45.974 16.3892 45.9765H51.2897C52.2831 45.9819 53.2482 45.6464 54.024 45.026C54.7998 44.4055 55.3392 43.5377 55.5522 42.5674L59.8919 16.8187C60.0287 16.2269 60.0398 15.6129 59.9243 15.0165C59.8088 14.4202 59.5695 13.8547 59.2217 13.3566C58.8184 12.7777 58.2811 12.3047 57.6556 11.9781C57.0301 11.6516 56.335 11.481 55.6294 11.4809H17.7103Z" fill="#3F6972"/>
    <path d="M45.5718 28.77C45.5718 23.561 41.3443 19.3335 36.1353 19.3335C30.9263 19.3335 26.6988 23.561 26.6988 28.77C26.6988 33.9789 30.9263 38.2065 36.1353 38.2065C41.3443 38.2065 45.5718 33.9789 45.5718 28.77ZM36.1353 20.2866C40.8252 20.2866 44.6187 24.08 44.6187 28.77C44.6187 33.4599 40.8252 37.2534 36.1353 37.2534C31.4454 37.2534 27.6519 33.4599 27.6519 28.77C27.6519 24.08 31.4454 20.2866 36.1353 20.2866ZM34.2574 33.3184L31.3793 25.571C31.8417 25.5427 32.3701 25.4955 32.3701 25.4955C32.7759 25.4483 32.7287 24.5424 32.3135 24.5613C32.3135 24.5613 31.0962 24.6557 30.3035 24.6557C30.162 24.6557 29.9921 24.6557 29.8128 24.6462C31.1717 22.5985 33.4931 21.2491 36.1353 21.2491C38.1075 21.2491 39.9005 21.9946 41.2405 23.2213C40.6743 23.1458 39.8722 23.5516 39.8722 24.5613C39.8722 25.1841 40.2307 25.7125 40.6176 26.3354C40.9102 26.8449 41.0895 27.4866 41.0895 28.4208C41.0895 29.6853 39.891 32.6484 39.891 32.6484L37.3337 25.571C37.7867 25.5427 38.0415 25.42 38.0415 25.42C38.4472 25.3728 38.4001 24.382 37.9943 24.4009C37.9943 24.4009 36.7675 24.5047 35.9749 24.5047C35.2388 24.5047 33.9838 24.4009 33.9838 24.4009C33.578 24.382 33.5308 25.4011 33.9366 25.42L34.7293 25.4955L35.7861 28.3642L34.2574 33.3184ZM39.9382 35.3472L42.4011 28.77C42.4011 28.77 43.0334 27.1752 42.7692 25.1747C43.3637 26.2504 43.6562 27.4583 43.6562 28.77C43.6562 31.5632 42.1841 34.0355 39.9382 35.3472ZM29.2278 25.722L32.8325 35.6114C30.313 34.3847 28.6144 31.7613 28.6144 28.77C28.6144 27.6753 28.8031 26.6656 29.2278 25.722ZM36.258 29.9967L38.4189 35.8945C37.7112 36.1493 36.9374 36.2909 36.1353 36.2909C35.4559 36.2909 34.8048 36.1871 34.1914 36.0078L36.258 29.9967Z" fill="url(#paint2_linear_50_44)"/>
    <path d="M72.9445 9.78833H75.5001L80.9005 22.4746H78.0074L76.8502 19.678H71.5461L70.3937 22.4987H67.5681L72.9445 9.78833ZM75.8617 17.2043L74.2078 13.1202L72.5346 17.2043H75.8617Z" fill="#003844"/>
    <path d="M81.7689 9.87994H86.6776C90.6411 9.87994 93.3751 12.5946 93.3751 16.1484V16.1821C93.3751 19.7262 90.6411 22.4794 86.6776 22.4794H81.7689V9.87994ZM86.6776 19.9769C87.181 20.0066 87.6851 19.93 88.1569 19.752C88.6288 19.574 89.0579 19.2987 89.4163 18.9439C89.7747 18.5891 90.0544 18.1629 90.2372 17.6928C90.42 17.2228 90.5018 16.7196 90.4772 16.2159V16.1773C90.5028 15.6718 90.4221 15.1665 90.2402 14.6941C90.0582 14.2218 89.7791 13.7929 89.421 13.4352C89.0628 13.0775 88.6336 12.799 88.161 12.6176C87.6884 12.4363 87.1831 12.3562 86.6776 12.3825H84.5367V19.9769H86.6776Z" fill="#003844"/>
    <path d="M92.8739 9.87994H95.931L99.2243 18.7522L102.518 9.87994H105.507L100.415 22.5711H97.9658L92.8739 9.87994Z" fill="#003844"/>
    <path d="M108.892 9.78836H111.447L116.843 22.4747H113.95L112.783 19.678H107.479L106.327 22.4988H103.501L108.892 9.78836ZM111.785 17.2044L110.112 13.1203L108.443 17.2044H111.785Z" fill="#003844"/>
    <path d="M117.711 9.87988H120.267L126.169 17.6334V9.87988H128.903V22.4746H126.545L120.445 14.4703V22.4746H117.711V9.87988Z" fill="#003844"/>
    <path d="M130.291 16.2158V16.1772C130.276 15.313 130.436 14.4547 130.761 13.654C131.087 12.8532 131.571 12.1266 132.184 11.5179C132.798 10.9093 133.528 10.4311 134.332 10.1123C135.135 9.79349 135.995 9.64062 136.859 9.66288C137.776 9.6152 138.694 9.76241 139.551 10.0948C140.408 10.4273 141.184 10.9374 141.83 11.5916L140.065 13.6264C139.223 12.7398 138.066 12.2202 136.844 12.1799C134.718 12.1799 133.189 13.9447 133.189 16.1049V16.1386C133.189 18.2988 134.684 20.0974 136.844 20.0974C138.291 20.0974 139.163 19.5236 140.152 18.6219L141.917 20.406C141.283 21.1474 140.488 21.7349 139.593 22.1242C138.699 22.5135 137.727 22.6943 136.753 22.653C135.902 22.6672 135.058 22.5106 134.269 22.1925C133.48 21.8744 132.763 21.4011 132.161 20.8008C131.558 20.2005 131.082 19.4854 130.761 18.6978C130.44 17.9102 130.28 17.0662 130.291 16.2158Z" fill="#003844"/>
    <path d="M143.055 9.87994H152.554V12.3439H145.804V14.8995H151.744V17.3683H145.808V20.0107H152.646V22.4746H143.055V9.87994Z" fill="#003844"/>
    <path d="M154.034 9.87988H158.948C162.906 9.87988 165.64 12.5946 165.64 16.1483V16.182C165.64 19.7261 162.906 22.4794 158.948 22.4794H154.034V9.87988ZM158.948 19.9768C159.451 20.0058 159.954 19.9287 160.426 19.7504C160.897 19.5721 161.325 19.2967 161.683 18.942C162.041 18.5873 162.32 18.1612 162.503 17.6916C162.685 17.2219 162.767 16.7191 162.742 16.2158V16.1772C162.768 15.6721 162.687 15.1673 162.506 14.6953C162.324 14.2233 162.045 13.7946 161.688 13.437C161.33 13.0794 160.902 12.8008 160.43 12.6191C159.958 12.4375 159.453 12.3568 158.948 12.3824H156.802V19.9768H158.948Z" fill="#003844"/>
    <path d="M68.6295 27.6195H78.2201V30.1414H71.3972V32.8223H77.4101V35.3393H71.3972V40.219H68.6295V27.6195Z" fill="#3F6972"/>
    <path d="M79.4788 27.6195H82.2513V40.219H79.4788V27.6195Z" fill="#3F6972"/>
    <path d="M84.3342 27.6196H87.1019V37.6972H93.3703V40.2191H84.3342V27.6196Z" fill="#3F6972"/>
    <path d="M94.3826 27.6195H103.886V30.0835H97.1359V32.6391H103.076V35.1079H97.1359V37.7503H103.978V40.219H94.3826V27.6195Z" fill="#3F6972"/>
    <path d="M109.683 27.6195H112.673L115.98 32.9236L119.293 27.6195H122.283V40.219H119.534V31.993L115.985 37.3742H115.913L112.407 32.046V40.2431H109.688L109.683 27.6195Z" fill="#3F6972"/>
    <path d="M128.545 27.5327H131.106L136.506 40.2189H133.613L132.461 37.3933H127.123L125.971 40.2189H123.145L128.545 27.5327ZM131.439 34.9438L129.765 30.8597L128.092 34.9438H131.439Z" fill="#3F6972"/>
    <path d="M137.374 27.6196H139.93L145.832 35.3779V27.6196H148.566V40.2191H146.213L140.099 32.2148V40.2191H137.374V27.6196Z" fill="#3F6972"/>
    <path d="M154.825 27.5327H157.38L162.776 40.2189H159.883L158.735 37.3933H153.402L152.25 40.2189H149.429L154.825 27.5327ZM157.718 34.9438L156.045 30.8597L154.372 34.9438H157.718Z" fill="#3F6972"/>
    <path d="M162.275 33.9554V33.9168C162.268 33.0511 162.434 32.1927 162.765 31.3925C163.095 30.5923 163.583 29.8666 164.199 29.2583C164.815 28.6499 165.546 28.1714 166.351 27.8509C167.155 27.5305 168.015 27.3748 168.881 27.3928C170.694 27.2967 172.471 27.9186 173.828 29.1239L172.092 31.2503C171.207 30.4058 170.023 29.9464 168.799 29.9725C166.783 29.9725 165.183 31.7566 165.183 33.8975V33.9313C165.183 36.2361 166.764 37.9286 168.997 37.9286C169.924 37.9579 170.837 37.6929 171.605 37.1716V35.373H168.818V32.9621H174.291V38.4349C172.797 39.7288 170.886 40.4394 168.91 40.436C164.975 40.436 162.275 37.6778 162.275 33.9554Z" fill="#3F6972"/>
    <path d="M175.863 27.6195H185.367V30.0835H178.616V32.6391H184.556V35.1079H178.616V37.7503H185.458V40.219H175.863V27.6195Z" fill="#3F6972"/>
    <path d="M186.843 27.6196H192.629C194.23 27.6196 195.469 28.068 196.298 28.8974C196.664 29.2823 196.947 29.7369 197.133 30.234C197.319 30.731 197.402 31.2604 197.379 31.7905V31.8291C197.419 32.6861 197.177 33.5328 196.689 34.2386C196.201 34.9444 195.495 35.4701 194.678 35.7347L197.755 40.2335H194.519L191.819 36.2025H189.639V40.2335H186.867L186.843 27.6196ZM192.422 33.7385C193.772 33.7385 194.548 33.02 194.548 31.9592V31.9207C194.548 30.7345 193.719 30.1221 192.369 30.1221H189.615V33.7385H192.422Z" fill="#3F6972"/>
    <defs>
        <linearGradient id="paint0_linear_50_44" x1="1.76724" y1="20.3211" x2="67.0008" y2="17.0815" gradientUnits="userSpaceOnUse">
            <stop stop-color="#A9E5BB"/>
            <stop offset="0.505423" stop-color="#3F6972"/>
        </linearGradient>
        <linearGradient id="paint1_linear_50_44" x1="9.2819" y1="42.495" x2="120.454" y2="-7.95169" gradientUnits="userSpaceOnUse">
            <stop stop-color="white"/>
            <stop offset="1" stop-color="#A9E5BB"/>
        </linearGradient>
        <linearGradient id="paint2_linear_50_44" x1="49.036" y1="19.4377" x2="26.7648" y2="41.3421" gradientUnits="userSpaceOnUse">
            <stop stop-color="#A9E5BB"/>
            <stop offset="1" stop-color="#3F6972"/>
        </linearGradient>
    </defs>
</svg>