<svg xmlns="http://www.w3.org/2000/svg" width="5" height="7" viewBox="0 0 5 7" fill="none">
  <path d="M4.30067 3.68763C4.30091 3.7877 4.25904 3.88468 4.18232 3.96173L1.60953 6.53135C1.52219 6.61881 1.39669 6.67381 1.26062 6.68425C1.12456 6.69469 0.989087 6.65972 0.884005 6.58703C0.778924 6.51433 0.712842 6.40987 0.700297 6.29663C0.687753 6.18338 0.729772 6.07063 0.817113 5.98317L3.12233 3.68763L0.899442 1.3921C0.8567 1.3483 0.824781 1.29789 0.80552 1.24378C0.786259 1.18968 0.780036 1.13293 0.787209 1.07682C0.794381 1.0207 0.814808 0.966321 0.847314 0.916797C0.879821 0.867273 0.923767 0.823585 0.976626 0.788242C1.02953 0.749022 1.0916 0.719317 1.15894 0.70099C1.22629 0.682663 1.29745 0.676109 1.36798 0.681738C1.4385 0.687367 1.50688 0.705057 1.56881 0.733701C1.63074 0.762345 1.68489 0.801326 1.72788 0.848201L4.2132 3.41782C4.27778 3.49709 4.30858 3.59209 4.30067 3.68763Z" fill="#FEFFFF"/>
</svg>