<svg width="350" height="67" viewBox="0 0 350 67" fill="none" xmlns="http://www.w3.org/2000/svg">
<path d="M20.6154 52.1914L30.8463 52.1928L30.8526 60.8828L20.8086 60.8815C19.2197 60.2011 17.9109 59.2337 16.9602 58.1001C17.3326 56.2262 18.7167 53.778 20.6154 52.1914Z" fill="#6F4BBB"/>
<path d="M21.2073 52.9169C19.8536 54.2769 18.5155 55.924 18.0653 57.798C18.8757 58.7351 19.9352 59.4606 21.0723 59.9897L29.6682 59.9909L29.663 52.9181L21.2073 52.9169Z" fill="#7D5DC2"/>
<path d="M18.8435 55.8803C18.5791 56.243 18.0818 57.7088 18.0508 57.7994C18.8612 58.7365 19.9206 59.462 21.0577 59.9911L25.6358 59.9917L25.6331 56.1986C23.3752 56.1831 21.1172 56.0771 18.8435 55.8803Z" fill="#9478CF"/>
<path d="M20.5734 59.0403C21.6325 59.388 22.1313 60.0379 22.2876 60.8842L18.5972 60.8837C18.8458 60.1583 19.5459 59.2668 20.5734 59.0403Z" fill="#5F3EA7"/>
<path d="M20.5578 59.4334C19.9817 59.5845 19.4993 60.0227 19.1882 60.5215L20.5742 60.5217L20.5734 59.4334L20.5578 59.4334Z" fill="#6F4BBB"/>
<path d="M24.2171 58.8286C25.6343 59.2065 26.3201 60.1283 26.4919 60.8839L21.5714 60.8833C21.8979 60.0825 22.8937 59.0097 24.2171 58.8286Z" fill="#5F3EA7"/>
<path d="M24.1852 59.2063C23.4067 59.3422 22.644 59.8711 22.1929 60.5209L24.2173 60.5212L24.2163 59.2063L24.1852 59.2063Z" fill="#6F4BBB"/>
<path d="M43.1133 52.1904L32.8824 52.189L32.8887 60.879L42.9328 60.8804C44.5206 60.2005 45.828 59.2335 46.7771 58.1001C46.4176 56.2261 45.0299 53.7776 43.1133 52.1904Z" fill="#6F4BBB"/>
<path d="M42.5378 52.9157C43.8936 54.2761 45.234 55.9235 45.6869 57.7976C44.8779 58.7345 43.8195 59.4598 42.6831 59.9886L34.0873 59.9874L34.0822 52.9146L42.5378 52.9157Z" fill="#7D5DC2"/>
<path d="M44.8902 55.8786C45.1552 56.2413 45.6546 57.7073 45.6858 57.798C44.8767 58.7348 43.8184 59.46 42.682 59.9888L38.1039 59.9882L38.1012 56.195C40.3591 56.1802 42.6325 56.0747 44.8902 55.8786Z" fill="#9478CF"/>
<path d="M43.1779 59.0376C42.1193 59.3851 41.6215 60.0348 41.4664 60.8811L45.1568 60.8815C44.9072 60.1561 44.2058 59.2644 43.1779 59.0376Z" fill="#5F3EA7"/>
<path d="M43.1952 59.4303C43.7715 59.5815 44.2546 60.0199 44.5664 60.5187L43.1804 60.5186L43.1796 59.4303L43.1952 59.4303Z" fill="#6F4BBB"/>
<path d="M39.5358 58.8266C38.1191 59.2042 37.4346 60.1258 37.2639 60.8813L42.1843 60.8819C41.8568 60.081 40.8595 59.0081 39.5358 58.8266Z" fill="#5F3EA7"/>
<path d="M39.5509 59.204C40.3296 59.3401 41.093 59.8692 41.5451 60.5191L39.5207 60.5188L39.5197 59.204L39.5509 59.204Z" fill="#6F4BBB"/>
<path d="M4.51989 54.8687C4.58335 56.4559 4.95803 57.6954 5.675 58.4664C6.79625 58.3759 7.74537 57.1668 8.18067 56.1239C7.52576 55.0203 6.24833 54.5213 4.51989 54.8687Z" fill="#5F3EA7"/>
<path d="M5.09665 55.3071C5.12846 56.2293 5.3784 57.1817 5.89298 57.8772L6.32737 55.3677C5.93785 55.277 5.51724 55.2769 5.09665 55.3071Z" fill="#6F4BBB"/>
<path d="M7.35329 55.715C7.46335 57.1359 7.65115 58.3904 8.57093 59.6602C10.2215 59.3128 11.5134 58.4212 12.0575 57.0005C11.2463 55.2017 9.31501 54.9596 7.35329 55.715Z" fill="#5F3EA7"/>
<path d="M8.80448 59.0561L9.90809 55.8968C9.28496 55.7758 8.58409 55.8664 7.91446 56.078C8.02428 57.1513 8.21189 58.1037 8.80448 59.0561Z" fill="#6F4BBB"/>
<path d="M12.7721 56.8786C13.0537 58.4959 14.6272 59.2972 15.4214 59.252C15.7791 58.6626 16.1367 57.8917 16.1361 56.9697L15.4504 56.4104C14.4069 56.2138 13.3012 56.2892 12.7721 56.8786Z" fill="#5F3EA7"/>
<path d="M15.1403 58.7077C15.4515 58.2542 15.6535 57.5588 15.6842 56.8937L14.5625 56.7121L15.1403 58.7077Z" fill="#6F4BBB"/>
<path d="M16.1419 35.1989L16.1576 56.953C12.2792 57.4211 7.76164 57.2693 4.5198 54.8501C4.58065 52.8244 4.78172 50.844 5.15422 48.9543C5.85273 45.5379 7.17456 42.4239 9.46259 39.8693C11.486 37.6171 13.5103 36.544 16.1419 35.1989Z" fill="#6F4BBB"/>
<path d="M5.6098 54.3515C7.63601 55.8635 12.4966 56.3328 15.0512 56.0157L15.0375 36.9522C8.45048 40.3528 5.83791 46.6264 5.6098 54.3515Z" fill="#9478CF"/>
<path d="M5.61021 54.353C6.63907 55.1241 8.38444 55.6081 10.2076 55.8804C10.4691 51.0274 10.4328 43.7251 9.30963 41.7898C6.86582 45.161 5.7626 49.4697 5.61021 54.353Z" fill="#A58DD4"/>
<path d="M10.2004 51.1184C11.057 51.1186 11.7427 51.7837 11.7433 52.6151C11.7439 53.4464 11.0592 54.1114 10.2026 54.1113C9.34607 54.1111 8.66034 53.446 8.65973 52.6146C8.65912 51.7833 9.34388 51.1183 10.2004 51.1184Z" fill="#9478CF"/>
<path d="M13.8504 18.2287C13.3967 15.402 13.894 13.9358 14.4839 11.3511C16.3384 12.8479 17.5228 13.9213 19.7819 15.025C20.2316 12.2891 21.2264 9.70448 22.6731 7.28616L23.5286 5.8654C26.8322 8.28441 29.6526 10.2196 31.8353 13.4245C34.0134 10.2203 36.8309 8.28585 40.1309 5.8678L40.9886 7.28881C42.4388 9.70755 43.4374 12.2925 43.8911 15.0285C46.1486 13.9254 47.3314 12.8523 49.1837 11.3561C49.793 13.9259 50.2769 15.3922 49.8273 18.2339L53.9086 19.3228C53.1063 29.6619 52.2873 38.4743 51.2514 48.8134C51.1123 50.2342 50.9576 51.6702 50.8029 53.0911C50.7565 53.4992 50.2431 54.2398 48.0627 54.2546C37.4103 54.9484 26.259 54.9468 15.6212 54.2499C13.4407 54.2194 12.9262 53.4937 12.8792 53.0856C12.7224 51.6345 12.5656 50.1833 12.4244 48.7322C12.3616 48.1427 12.2989 47.5531 12.2362 46.9485C11.3417 37.7277 10.4628 28.5372 9.72398 19.3013L13.8037 18.2136L13.8504 18.2136L13.8504 18.2287Z" fill="#6F4BBB"/>
<path d="M23.9812 8.02728C22.2234 10.9293 21.2445 13.9976 21.0599 17.1719C19.2528 16.5066 17.1962 15.4179 15.4196 14.0119C15.0626 15.5537 15.1419 17.5641 15.626 19.3176C14.1311 19.6499 12.7452 19.9974 11.3594 20.3902C12.1139 29.883 12.8217 39.3758 13.7943 48.8385C13.8884 49.7757 14.0924 51.8012 14.2021 52.7384C14.5916 52.9501 15.4015 52.9502 15.7285 52.9654C26.4443 53.6622 37.284 53.6638 47.9987 52.97C48.3413 52.9398 49.1356 52.94 49.5249 52.7435C49.6332 51.8215 49.8341 49.7506 49.9269 48.8437C50.87 39.3662 51.5795 29.8736 52.3201 20.3961C50.9337 20.0029 49.5473 19.655 48.0519 19.3223C48.5334 17.5689 48.6098 15.5585 48.2505 14.0166C46.4916 15.4373 44.421 16.5102 42.6149 17.175C42.4257 14.0158 41.4422 10.932 39.6802 8.02955C36.1 10.6592 33.7497 12.5634 31.8368 16.3723C29.9028 12.5629 27.5652 10.6579 23.9656 8.02728L23.9812 8.02728Z" fill="#9478CF"/>
<path d="M23.9861 8.02674C24.2539 12.2447 25.3478 16.9314 27.4055 18.897C24.6635 18.6094 23.1989 18.2917 21.0795 17.1727C19.2563 16.5073 17.1992 15.4185 15.4222 14.0124C16.3745 16.7942 17.295 18.7747 19.1814 20.7101C17.5768 20.6796 16.6573 20.1655 15.6285 19.3188C14.1332 19.6512 12.747 19.9987 11.3608 20.3916C12.1154 29.8858 12.8232 39.3799 13.7958 48.8438C13.89 49.7812 14.0939 51.807 14.2036 52.7443C14.5933 52.956 15.4033 52.9561 15.7305 52.9713C21.0897 53.3197 26.48 53.4866 31.8701 53.4873L31.8661 47.8332C23.5477 48.4671 15.9363 35.7369 24.6698 27.3778L22.9257 28.3149C22.7066 26.9693 23.1416 25.2913 23.7171 23.9308C24.8524 21.2853 27.8732 19.3203 31.8454 18.8522L31.8436 16.3577C29.9091 12.5477 27.5866 10.6426 23.9861 8.02674Z" fill="#A58DD4"/>
<path d="M44.5013 20.705C46.369 18.7703 47.3021 16.7751 48.2502 13.9937C48.6095 15.5357 48.5331 17.5462 48.0516 19.2997C47.0242 20.1612 46.1056 20.675 44.5013 20.705ZM41.3389 19.9185C42.2734 19.9186 43.0216 20.6595 43.0222 21.5514C43.0229 22.4584 42.2602 23.1839 41.3412 23.1837C40.4067 23.1836 39.6585 22.4428 39.6579 21.5509C39.6572 20.659 40.4199 19.9184 41.3389 19.9185ZM47.494 23.6079C48.1326 23.6079 48.6625 24.122 48.663 24.7418C48.6634 25.3616 48.1342 25.8755 47.4956 25.8754C46.857 25.8753 46.3271 25.3612 46.3266 24.7414C46.3262 24.1065 46.8398 23.6078 47.494 23.6079ZM36.2916 18.8747C38.3461 16.925 39.433 12.2389 39.6947 8.00628C41.4569 10.9089 42.4404 13.9778 42.6296 17.1523C40.4966 18.2707 39.0327 18.5879 36.2916 18.8747Z" fill="#7D5DC2"/>
<path d="M16.585 22.2978C18.1116 22.298 19.3586 23.5075 19.3597 24.989C19.3608 26.4705 18.1155 27.6798 16.5889 27.6796C15.0623 27.6794 13.8153 26.4698 13.8142 24.9883C13.8132 23.5068 15.0585 22.2975 16.585 22.2978ZM14.7996 30.5516C15.4071 30.5517 15.9059 31.0355 15.9064 31.6251C15.9068 32.2147 15.4087 32.6984 14.8012 32.6983C14.1937 32.6982 13.6948 32.2144 13.6944 31.6248C13.694 31.0352 14.1921 30.5515 14.7996 30.5516Z" fill="#9478CF"/>
<path d="M32.0286 23.766C38.6163 23.7669 43.9619 28.9522 43.9666 35.346C43.9713 41.7397 38.6333 46.9235 32.0456 46.9225C25.4578 46.9215 20.1122 41.7362 20.1075 35.3425C20.1028 28.9488 25.4408 23.765 32.0286 23.766Z" fill="#D3E8EF"/>
<path d="M20.4182 32.7119C21.4584 28.3589 25.0378 24.9435 29.5535 24.0221C34.4745 23.6601 38.4638 27.0011 38.4671 31.5507C38.4705 36.1305 34.4243 40.1959 29.4567 40.6184C24.4734 41.0409 20.4374 37.6848 20.434 33.0898C20.4184 32.9689 20.4183 32.8328 20.4182 32.7119Z" fill="white"/>
<path d="M35.707 30.9007C39.4292 30.9012 42.4371 33.8189 42.4397 37.4315C42.4424 41.044 39.4388 43.9608 35.7166 43.9603C31.9945 43.9597 28.9866 41.042 28.9839 37.4295C28.9813 33.8321 31.9849 30.9002 35.707 30.9007Z" fill="#EA4E64"/>
<path d="M35.7074 30.9005C36.6886 30.9006 37.6232 31.0972 38.4645 31.4752L38.4645 31.5508C38.4678 36.0099 34.6395 39.9847 29.812 40.5886C29.2818 39.6514 28.9695 38.5781 28.9687 37.4294C28.966 33.8168 31.9697 30.8999 35.7074 30.9005Z" fill="#EC6277"/>
<path d="M35.7091 33.1978C38.123 33.1982 40.0867 35.0879 40.0885 37.4458C40.0902 39.7887 38.1448 41.6929 35.7153 41.6926C33.3014 41.6922 31.3377 39.8025 31.336 37.4446C31.3343 35.1017 33.2796 33.1975 35.7091 33.1978Z" fill="#232323"/>
<path d="M35.7081 33.1979C36.5958 33.198 37.4214 33.4551 38.107 33.8936C37.268 36.5991 35.0582 38.8963 32.2245 39.9842C31.6789 39.2737 31.3512 38.3818 31.3505 37.4447C31.3332 35.1018 33.2785 33.1975 35.7081 33.1979Z" fill="#323232"/>
<path d="M30.9446 32.5478C32.4708 32.548 33.7021 33.7423 33.7031 35.2236C33.7042 36.7049 32.4748 37.8988 30.9485 37.8986C29.4223 37.8984 28.1911 36.7041 28.19 35.2228C28.1889 33.7415 29.4184 32.5476 30.9446 32.5478Z" fill="white"/>
<path d="M18.01 40.6534C21.4037 38.8401 26.514 42.0149 26.1441 47.1539C22.9041 46.1861 19.3979 43.2231 18.01 40.6534Z" fill="#6F4BBB"/>
<path d="M18.0099 40.6535C21.0934 40.7144 24.5052 42.4077 26.1438 47.1539C22.2658 46.7301 18.6508 43.8578 18.0099 40.6535Z" fill="#A58DD4"/>
<path d="M19.6164 44.9475C20.0679 44.7964 22.186 44.842 22.3575 45.0688C22.5601 45.3409 22.0005 46.7314 21.4093 47.6383C20.6302 47.0335 19.9911 46.2021 19.6164 44.9475Z" fill="#7D5DC2"/>
<path d="M18.9935 44.4486C19.445 44.2975 21.5631 44.3432 21.7346 44.5699C21.9372 44.842 21.3776 46.2326 20.7864 47.1394C20.0073 46.5347 19.3682 45.7032 18.9935 44.4486Z" fill="white"/>
<path d="M19.6308 43.7382C19.7731 46.6552 23.6994 49.4669 27.4205 48.4246C27.6236 49.271 27.0322 49.7696 26.4249 49.8905C23.0459 50.1771 19.7897 48.1061 18.7133 45.4611C18.4013 44.7356 18.7432 43.8288 19.6308 43.7382Z" fill="#6F4BBB"/>
<path d="M18.9957 49.2117C19.9314 50.9198 21.3958 51.721 23 51.9782C20.7115 52.9754 18.6861 51.6451 18.9957 49.2117Z" fill="#6F4BBB"/>
<path d="M20.5369 49.6197C22.3749 50.617 24.119 50.9345 26.1431 50.7534C24.6645 51.7051 21.7685 51.8105 20.5369 49.6197Z" fill="#9478CF"/>
<path d="M36.1566 20.4817C32.4615 14.2849 22.7472 17.8955 23.7332 24.8476C26.1597 20.9488 30.8459 19.68 36.1566 20.4817Z" fill="#5F3EA7"/>
<path d="M36.1555 20.4797C34.0666 16.9894 29.6755 16.7623 26.734 18.6808C26.719 19.4967 26.9686 20.0859 27.4205 20.5543C29.802 19.4366 32.9158 18.9836 36.1555 20.4797Z" fill="#6F4BBB"/>
<path d="M55.4841 44.0535C59.362 44.054 62.5413 47.0775 62.5441 50.8563C62.5468 54.6352 59.372 57.6577 55.4941 57.6572C51.6162 57.6566 48.437 54.6331 48.4342 50.8543C48.4314 47.0755 51.6063 44.0529 55.4841 44.0535Z" fill="#6F4BBB"/>
<path d="M55.485 45.051C58.8178 45.0515 61.5139 47.6517 61.5163 50.841C61.5186 54.0455 58.8263 56.6298 55.4935 56.6293C52.1607 56.6288 49.4645 54.0286 49.4622 50.8393C49.4598 47.65 52.1677 45.0506 55.485 45.051Z" fill="#9478CF"/>
<path d="M55.4853 45.0503C57.8524 45.0506 59.8934 46.3659 60.8915 48.2705C61.1118 51.2934 57.3135 53.5147 54.7743 52.4714C52.9048 51.4887 51.6109 49.569 51.6092 47.3774C51.609 47.0146 51.6399 46.667 51.7175 46.3194C52.7603 45.5336 54.0681 45.0501 55.4853 45.0503Z" fill="#A58DD4"/>
<path d="M53.0268 49.9485C52.7458 49.117 55.9538 48.0743 56.2504 48.9058L59.4347 58.1429C59.7157 58.9744 56.5077 60.017 56.2111 59.1855L53.0268 49.9485Z" fill="#2B3039"/>
<path d="M57.6365 49.0114C56.3756 49.767 55.3327 50.5075 54.5861 51.8828C55.6616 53.1527 57.0794 53.8482 58.6366 53.667C59.897 52.1255 59.2416 50.3569 57.6365 49.0114Z" fill="#5F3EA7"/>
<path d="M58.6196 51.1273C58.4323 50.5983 58.0894 50.0995 57.653 49.6158C56.688 50.2202 55.8942 50.87 55.2876 51.8069C55.9573 51.8675 57.0005 51.7014 58.6196 51.1273Z" fill="#6F4BBB"/>
<path d="M58.8528 52.7157C57.5919 53.4713 56.549 54.2118 55.8025 55.5872C56.878 56.857 58.2957 57.5525 59.853 57.3714C61.1133 55.8298 60.4579 54.0612 58.8528 52.7157Z" fill="#5F3EA7"/>
<path d="M59.8359 54.6806C59.6486 54.1516 59.3056 53.6528 58.8693 53.1691C57.9042 53.7735 57.1105 54.4233 56.5038 55.3602C57.1735 55.4359 58.2167 55.2546 59.8359 54.6806Z" fill="#6F4BBB"/>
<path d="M52.2819 53.0786C53.4809 52.7916 54.5398 52.6104 55.8327 52.9733C55.9894 54.3337 55.601 55.5731 54.5892 56.359C52.9072 56.2227 52.1897 54.8018 52.2819 53.0786Z" fill="#5F3EA7"/>
<path d="M53.0171 54.7259C52.7988 54.3027 52.6894 53.8191 52.6423 53.2901C53.5765 53.0787 54.4329 52.9881 55.383 53.1847C55.0407 53.623 54.3247 54.1216 53.0171 54.7259Z" fill="#6F4BBB"/>
<path d="M49.871 28.0577C43.5016 28.4045 38.6309 33.7092 38.9936 39.8914C39.3564 46.0736 44.8263 50.8054 51.1957 50.4587C57.5651 50.112 62.4358 44.8072 62.0731 38.625C61.7104 32.4429 56.2561 27.711 49.871 28.0577Z" fill="#393F4C"/>
<path d="M49.9655 29.4484C44.3903 29.7499 40.1109 34.4047 40.4264 39.8311C40.7418 45.2424 45.5416 49.3998 51.1324 49.0832C56.7076 48.7817 60.987 44.1268 60.6716 38.7004C60.3405 33.2891 55.5563 29.1317 49.9655 29.4484Z" fill="#D3E8EF"/>
<path d="M58.244 44.125C59.271 42.5832 59.8304 40.7238 59.72 38.7434C59.4835 34.828 56.6929 31.6379 53.0005 30.6547C52.707 34.041 52.3978 37.3667 52.0732 40.7832C53.3041 41.2671 56.4829 42.8095 58.244 44.125Z" fill="white"/>
<path d="M49.8129 30.5363C44.9539 30.8076 41.2346 34.843 41.5339 39.5592C41.5811 40.2243 41.6906 40.8743 41.878 41.4789C41.8623 41.3429 41.8466 41.2068 41.8465 41.0557C41.531 35.5837 45.8261 30.8985 51.4638 30.5818L51.5105 30.5819C50.9654 30.5364 50.3891 30.5061 49.8129 30.5363Z" fill="white"/>
<path d="M41.8796 44.3502C42.0667 44.6524 42.2693 44.9396 42.4875 45.2117L45.4744 41.1922L52.3592 43.9738L56.3398 35.9798L60.3423 36.7209C60.2331 36.3582 60.1238 35.9955 59.9834 35.6478L55.7784 34.8614L51.8756 42.7043L45.1465 39.9831L41.8796 44.3502Z" fill="#999999"/>
<path d="M45.1775 38.5639C46.3299 38.5036 47.3117 39.3502 47.3748 40.4688C47.4379 41.5873 46.5665 42.5395 45.414 42.5998C44.2616 42.6601 43.2798 41.8135 43.2167 40.6949C43.138 39.5915 44.0251 38.6393 45.1775 38.5639Z" fill="#1EC185"/>
<path d="M55.9329 33.4064C57.0853 33.3461 58.0671 34.1927 58.1302 35.3112C58.1933 36.4298 57.3219 37.3819 56.1694 37.4422C55.017 37.5025 54.0352 36.6559 53.9721 35.5374C53.8934 34.4188 54.7804 33.4667 55.9329 33.4064Z" fill="#EA4E64"/>
<path d="M51.9819 41.3303C53.1343 41.27 54.116 42.1166 54.1792 43.2351C54.2423 44.3537 53.3708 45.3058 52.2184 45.3661C51.066 45.4264 50.0842 44.5798 50.0211 43.4613C49.9424 42.3427 50.8294 41.3906 51.9819 41.3303Z" fill="#338EEF"/>
<path d="M81.5435 10.8705C81.8738 10.8705 82.216 10.9648 82.5699 11.1536C82.9474 11.3188 83.2306 11.543 83.4194 11.8261L92.0202 25.0636L90.2505 24.9928L99.0637 11.8261C99.512 11.189 100.09 10.8705 100.798 10.8705C101.364 10.8705 101.872 11.071 102.32 11.4722C102.768 11.8733 102.992 12.3924 102.992 13.0295V33.5228C102.992 34.1363 102.792 34.6554 102.391 35.0802C101.99 35.4813 101.459 35.6819 100.798 35.6819C100.137 35.6819 99.5946 35.4813 99.1698 35.0802C98.7687 34.6554 98.5681 34.1363 98.5681 33.5228V16.8521L99.9485 17.1707L92.7281 28.1783C92.5157 28.4378 92.2444 28.662 91.914 28.8508C91.6073 29.0395 91.2887 29.1221 90.9584 29.0985C90.6516 29.1221 90.3331 29.0395 90.0027 28.8508C89.696 28.662 89.4364 28.4378 89.224 28.1783L82.4637 17.4892L83.384 15.6133V33.5228C83.384 34.1363 83.1952 34.6554 82.8177 35.0802C82.4401 35.4813 81.9446 35.6819 81.3311 35.6819C80.7412 35.6819 80.2575 35.4813 79.8799 35.0802C79.5024 34.6554 79.3136 34.1363 79.3136 33.5228V13.0295C79.3136 12.4396 79.526 11.9323 79.9507 11.5076C80.3991 11.0828 80.93 10.8705 81.5435 10.8705ZM126.329 26.2316C126.329 28.1665 125.893 29.8772 125.02 31.3638C124.17 32.8267 123.014 33.9712 121.551 34.797C120.112 35.6229 118.495 36.0358 116.702 36.0358C114.909 36.0358 113.28 35.6229 111.818 34.797C110.378 33.9712 109.222 32.8267 108.349 31.3638C107.499 29.8772 107.075 28.1665 107.075 26.2316C107.075 24.2967 107.499 22.5978 108.349 21.1348C109.222 19.6483 110.378 18.492 111.818 17.6662C113.28 16.8167 114.909 16.392 116.702 16.392C118.495 16.392 120.112 16.8167 121.551 17.6662C123.014 18.492 124.17 19.6483 125.02 21.1348C125.893 22.5978 126.329 24.2967 126.329 26.2316ZM122.082 26.2316C122.082 25.0282 121.834 23.99 121.339 23.1169C120.867 22.2202 120.218 21.5242 119.392 21.0286C118.59 20.5331 117.693 20.2854 116.702 20.2854C115.711 20.2854 114.802 20.5331 113.977 21.0286C113.174 21.5242 112.525 22.2202 112.03 23.1169C111.558 23.99 111.322 25.0282 111.322 26.2316C111.322 27.4114 111.558 28.4496 112.03 29.3463C112.525 30.2194 113.174 30.9037 113.977 31.3992C114.802 31.8947 115.711 32.1425 116.702 32.1425C117.693 32.1425 118.59 31.8947 119.392 31.3992C120.218 30.9037 120.867 30.2194 121.339 29.3463C121.834 28.4496 122.082 27.4114 122.082 26.2316ZM140.169 16.392C141.915 16.392 143.237 16.7577 144.133 17.4892C145.054 18.2207 145.679 19.1999 146.009 20.4269C146.363 21.6303 146.54 22.9753 146.54 24.4619V33.5228C146.54 34.1363 146.34 34.6554 145.938 35.0802C145.537 35.4813 145.03 35.6819 144.417 35.6819C143.803 35.6819 143.296 35.4813 142.895 35.0802C142.493 34.6554 142.293 34.1363 142.293 33.5228V24.4619C142.293 23.6832 142.187 22.9871 141.974 22.3736C141.786 21.7365 141.432 21.2292 140.912 20.8517C140.393 20.4741 139.65 20.2854 138.683 20.2854C137.739 20.2854 136.937 20.4741 136.276 20.8517C135.639 21.2292 135.143 21.7365 134.789 22.3736C134.459 22.9871 134.294 23.6832 134.294 24.4619V33.5228C134.294 34.1363 134.093 34.6554 133.692 35.0802C133.291 35.4813 132.784 35.6819 132.17 35.6819C131.557 35.6819 131.049 35.4813 130.648 35.0802C130.247 34.6554 130.046 34.1363 130.046 33.5228V18.905C130.046 18.2915 130.247 17.7842 130.648 17.383C131.049 16.9583 131.557 16.7459 132.17 16.7459C132.784 16.7459 133.291 16.9583 133.692 17.383C134.093 17.7842 134.294 18.2915 134.294 18.905V20.4269L133.763 20.3207C133.975 19.9196 134.282 19.4949 134.683 19.0466C135.084 18.5746 135.556 18.1381 136.099 17.737C136.642 17.3358 137.255 17.0173 137.939 16.7813C138.624 16.5218 139.367 16.392 140.169 16.392ZM150.034 32.7442C149.798 32.4138 149.692 31.9891 149.715 31.47C149.739 30.9508 150.046 30.5025 150.635 30.125C151.013 29.889 151.414 29.7946 151.839 29.8418C152.264 29.8654 152.676 30.0778 153.078 30.4789C153.762 31.1632 154.482 31.6941 155.237 32.0717C155.992 32.4492 156.936 32.638 158.068 32.638C158.422 32.6144 158.811 32.5672 159.236 32.4964C159.661 32.402 160.027 32.2132 160.333 31.9301C160.664 31.6233 160.829 31.1632 160.829 30.5497C160.829 30.0306 160.652 29.6177 160.298 29.3109C159.944 29.0042 159.472 28.7446 158.882 28.5322C158.316 28.3199 157.679 28.1193 156.971 27.9305C156.24 27.7182 155.484 27.4822 154.706 27.2226C153.951 26.9631 153.255 26.6327 152.617 26.2316C151.98 25.8069 151.461 25.2524 151.06 24.5681C150.659 23.8838 150.458 23.0225 150.458 21.9843C150.458 20.8045 150.789 19.8016 151.449 18.9758C152.11 18.1499 152.96 17.5128 153.998 17.0645C155.06 16.6161 156.169 16.392 157.325 16.392C158.056 16.392 158.823 16.4864 159.626 16.6751C160.428 16.8403 161.195 17.1235 161.926 17.5246C162.658 17.9021 163.271 18.4095 163.767 19.0466C164.026 19.4005 164.18 19.8252 164.227 20.3207C164.274 20.8163 164.05 21.2646 163.554 21.6657C163.2 21.9489 162.787 22.0787 162.316 22.0551C161.844 22.0079 161.454 21.8427 161.148 21.5595C160.746 21.0404 160.204 20.6275 159.519 20.3207C158.859 20.014 158.092 19.8606 157.219 19.8606C156.865 19.8606 156.475 19.9078 156.051 20.0022C155.65 20.073 155.296 20.25 154.989 20.5331C154.682 20.7927 154.529 21.2174 154.529 21.8073C154.529 22.35 154.706 22.7866 155.06 23.1169C155.414 23.4236 155.886 23.6832 156.475 23.8956C157.089 24.0843 157.738 24.2731 158.422 24.4619C159.13 24.6507 159.85 24.8748 160.581 25.1344C161.313 25.3939 161.985 25.7361 162.599 26.1608C163.212 26.5855 163.708 27.1401 164.085 27.8243C164.463 28.485 164.652 29.3345 164.652 30.3727C164.652 31.5761 164.298 32.6026 163.59 33.452C162.882 34.3015 161.997 34.9504 160.935 35.3987C159.873 35.8235 158.788 36.0358 157.679 36.0358C156.287 36.0358 154.895 35.7999 153.502 35.3279C152.11 34.8324 150.954 33.9712 150.034 32.7442ZM168.418 17.0999H176.807C177.373 17.0999 177.845 17.2886 178.223 17.6662C178.6 18.0437 178.789 18.5156 178.789 19.0819C178.789 19.6247 178.6 20.0848 178.223 20.4623C177.845 20.8163 177.373 20.9932 176.807 20.9932H168.418C167.852 20.9932 167.38 20.8045 167.003 20.4269C166.625 20.0494 166.436 19.5775 166.436 19.0112C166.436 18.4684 166.625 18.0201 167.003 17.6662C167.38 17.2886 167.852 17.0999 168.418 17.0999ZM172.205 12.6756C172.819 12.6756 173.315 12.8879 173.692 13.3127C174.093 13.7138 174.294 14.2211 174.294 14.8346V30.5851C174.294 30.9154 174.353 31.1868 174.471 31.3992C174.612 31.6115 174.789 31.7649 175.002 31.8593C175.238 31.9537 175.485 32.0009 175.745 32.0009C176.028 32.0009 176.288 31.9537 176.524 31.8593C176.76 31.7413 177.031 31.6823 177.338 31.6823C177.668 31.6823 177.963 31.8357 178.223 32.1425C178.506 32.4492 178.647 32.8739 178.647 33.4166C178.647 34.0773 178.282 34.6201 177.55 35.0448C176.842 35.4695 176.075 35.6819 175.249 35.6819C174.754 35.6819 174.199 35.6465 173.586 35.5757C172.996 35.4813 172.43 35.2807 171.887 34.974C171.368 34.6437 170.931 34.1481 170.577 33.4874C170.223 32.8267 170.046 31.9183 170.046 30.7621V14.8346C170.046 14.2211 170.247 13.7138 170.648 13.3127C171.073 12.8879 171.592 12.6756 172.205 12.6756ZM191.435 36.0358C189.429 36.0358 187.683 35.6229 186.197 34.797C184.734 33.9476 183.601 32.8031 182.799 31.3638C182.02 29.9244 181.631 28.2963 181.631 26.4794C181.631 24.3557 182.056 22.5506 182.905 21.064C183.778 19.5539 184.911 18.3977 186.303 17.5954C187.695 16.7931 189.17 16.392 190.727 16.392C191.931 16.392 193.063 16.6397 194.125 17.1353C195.211 17.6308 196.166 18.3151 196.992 19.1881C197.818 20.0376 198.467 21.0286 198.939 22.1613C199.434 23.2939 199.682 24.4973 199.682 25.7715C199.658 26.3378 199.434 26.7979 199.009 27.1519C198.585 27.5058 198.089 27.6828 197.523 27.6828H184.002L182.94 24.1433H195.93L195.152 24.8512V23.8956C195.104 23.2113 194.857 22.5978 194.408 22.0551C193.984 21.5124 193.441 21.0876 192.78 20.7809C192.143 20.4505 191.459 20.2854 190.727 20.2854C190.019 20.2854 189.359 20.3797 188.745 20.5685C188.132 20.7573 187.601 21.0758 187.152 21.5242C186.704 21.9725 186.35 22.5742 186.091 23.3293C185.831 24.0843 185.701 25.04 185.701 26.1962C185.701 27.4704 185.961 28.5558 186.48 29.4525C187.023 30.3255 187.707 30.998 188.533 31.47C189.382 31.9183 190.279 32.1425 191.223 32.1425C192.096 32.1425 192.792 32.0717 193.311 31.9301C193.83 31.7885 194.243 31.6233 194.55 31.4346C194.88 31.2222 195.175 31.0452 195.435 30.9037C195.859 30.6913 196.261 30.5851 196.638 30.5851C197.157 30.5851 197.582 30.7621 197.912 31.116C198.266 31.47 198.443 31.8829 198.443 32.3548C198.443 32.9919 198.113 33.57 197.452 34.0891C196.839 34.6083 195.977 35.0684 194.868 35.4695C193.759 35.8471 192.615 36.0358 191.435 36.0358ZM205.517 35.6819C204.903 35.6819 204.396 35.4813 203.995 35.0802C203.593 34.6554 203.393 34.1363 203.393 33.5228V18.905C203.393 18.2915 203.593 17.7842 203.995 17.383C204.396 16.9583 204.903 16.7459 205.517 16.7459C206.13 16.7459 206.637 16.9583 207.038 17.383C207.44 17.7842 207.64 18.2915 207.64 18.905V22.232L207.392 19.8606C207.652 19.2943 207.982 18.7988 208.383 18.3741C208.808 17.9257 209.28 17.56 209.799 17.2768C210.318 16.9701 210.873 16.7459 211.463 16.6043C212.053 16.4628 212.643 16.392 213.232 16.392C213.94 16.392 214.53 16.5925 215.002 16.9937C215.498 17.3948 215.745 17.8667 215.745 18.4095C215.745 19.1881 215.545 19.7544 215.144 20.1084C214.743 20.4387 214.306 20.6039 213.834 20.6039C213.386 20.6039 212.973 20.5213 212.595 20.3561C212.241 20.191 211.829 20.1084 211.357 20.1084C210.932 20.1084 210.495 20.2146 210.047 20.4269C209.622 20.6157 209.221 20.9225 208.844 21.3472C208.49 21.7719 208.195 22.3028 207.959 22.9399C207.746 23.5534 207.64 24.2849 207.64 25.1344V33.5228C207.64 34.1363 207.44 34.6554 207.038 35.0802C206.637 35.4813 206.13 35.6819 205.517 35.6819Z" fill="#23262E"/>
<path d="M223.518 33.5228C223.518 34.1363 223.294 34.6554 222.845 35.0802C222.397 35.4813 221.878 35.6819 221.288 35.6819C220.627 35.6819 220.096 35.4813 219.695 35.0802C219.294 34.6554 219.094 34.1363 219.094 33.5228V13.0649C219.094 12.4514 219.306 11.9441 219.731 11.543C220.155 11.1182 220.698 10.9059 221.359 10.9059C221.925 10.9059 222.421 11.1182 222.845 11.543C223.294 11.9441 223.518 12.4514 223.518 13.0649V33.5228ZM238.61 16.392C240.356 16.392 241.677 16.7577 242.574 17.4892C243.494 18.2207 244.119 19.1999 244.45 20.4269C244.804 21.6303 244.981 22.9753 244.981 24.4619V33.5228C244.981 34.1363 244.78 34.6554 244.379 35.0802C243.978 35.4813 243.47 35.6819 242.857 35.6819C242.243 35.6819 241.736 35.4813 241.335 35.0802C240.934 34.6554 240.733 34.1363 240.733 33.5228V24.4619C240.733 23.6832 240.627 22.9871 240.415 22.3736C240.226 21.7365 239.872 21.2292 239.353 20.8517C238.834 20.4741 238.091 20.2854 237.123 20.2854C236.179 20.2854 235.377 20.4741 234.716 20.8517C234.079 21.2292 233.584 21.7365 233.23 22.3736C232.899 22.9871 232.734 23.6832 232.734 24.4619V33.5228C232.734 34.1363 232.534 34.6554 232.133 35.0802C231.731 35.4813 231.224 35.6819 230.611 35.6819C229.997 35.6819 229.49 35.4813 229.089 35.0802C228.687 34.6554 228.487 34.1363 228.487 33.5228V18.905C228.487 18.2915 228.687 17.7842 229.089 17.383C229.49 16.9583 229.997 16.7459 230.611 16.7459C231.224 16.7459 231.731 16.9583 232.133 17.383C232.534 17.7842 232.734 18.2915 232.734 18.905V20.4269L232.203 20.3207C232.416 19.9196 232.722 19.4949 233.124 19.0466C233.525 18.5746 233.997 18.1381 234.539 17.737C235.082 17.3358 235.696 17.0173 236.38 16.7813C237.064 16.5218 237.807 16.392 238.61 16.392ZM248.474 32.7442C248.238 32.4138 248.132 31.9891 248.156 31.47C248.179 30.9508 248.486 30.5025 249.076 30.125C249.453 29.889 249.855 29.7946 250.279 29.8418C250.704 29.8654 251.117 30.0778 251.518 30.4789C252.202 31.1632 252.922 31.6941 253.677 32.0717C254.432 32.4492 255.376 32.638 256.509 32.638C256.863 32.6144 257.252 32.5672 257.677 32.4964C258.101 32.402 258.467 32.2132 258.774 31.9301C259.104 31.6233 259.269 31.1632 259.269 30.5497C259.269 30.0306 259.092 29.6177 258.739 29.3109C258.385 29.0042 257.913 28.7446 257.323 28.5322C256.756 28.3199 256.119 28.1193 255.411 27.9305C254.68 27.7182 253.925 27.4822 253.146 27.2226C252.391 26.9631 251.695 26.6327 251.058 26.2316C250.421 25.8069 249.902 25.2524 249.501 24.5681C249.099 23.8838 248.899 23.0225 248.899 21.9843C248.899 20.8045 249.229 19.8016 249.89 18.9758C250.551 18.1499 251.4 17.5128 252.438 17.0645C253.5 16.6161 254.609 16.392 255.765 16.392C256.497 16.392 257.264 16.4864 258.066 16.6751C258.868 16.8403 259.635 17.1235 260.367 17.5246C261.098 17.9021 261.712 18.4095 262.207 19.0466C262.467 19.4005 262.62 19.8252 262.667 20.3207C262.714 20.8163 262.49 21.2646 261.995 21.6657C261.641 21.9489 261.228 22.0787 260.756 22.0551C260.284 22.0079 259.895 21.8427 259.588 21.5595C259.187 21.0404 258.644 20.6275 257.96 20.3207C257.299 20.014 256.532 19.8606 255.659 19.8606C255.305 19.8606 254.916 19.9078 254.491 20.0022C254.09 20.073 253.736 20.25 253.429 20.5331C253.123 20.7927 252.969 21.2174 252.969 21.8073C252.969 22.35 253.146 22.7866 253.5 23.1169C253.854 23.4236 254.326 23.6832 254.916 23.8956C255.529 24.0843 256.178 24.2731 256.863 24.4619C257.571 24.6507 258.29 24.8748 259.022 25.1344C259.753 25.3939 260.426 25.7361 261.039 26.1608C261.653 26.5855 262.148 27.1401 262.526 27.8243C262.903 28.485 263.092 29.3345 263.092 30.3727C263.092 31.5761 262.738 32.6026 262.03 33.452C261.322 34.3015 260.437 34.9504 259.376 35.3987C258.314 35.8235 257.228 36.0358 256.119 36.0358C254.727 36.0358 253.335 35.7999 251.943 35.3279C250.551 34.8324 249.394 33.9712 248.474 32.7442ZM270.646 33.5228C270.646 34.1363 270.445 34.6554 270.044 35.0802C269.643 35.4813 269.136 35.6819 268.522 35.6819C267.909 35.6819 267.401 35.4813 267 35.0802C266.599 34.6554 266.399 34.1363 266.399 33.5228V18.905C266.399 18.2915 266.599 17.7842 267 17.383C267.401 16.9583 267.909 16.7459 268.522 16.7459C269.136 16.7459 269.643 16.9583 270.044 17.383C270.445 17.7842 270.646 18.2915 270.646 18.905V33.5228ZM268.487 14.4453C267.685 14.4453 267.118 14.3155 266.788 14.056C266.458 13.7964 266.292 13.3363 266.292 12.6756V12.0031C266.292 11.3188 266.469 10.8587 266.823 10.6227C267.201 10.3631 267.767 10.2334 268.522 10.2334C269.348 10.2334 269.926 10.3631 270.257 10.6227C270.587 10.8823 270.752 11.3424 270.752 12.0031V12.6756C270.752 13.3599 270.575 13.8318 270.221 14.0913C269.867 14.3273 269.289 14.4453 268.487 14.4453ZM282.869 16.392C283.86 16.392 284.768 16.5454 285.594 16.8521C286.42 17.1589 287.128 17.5482 287.718 18.0201C288.331 18.492 288.803 18.9758 289.133 19.4713C289.487 19.9432 289.664 20.3443 289.664 20.6747L288.744 21.1348V18.551C288.744 17.9375 288.945 17.4302 289.346 17.0291C289.747 16.6043 290.254 16.392 290.868 16.392C291.481 16.392 291.989 16.5925 292.39 16.9937C292.791 17.3948 292.991 17.9139 292.991 18.551V34.3015C292.991 36.3544 292.543 37.9943 291.646 39.2213C290.773 40.4719 289.617 41.3686 288.178 41.9113C286.738 42.4776 285.193 42.7607 283.541 42.7607C283.069 42.7607 282.456 42.7018 281.701 42.5838C280.946 42.4658 280.226 42.3242 279.542 42.159C278.857 41.9939 278.338 41.8405 277.984 41.6989C277.276 41.3922 276.781 41.0028 276.498 40.5309C276.238 40.0826 276.191 39.5989 276.356 39.0797C276.568 38.3954 276.911 37.9235 277.382 37.664C277.854 37.428 278.35 37.4044 278.869 37.5932C279.105 37.664 279.494 37.8055 280.037 38.0179C280.58 38.2303 281.17 38.419 281.807 38.5842C282.467 38.773 283.046 38.8674 283.541 38.8674C285.311 38.8674 286.62 38.5134 287.47 37.8055C288.319 37.0977 288.744 36.1184 288.744 34.8678V31.7885L289.169 32.1071C289.169 32.4138 289.004 32.7913 288.673 33.2397C288.367 33.6644 287.93 34.0891 287.364 34.5139C286.821 34.9386 286.172 35.3043 285.417 35.6111C284.662 35.8943 283.86 36.0358 283.01 36.0358C281.335 36.0358 279.825 35.6229 278.48 34.797C277.135 33.9476 276.073 32.7913 275.294 31.3284C274.516 29.8418 274.126 28.1429 274.126 26.2316C274.126 24.2967 274.516 22.5978 275.294 21.1348C276.073 19.6483 277.123 18.492 278.444 17.6662C279.766 16.8167 281.24 16.392 282.869 16.392ZM283.541 20.2854C282.479 20.2854 281.547 20.5449 280.745 21.064C279.943 21.5831 279.317 22.291 278.869 23.1877C278.421 24.0843 278.197 25.099 278.197 26.2316C278.197 27.3406 278.421 28.3435 278.869 29.2401C279.317 30.1368 279.943 30.8447 280.745 31.3638C281.547 31.8829 282.479 32.1425 283.541 32.1425C284.627 32.1425 285.57 31.8829 286.373 31.3638C287.175 30.8447 287.8 30.1368 288.249 29.2401C288.697 28.3435 288.921 27.3406 288.921 26.2316C288.921 25.099 288.697 24.0843 288.249 23.1877C287.8 22.291 287.175 21.5831 286.373 21.064C285.57 20.5449 284.627 20.2854 283.541 20.2854ZM307.528 16.392C309.227 16.392 310.513 16.7577 311.386 17.4892C312.282 18.2207 312.896 19.1999 313.226 20.4269C313.557 21.6303 313.722 22.9753 313.722 24.4619V33.5228C313.722 34.1363 313.521 34.6554 313.12 35.0802C312.719 35.4813 312.212 35.6819 311.598 35.6819C310.985 35.6819 310.477 35.4813 310.076 35.0802C309.675 34.6554 309.474 34.1363 309.474 33.5228V24.4619C309.474 23.6832 309.38 22.9871 309.191 22.3736C309.002 21.7365 308.66 21.2292 308.165 20.8517C307.669 20.4741 306.961 20.2854 306.041 20.2854C305.144 20.2854 304.378 20.4741 303.74 20.8517C303.103 21.2292 302.62 21.7365 302.289 22.3736C301.983 22.9871 301.829 23.6832 301.829 24.4619V33.5228C301.829 34.1363 301.629 34.6554 301.227 35.0802C300.826 35.4813 300.319 35.6819 299.706 35.6819C299.092 35.6819 298.585 35.4813 298.184 35.0802C297.782 34.6554 297.582 34.1363 297.582 33.5228V11.6491C297.582 11.0356 297.782 10.5283 298.184 10.1272C298.585 9.70245 299.092 9.49008 299.706 9.49008C300.319 9.49008 300.826 9.70245 301.227 10.1272C301.629 10.5283 301.829 11.0356 301.829 11.6491V20.4269L301.298 20.3207C301.511 19.9196 301.806 19.4949 302.183 19.0466C302.561 18.5746 303.021 18.1381 303.564 17.737C304.106 17.3358 304.708 17.0173 305.369 16.7813C306.029 16.5218 306.749 16.392 307.528 16.392ZM318.533 17.0999H326.922C327.488 17.0999 327.96 17.2886 328.337 17.6662C328.715 18.0437 328.904 18.5156 328.904 19.0819C328.904 19.6247 328.715 20.0848 328.337 20.4623C327.96 20.8163 327.488 20.9932 326.922 20.9932H318.533C317.967 20.9932 317.495 20.8045 317.117 20.4269C316.74 20.0494 316.551 19.5775 316.551 19.0112C316.551 18.4684 316.74 18.0201 317.117 17.6662C317.495 17.2886 317.967 17.0999 318.533 17.0999ZM322.32 12.6756C322.934 12.6756 323.429 12.8879 323.807 13.3127C324.208 13.7138 324.409 14.2211 324.409 14.8346V30.5851C324.409 30.9154 324.468 31.1868 324.586 31.3992C324.727 31.6115 324.904 31.7649 325.116 31.8593C325.352 31.9537 325.6 32.0009 325.86 32.0009C326.143 32.0009 326.402 31.9537 326.638 31.8593C326.874 31.7413 327.146 31.6823 327.452 31.6823C327.783 31.6823 328.078 31.8357 328.337 32.1425C328.62 32.4492 328.762 32.8739 328.762 33.4166C328.762 34.0773 328.396 34.6201 327.665 35.0448C326.957 35.4695 326.19 35.6819 325.364 35.6819C324.869 35.6819 324.314 35.6465 323.701 35.5757C323.111 35.4813 322.544 35.2807 322.002 34.974C321.483 34.6437 321.046 34.1481 320.692 33.4874C320.338 32.8267 320.161 31.9183 320.161 30.7621V14.8346C320.161 14.2211 320.362 13.7138 320.763 13.3127C321.188 12.8879 321.707 12.6756 322.32 12.6756ZM332.397 32.7442C332.161 32.4138 332.055 31.9891 332.079 31.47C332.102 30.9508 332.409 30.5025 332.999 30.125C333.377 29.889 333.778 29.7946 334.203 29.8418C334.627 29.8654 335.04 30.0778 335.441 30.4789C336.126 31.1632 336.845 31.6941 337.6 32.0717C338.355 32.4492 339.299 32.638 340.432 32.638C340.786 32.6144 341.175 32.5672 341.6 32.4964C342.025 32.402 342.39 32.2132 342.697 31.9301C343.028 31.6233 343.193 31.1632 343.193 30.5497C343.193 30.0306 343.016 29.6177 342.662 29.3109C342.308 29.0042 341.836 28.7446 341.246 28.5322C340.68 28.3199 340.043 28.1193 339.335 27.9305C338.603 27.7182 337.848 27.4822 337.069 27.2226C336.314 26.9631 335.618 26.6327 334.981 26.2316C334.344 25.8069 333.825 25.2524 333.424 24.5681C333.023 23.8838 332.822 23.0225 332.822 21.9843C332.822 20.8045 333.153 19.8016 333.813 18.9758C334.474 18.1499 335.323 17.5128 336.362 17.0645C337.423 16.6161 338.532 16.392 339.689 16.392C340.42 16.392 341.187 16.4864 341.989 16.6751C342.792 16.8403 343.558 17.1235 344.29 17.5246C345.021 17.9021 345.635 18.4095 346.13 19.0466C346.39 19.4005 346.543 19.8252 346.591 20.3207C346.638 20.8163 346.414 21.2646 345.918 21.6657C345.564 21.9489 345.151 22.0787 344.679 22.0551C344.207 22.0079 343.818 21.8427 343.511 21.5595C343.11 21.0404 342.567 20.6275 341.883 20.3207C341.222 20.014 340.456 19.8606 339.582 19.8606C339.229 19.8606 338.839 19.9078 338.414 20.0022C338.013 20.073 337.659 20.25 337.353 20.5331C337.046 20.7927 336.893 21.2174 336.893 21.8073C336.893 22.35 337.069 22.7866 337.423 23.1169C337.777 23.4236 338.249 23.6832 338.839 23.8956C339.453 24.0843 340.102 24.2731 340.786 24.4619C341.494 24.6507 342.213 24.8748 342.945 25.1344C343.676 25.3939 344.349 25.7361 344.962 26.1608C345.576 26.5855 346.071 27.1401 346.449 27.8243C346.827 28.485 347.015 29.3345 347.015 30.3727C347.015 31.5761 346.661 32.6026 345.953 33.452C345.246 34.3015 344.361 34.9504 343.299 35.3987C342.237 35.8235 341.152 36.0358 340.043 36.0358C338.65 36.0358 337.258 35.7999 335.866 35.3279C334.474 34.8324 333.318 33.9712 332.397 32.7442Z" fill="#338EEF"/>
<path d="M81.4989 54.1879C82.0731 54.1879 82.5197 54.1081 82.8387 53.9486C83.34 53.698 83.5907 53.2468 83.5907 52.5951C83.5907 51.9388 83.3241 51.4968 82.7909 51.2689C82.4901 51.1413 82.0435 51.0775 81.451 51.0775H79.0243V54.1879H81.4989ZM81.9569 58.8226C82.7909 58.8226 83.3856 58.5811 83.7411 58.098C83.9644 57.7927 84.076 57.4235 84.076 56.9906C84.076 56.2614 83.7502 55.7647 83.0985 55.5004C82.7522 55.3591 82.2941 55.2885 81.7245 55.2885H79.0243V58.8226H81.9569ZM77.6913 49.9427H82.0048C83.1805 49.9427 84.0168 50.2937 84.5135 50.9955C84.8052 51.4102 84.951 51.8887 84.951 52.431C84.951 53.0645 84.771 53.584 84.411 53.9896C84.2242 54.2038 83.9553 54.3998 83.6044 54.5775C84.1193 54.7735 84.5044 54.9945 84.7596 55.2406C85.2108 55.6781 85.4364 56.2819 85.4364 57.0521C85.4364 57.6993 85.2336 58.2849 84.828 58.809C84.2219 59.5928 83.258 59.9847 81.9364 59.9847H77.6913V49.9427ZM89.9481 52.4994C90.4677 52.4994 90.9712 52.6224 91.4589 52.8685C91.9465 53.1101 92.3179 53.4245 92.5731 53.8119C92.8192 54.181 92.9833 54.6117 93.0653 55.1039C93.1382 55.4411 93.1747 55.9789 93.1747 56.7172H87.8085C87.8313 57.46 88.0067 58.057 88.3348 58.5082C88.663 58.9548 89.1711 59.1781 89.8593 59.1781C90.5018 59.1781 91.0145 58.9662 91.3973 58.5424C91.6161 58.2963 91.771 58.0114 91.8622 57.6879H93.0721C93.0402 57.9567 92.9331 58.2575 92.7509 58.5902C92.5731 58.9183 92.3726 59.1872 92.1493 59.3969C91.7756 59.7614 91.313 60.0075 90.7616 60.1351C90.4654 60.208 90.1304 60.2445 89.7567 60.2445C88.8453 60.2445 88.0728 59.9141 87.4393 59.2533C86.8059 58.5879 86.4891 57.6582 86.4891 56.4642C86.4891 55.2885 86.8081 54.3337 87.4462 53.6C88.0842 52.8663 88.9182 52.4994 89.9481 52.4994ZM91.91 55.7396C91.8599 55.2064 91.7437 54.7803 91.5614 54.4613C91.2242 53.8689 90.6613 53.5726 89.8729 53.5726C89.3078 53.5726 88.8339 53.7777 88.451 54.1879C88.0682 54.5935 87.8654 55.1107 87.8427 55.7396H91.91ZM95.4237 57.6879C95.4602 58.098 95.5627 58.4125 95.7313 58.6312C96.0412 59.0277 96.579 59.226 97.3446 59.226C97.8003 59.226 98.2014 59.128 98.5477 58.932C98.8941 58.7315 99.0673 58.4239 99.0673 58.0092C99.0673 57.6947 98.9283 57.4554 98.6503 57.2914C98.4725 57.1911 98.1216 57.0749 97.5975 56.9427L96.62 56.6967C95.9956 56.5417 95.5354 56.3685 95.2391 56.1771C94.7105 55.8444 94.4462 55.3842 94.4462 54.7963C94.4462 54.1036 94.6945 53.543 95.1913 53.1146C95.6926 52.6862 96.3648 52.472 97.2079 52.472C98.3108 52.472 99.106 52.7956 99.5936 53.4427C99.899 53.8529 100.047 54.295 100.038 54.7689H98.8759C98.8531 54.4909 98.7551 54.238 98.5819 54.0101C98.2994 53.6866 97.8094 53.5248 97.1122 53.5248C96.6473 53.5248 96.2941 53.6136 96.0526 53.7914C95.8156 53.9691 95.6971 54.2038 95.6971 54.4955C95.6971 54.8145 95.8544 55.0697 96.1688 55.2611C96.3511 55.375 96.62 55.4753 96.9755 55.5619L97.7889 55.7601C98.6731 55.9743 99.2655 56.1817 99.5663 56.3822C100.045 56.6967 100.284 57.1911 100.284 57.8656C100.284 58.5173 100.036 59.0801 99.5389 59.5541C99.0468 60.028 98.2948 60.265 97.2831 60.265C96.1939 60.265 95.4214 60.0189 94.9657 59.5267C94.5145 59.03 94.273 58.417 94.2411 57.6879H95.4237ZM101.938 50.6195H103.182V52.6635H104.351V53.6683H103.182V58.4467C103.182 58.7019 103.269 58.8728 103.442 58.9594C103.538 59.0095 103.697 59.0345 103.921 59.0345C103.98 59.0345 104.044 59.0345 104.112 59.0345C104.181 59.03 104.26 59.0232 104.351 59.014V59.9847C104.21 60.0258 104.062 60.0554 103.907 60.0736C103.757 60.0918 103.593 60.101 103.415 60.101C102.841 60.101 102.451 59.9551 102.246 59.6635C102.041 59.3672 101.938 58.9844 101.938 58.515V53.6683H100.947V52.6635H101.938V50.6195ZM113.99 49.683C114.933 49.683 115.749 49.8653 116.437 50.2299C117.435 50.7539 118.046 51.6722 118.269 52.9847H116.923C116.759 52.251 116.419 51.7178 115.904 51.3851C115.389 51.0479 114.74 50.8793 113.956 50.8793C113.026 50.8793 112.242 51.2279 111.604 51.9252C110.971 52.6224 110.654 53.6615 110.654 55.0424C110.654 56.2364 110.916 57.2094 111.44 57.9613C111.964 58.7087 112.819 59.0824 114.004 59.0824C114.911 59.0824 115.66 58.8204 116.253 58.2963C116.85 57.7676 117.155 56.9154 117.169 55.7396H114.024V54.6117H118.433V59.9847H117.558L117.23 58.6927C116.77 59.1986 116.362 59.5495 116.007 59.7455C115.41 60.0827 114.651 60.2513 113.73 60.2513C112.541 60.2513 111.518 59.8663 110.661 59.0961C109.727 58.1299 109.26 56.8038 109.26 55.1176C109.26 53.4359 109.715 52.0983 110.627 51.1049C111.493 50.1569 112.614 49.683 113.99 49.683ZM123.287 59.1918C124.103 59.1918 124.661 58.8842 124.962 58.2689C125.267 57.6491 125.42 56.961 125.42 56.2045C125.42 55.5209 125.31 54.9649 125.092 54.5365C124.745 53.862 124.148 53.5248 123.301 53.5248C122.549 53.5248 122.002 53.8119 121.66 54.3861C121.318 54.9603 121.147 55.653 121.147 56.4642C121.147 57.2435 121.318 57.8929 121.66 58.4125C122.002 58.932 122.544 59.1918 123.287 59.1918ZM123.335 52.4515C124.278 52.4515 125.076 52.766 125.727 53.3949C126.379 54.0238 126.705 54.9489 126.705 56.1703C126.705 57.3506 126.418 58.3259 125.844 59.0961C125.269 59.8663 124.378 60.2513 123.171 60.2513C122.164 60.2513 121.364 59.9118 120.771 59.2328C120.179 58.5492 119.883 57.6332 119.883 56.4847C119.883 55.2543 120.195 54.2745 120.819 53.5453C121.444 52.8161 122.282 52.4515 123.335 52.4515ZM131.08 59.1918C131.896 59.1918 132.454 58.8842 132.755 58.2689C133.06 57.6491 133.213 56.961 133.213 56.2045C133.213 55.5209 133.103 54.9649 132.885 54.5365C132.538 53.862 131.941 53.5248 131.094 53.5248C130.342 53.5248 129.795 53.8119 129.453 54.3861C129.111 54.9603 128.94 55.653 128.94 56.4642C128.94 57.2435 129.111 57.8929 129.453 58.4125C129.795 58.932 130.337 59.1918 131.08 59.1918ZM131.128 52.4515C132.071 52.4515 132.869 52.766 133.52 53.3949C134.172 54.0238 134.498 54.9489 134.498 56.1703C134.498 57.3506 134.211 58.3259 133.637 59.0961C133.062 59.8663 132.171 60.2513 130.964 60.2513C129.957 60.2513 129.157 59.9118 128.564 59.2328C127.972 58.5492 127.676 57.6332 127.676 56.4847C127.676 55.2543 127.988 54.2745 128.612 53.5453C129.237 52.8161 130.075 52.4515 131.128 52.4515ZM138.552 52.5336C139.126 52.5336 139.627 52.6748 140.056 52.9574C140.288 53.1169 140.525 53.3493 140.766 53.6547V52.7318H141.901V59.39C141.901 60.3197 141.765 61.0534 141.491 61.5912C140.981 62.5847 140.017 63.0814 138.599 63.0814C137.811 63.0814 137.148 62.9037 136.61 62.5482C136.072 62.1973 135.772 61.6459 135.708 60.8939H136.959C137.018 61.222 137.137 61.475 137.314 61.6527C137.592 61.9261 138.03 62.0629 138.627 62.0629C139.57 62.0629 140.188 61.7302 140.479 61.0648C140.653 60.6729 140.732 59.9733 140.719 58.9662C140.473 59.3399 140.176 59.6179 139.83 59.8002C139.484 59.9825 139.026 60.0736 138.456 60.0736C137.663 60.0736 136.968 59.7933 136.371 59.2328C135.779 58.6677 135.482 57.7357 135.482 56.4369C135.482 55.211 135.781 54.2539 136.378 53.5658C136.979 52.8776 137.704 52.5336 138.552 52.5336ZM140.766 56.2933C140.766 55.3864 140.58 54.7142 140.206 54.2767C139.832 53.8392 139.356 53.6205 138.777 53.6205C137.911 53.6205 137.319 54.0261 137 54.8373C136.831 55.2702 136.747 55.8376 136.747 56.5394C136.747 57.3643 136.913 57.9932 137.246 58.4261C137.583 58.8545 138.034 59.0687 138.599 59.0687C139.484 59.0687 140.106 58.67 140.466 57.8724C140.666 57.4213 140.766 56.8949 140.766 56.2933ZM143.795 49.9427H145.025V59.9847H143.795V49.9427ZM149.927 52.4994C150.446 52.4994 150.95 52.6224 151.437 52.8685C151.925 53.1101 152.296 53.4245 152.552 53.8119C152.798 54.181 152.962 54.6117 153.044 55.1039C153.117 55.4411 153.153 55.9789 153.153 56.7172H147.787C147.81 57.46 147.985 58.057 148.313 58.5082C148.641 58.9548 149.15 59.1781 149.838 59.1781C150.48 59.1781 150.993 58.9662 151.376 58.5424C151.595 58.2963 151.75 58.0114 151.841 57.6879H153.051C153.019 57.9567 152.912 58.2575 152.729 58.5902C152.552 58.9183 152.351 59.1872 152.128 59.3969C151.754 59.7614 151.292 60.0075 150.74 60.1351C150.444 60.208 150.109 60.2445 149.735 60.2445C148.824 60.2445 148.051 59.9141 147.418 59.2533C146.784 58.5879 146.468 57.6582 146.468 56.4642C146.468 55.2885 146.787 54.3337 147.425 53.6C148.063 52.8663 148.897 52.4994 149.927 52.4994ZM151.889 55.7396C151.838 55.2064 151.722 54.7803 151.54 54.4613C151.203 53.8689 150.64 53.5726 149.851 53.5726C149.286 53.5726 148.812 53.7777 148.43 54.1879C148.047 54.5935 147.844 55.1107 147.821 55.7396H151.889ZM163.12 55.8695L161.596 51.433L159.975 55.8695H163.12ZM160.885 49.9427H162.423L166.066 59.9847H164.576L163.557 56.9769H159.586L158.499 59.9847H157.104L160.885 49.9427ZM167.14 52.6635H168.308V53.7025C168.655 53.2741 169.022 52.9665 169.409 52.7797C169.796 52.5928 170.227 52.4994 170.701 52.4994C171.74 52.4994 172.442 52.8617 172.807 53.5863C173.007 53.9828 173.107 54.5502 173.107 55.2885V59.9847H171.856V55.3705C171.856 54.9239 171.79 54.5638 171.658 54.2904C171.439 53.8347 171.043 53.6068 170.469 53.6068C170.177 53.6068 169.938 53.6364 169.751 53.6957C169.414 53.7959 169.117 53.9965 168.862 54.2972C168.657 54.5388 168.523 54.7894 168.459 55.0492C168.4 55.3044 168.37 55.6713 168.37 56.1498V59.9847H167.14V52.6635ZM175.876 58.0365C175.876 58.392 176.006 58.6722 176.266 58.8773C176.525 59.0824 176.833 59.1849 177.188 59.1849C177.621 59.1849 178.041 59.0847 178.446 58.8842C179.13 58.5515 179.472 58.0069 179.472 57.2504V56.2592C179.321 56.3549 179.127 56.4346 178.891 56.4984C178.654 56.5622 178.421 56.6078 178.193 56.6351L177.448 56.7308C177.002 56.7901 176.667 56.8835 176.443 57.0111C176.065 57.2253 175.876 57.5671 175.876 58.0365ZM178.856 55.5482C179.139 55.5118 179.328 55.3933 179.424 55.1927C179.478 55.0834 179.506 54.9261 179.506 54.7211C179.506 54.3018 179.355 53.9987 179.055 53.8119C178.758 53.6205 178.332 53.5248 177.776 53.5248C177.134 53.5248 176.678 53.698 176.409 54.0443C176.259 54.2357 176.161 54.5205 176.115 54.8988H174.967C174.989 53.9965 175.281 53.3698 175.842 53.0189C176.407 52.6635 177.061 52.4857 177.804 52.4857C178.665 52.4857 179.364 52.6498 179.902 52.9779C180.435 53.306 180.702 53.8164 180.702 54.5092V58.7269C180.702 58.8545 180.727 58.9571 180.777 59.0345C180.832 59.112 180.944 59.1508 181.112 59.1508C181.167 59.1508 181.228 59.1485 181.297 59.1439C181.365 59.1348 181.438 59.1234 181.516 59.1097V60.0189C181.324 60.0736 181.178 60.1078 181.078 60.1215C180.978 60.1351 180.841 60.142 180.668 60.142C180.244 60.142 179.936 59.9916 179.745 59.6908C179.645 59.5313 179.574 59.3057 179.533 59.014C179.282 59.3422 178.922 59.627 178.453 59.8685C177.984 60.1101 177.466 60.2308 176.901 60.2308C176.222 60.2308 175.666 60.0258 175.233 59.6156C174.805 59.2009 174.591 58.6836 174.591 58.0638C174.591 57.3848 174.803 56.8584 175.226 56.4847C175.65 56.111 176.206 55.8809 176.894 55.7943L178.856 55.5482ZM182.76 49.9427H183.99V59.9847H182.76V49.9427ZM190.416 52.6635H191.776C191.603 53.1329 191.218 54.2038 190.621 55.8763C190.174 57.1342 189.801 58.1595 189.5 58.9525C188.789 60.821 188.288 61.9603 187.996 62.3705C187.704 62.7806 187.203 62.9857 186.492 62.9857C186.319 62.9857 186.184 62.9789 186.089 62.9652C185.998 62.9515 185.884 62.9265 185.747 62.89V61.7689C185.961 61.8282 186.116 61.8646 186.212 61.8783C186.307 61.892 186.392 61.8988 186.465 61.8988C186.693 61.8988 186.859 61.8601 186.964 61.7826C187.073 61.7097 187.164 61.6185 187.237 61.5092C187.26 61.4727 187.342 61.2858 187.483 60.9486C187.625 60.6114 187.727 60.3607 187.791 60.1967L185.084 52.6635H186.478L188.44 58.6244L190.416 52.6635ZM193.089 50.6195H194.333V52.6635H195.502V53.6683H194.333V58.4467C194.333 58.7019 194.419 58.8728 194.593 58.9594C194.688 59.0095 194.848 59.0345 195.071 59.0345C195.13 59.0345 195.194 59.0345 195.263 59.0345C195.331 59.03 195.411 59.0232 195.502 59.014V59.9847C195.361 60.0258 195.212 60.0554 195.057 60.0736C194.907 60.0918 194.743 60.101 194.565 60.101C193.991 60.101 193.601 59.9551 193.396 59.6635C193.191 59.3672 193.089 58.9844 193.089 58.515V53.6683H192.098V52.6635H193.089V50.6195ZM196.739 52.6976H197.99V59.9847H196.739V52.6976ZM196.739 49.9427H197.99V51.3373H196.739V49.9427ZM202.68 52.4515C203.504 52.4515 204.174 52.6521 204.689 53.0531C205.209 53.4541 205.521 54.1446 205.626 55.1244H204.43C204.357 54.6732 204.19 54.2995 203.931 54.0033C203.671 53.7025 203.254 53.5521 202.68 53.5521C201.896 53.5521 201.335 53.9349 200.998 54.7006C200.779 55.1973 200.67 55.8103 200.67 56.5394C200.67 57.2732 200.825 57.8907 201.135 58.392C201.445 58.8933 201.932 59.1439 202.598 59.1439C203.108 59.1439 203.511 58.989 203.807 58.6791C204.108 58.3646 204.316 57.9362 204.43 57.3939H205.626C205.489 58.3646 205.147 59.0756 204.6 59.5267C204.054 59.9733 203.354 60.1967 202.502 60.1967C201.545 60.1967 200.781 59.848 200.212 59.1508C199.642 58.4489 199.357 57.5739 199.357 56.5258C199.357 55.2406 199.669 54.2403 200.294 53.5248C200.918 52.8093 201.713 52.4515 202.68 52.4515ZM207.588 57.6879C207.624 58.098 207.727 58.4125 207.895 58.6312C208.205 59.0277 208.743 59.226 209.509 59.226C209.964 59.226 210.365 59.128 210.712 58.932C211.058 58.7315 211.231 58.4239 211.231 58.0092C211.231 57.6947 211.092 57.4554 210.814 57.2914C210.637 57.1911 210.286 57.0749 209.762 56.9427L208.784 56.6967C208.16 56.5417 207.699 56.3685 207.403 56.1771C206.875 55.8444 206.61 55.3842 206.61 54.7963C206.61 54.1036 206.859 53.543 207.355 53.1146C207.857 52.6862 208.529 52.472 209.372 52.472C210.475 52.472 211.27 52.7956 211.758 53.4427C212.063 53.8529 212.211 54.295 212.202 54.7689H211.04C211.017 54.4909 210.919 54.238 210.746 54.0101C210.463 53.6866 209.974 53.5248 209.276 53.5248C208.811 53.5248 208.458 53.6136 208.217 53.7914C207.98 53.9691 207.861 54.2038 207.861 54.4955C207.861 54.8145 208.018 55.0697 208.333 55.2611C208.515 55.375 208.784 55.4753 209.14 55.5619L209.953 55.7601C210.837 55.9743 211.43 56.1817 211.73 56.3822C212.209 56.6967 212.448 57.1911 212.448 57.8656C212.448 58.5173 212.2 59.0801 211.703 59.5541C211.211 60.028 210.459 60.265 209.447 60.265C208.358 60.265 207.585 60.0189 207.13 59.5267C206.679 59.03 206.437 58.417 206.405 57.6879H207.588ZM218.047 49.9427H222.565C223.459 49.9427 224.179 50.1957 224.725 50.7015C225.272 51.2028 225.546 51.9092 225.546 52.8207C225.546 53.6045 225.302 54.2881 224.814 54.8715C224.327 55.4502 223.577 55.7396 222.565 55.7396H219.407V59.9847H218.047V49.9427ZM224.172 52.8275C224.172 52.0892 223.898 51.5879 223.351 51.3236C223.051 51.1823 222.638 51.1117 222.114 51.1117H219.407V54.5912H222.114C222.725 54.5912 223.219 54.4613 223.598 54.2015C223.98 53.9418 224.172 53.4838 224.172 52.8275ZM227.125 49.9427H228.355V59.9847H227.125V49.9427ZM231.438 52.6635V57.5238C231.438 57.8975 231.498 58.2028 231.616 58.4398C231.835 58.8773 232.243 59.0961 232.84 59.0961C233.696 59.0961 234.28 58.7133 234.59 57.9476C234.758 57.5375 234.843 56.9747 234.843 56.2592V52.6635H236.073V59.9847H234.911L234.925 58.9047C234.765 59.1827 234.567 59.4174 234.33 59.6088C233.861 59.9916 233.291 60.183 232.621 60.183C231.577 60.183 230.866 59.8344 230.488 59.1371C230.283 58.7634 230.181 58.2644 230.181 57.64V52.6635H231.438ZM240.585 52.5336C241.159 52.5336 241.66 52.6748 242.089 52.9574C242.321 53.1169 242.558 53.3493 242.8 53.6547V52.7318H243.934V59.39C243.934 60.3197 243.798 61.0534 243.524 61.5912C243.014 62.5847 242.05 63.0814 240.633 63.0814C239.844 63.0814 239.181 62.9037 238.643 62.5482C238.106 62.1973 237.805 61.6459 237.741 60.8939H238.992C239.051 61.222 239.17 61.475 239.348 61.6527C239.626 61.9261 240.063 62.0629 240.66 62.0629C241.603 62.0629 242.221 61.7302 242.513 61.0648C242.686 60.6729 242.766 59.9733 242.752 58.9662C242.506 59.3399 242.21 59.6179 241.863 59.8002C241.517 59.9825 241.059 60.0736 240.489 60.0736C239.696 60.0736 239.001 59.7933 238.404 59.2328C237.812 58.6677 237.516 57.7357 237.516 56.4369C237.516 55.211 237.814 54.2539 238.411 53.5658C239.013 52.8776 239.737 52.5336 240.585 52.5336ZM242.8 56.2933C242.8 55.3864 242.613 54.7142 242.239 54.2767C241.865 53.8392 241.389 53.6205 240.81 53.6205C239.945 53.6205 239.352 54.0261 239.033 54.8373C238.864 55.2702 238.78 55.8376 238.78 56.5394C238.78 57.3643 238.946 57.9932 239.279 58.4261C239.616 58.8545 240.068 59.0687 240.633 59.0687C241.517 59.0687 242.139 58.67 242.499 57.8724C242.699 57.4213 242.8 56.8949 242.8 56.2933ZM245.794 52.6976H247.045V59.9847H245.794V52.6976ZM245.794 49.9427H247.045V51.3373H245.794V49.9427ZM248.911 52.6635H250.08V53.7025C250.426 53.2741 250.793 52.9665 251.181 52.7797C251.568 52.5928 251.999 52.4994 252.473 52.4994C253.512 52.4994 254.213 52.8617 254.578 53.5863C254.779 53.9828 254.879 54.5502 254.879 55.2885V59.9847H253.628V55.3705C253.628 54.9239 253.562 54.5638 253.43 54.2904C253.211 53.8347 252.814 53.6068 252.24 53.6068C251.948 53.6068 251.709 53.6364 251.522 53.6957C251.185 53.7959 250.889 53.9965 250.634 54.2972C250.429 54.5388 250.294 54.7894 250.23 55.0492C250.171 55.3044 250.141 55.6713 250.141 56.1498V59.9847H248.911V52.6635ZM260.908 51.5492C260.926 51.0388 261.015 50.6651 261.175 50.4281C261.462 50.0088 262.016 49.7992 262.836 49.7992C262.913 49.7992 262.993 49.8015 263.075 49.806C263.157 49.8106 263.251 49.8174 263.355 49.8265V50.9476C263.228 50.9385 263.134 50.934 263.075 50.934C263.02 50.9294 262.968 50.9271 262.918 50.9271C262.544 50.9271 262.321 51.0251 262.248 51.2211C262.175 51.4125 262.139 51.9047 262.139 52.6976H263.355V53.6683H262.125V59.9847H260.908V53.6683H259.89V52.6976H260.908V51.5492ZM267.402 59.1918C268.218 59.1918 268.776 58.8842 269.077 58.2689C269.382 57.6491 269.535 56.961 269.535 56.2045C269.535 55.5209 269.426 54.9649 269.207 54.5365C268.861 53.862 268.264 53.5248 267.416 53.5248C266.664 53.5248 266.117 53.8119 265.775 54.3861C265.433 54.9603 265.263 55.653 265.263 56.4642C265.263 57.2435 265.433 57.8929 265.775 58.4125C266.117 58.932 266.659 59.1918 267.402 59.1918ZM267.45 52.4515C268.393 52.4515 269.191 52.766 269.843 53.3949C270.494 54.0238 270.82 54.9489 270.82 56.1703C270.82 57.3506 270.533 58.3259 269.959 59.0961C269.385 59.8663 268.494 60.2513 267.286 60.2513C266.279 60.2513 265.479 59.9118 264.887 59.2328C264.294 58.5492 263.998 57.6332 263.998 56.4847C263.998 55.2543 264.31 54.2745 264.934 53.5453C265.559 52.8161 266.397 52.4515 267.45 52.4515ZM272.324 52.6635H273.493V53.9281C273.589 53.682 273.823 53.3835 274.197 53.0326C274.571 52.6771 275.002 52.4994 275.489 52.4994C275.512 52.4994 275.551 52.5017 275.605 52.5062C275.66 52.5108 275.753 52.5199 275.886 52.5336V53.8324C275.813 53.8187 275.744 53.8096 275.681 53.8051C275.621 53.8005 275.555 53.7982 275.482 53.7982C274.863 53.7982 274.386 53.9987 274.054 54.3998C273.721 54.7963 273.555 55.2543 273.555 55.7738V59.9847H272.324V52.6635ZM281.676 49.9427L283.569 58.1117L285.839 49.9427H287.315L289.585 58.1117L291.478 49.9427H292.969L290.33 59.9847H288.901L286.584 51.6586L284.253 59.9847H282.824L280.199 49.9427H281.676ZM296.728 59.1918C297.544 59.1918 298.102 58.8842 298.403 58.2689C298.709 57.6491 298.861 56.961 298.861 56.2045C298.861 55.5209 298.752 54.9649 298.533 54.5365C298.187 53.862 297.59 53.5248 296.742 53.5248C295.99 53.5248 295.443 53.8119 295.101 54.3861C294.76 54.9603 294.589 55.653 294.589 56.4642C294.589 57.2435 294.76 57.8929 295.101 58.4125C295.443 58.932 295.986 59.1918 296.728 59.1918ZM296.776 52.4515C297.72 52.4515 298.517 52.766 299.169 53.3949C299.821 54.0238 300.146 54.9489 300.146 56.1703C300.146 57.3506 299.859 58.3259 299.285 59.0961C298.711 59.8663 297.82 60.2513 296.612 60.2513C295.605 60.2513 294.805 59.9118 294.213 59.2328C293.62 58.5492 293.324 57.6332 293.324 56.4847C293.324 55.2543 293.636 54.2745 294.261 53.5453C294.885 52.8161 295.724 52.4515 296.776 52.4515ZM301.65 52.6635H302.819V53.9281C302.915 53.682 303.15 53.3835 303.523 53.0326C303.897 52.6771 304.328 52.4994 304.815 52.4994C304.838 52.4994 304.877 52.5017 304.932 52.5062C304.986 52.5108 305.08 52.5199 305.212 52.5336V53.8324C305.139 53.8187 305.071 53.8096 305.007 53.8051C304.947 53.8005 304.881 53.7982 304.808 53.7982C304.189 53.7982 303.712 53.9987 303.38 54.3998C303.047 54.7963 302.881 55.2543 302.881 55.7738V59.9847H301.65V52.6635ZM307.057 56.4095C307.057 57.1934 307.224 57.8497 307.557 58.3783C307.889 58.9069 308.422 59.1713 309.156 59.1713C309.726 59.1713 310.193 58.9274 310.557 58.4398C310.927 57.9476 311.111 57.2435 311.111 56.3275C311.111 55.4024 310.922 54.7188 310.544 54.2767C310.166 53.8301 309.698 53.6068 309.142 53.6068C308.523 53.6068 308.019 53.8438 307.632 54.3177C307.249 54.7917 307.057 55.489 307.057 56.4095ZM308.91 52.5336C309.471 52.5336 309.94 52.6521 310.318 52.889C310.537 53.0258 310.785 53.265 311.063 53.6068V49.9086H312.246V59.9847H311.139V58.9662C310.851 59.4174 310.512 59.7432 310.12 59.9437C309.728 60.1442 309.279 60.2445 308.773 60.2445C307.958 60.2445 307.251 59.9027 306.654 59.2191C306.057 58.531 305.759 57.6172 305.759 56.4779C305.759 55.4115 306.03 54.4886 306.572 53.7094C307.119 52.9255 307.898 52.5336 308.91 52.5336ZM314.365 49.9427H318.884C319.777 49.9427 320.497 50.1957 321.044 50.7015C321.591 51.2028 321.864 51.9092 321.864 52.8207C321.864 53.6045 321.62 54.2881 321.133 54.8715C320.645 55.4502 319.895 55.7396 318.884 55.7396H315.725V59.9847H314.365V49.9427ZM320.49 52.8275C320.49 52.0892 320.217 51.5879 319.67 51.3236C319.369 51.1823 318.957 51.1117 318.432 51.1117H315.725V54.5912H318.432C319.043 54.5912 319.538 54.4613 319.916 54.2015C320.299 53.9418 320.49 53.4838 320.49 52.8275ZM323.443 52.6635H324.612V53.9281C324.708 53.682 324.943 53.3835 325.316 53.0326C325.69 52.6771 326.121 52.4994 326.608 52.4994C326.631 52.4994 326.67 52.5017 326.724 52.5062C326.779 52.5108 326.873 52.5199 327.005 52.5336V53.8324C326.932 53.8187 326.863 53.8096 326.8 53.8051C326.74 53.8005 326.674 53.7982 326.601 53.7982C325.982 53.7982 325.505 53.9987 325.173 54.3998C324.84 54.7963 324.674 55.2543 324.674 55.7738V59.9847H323.443V52.6635ZM331.12 52.4994C331.64 52.4994 332.143 52.6224 332.631 52.8685C333.118 53.1101 333.49 53.4245 333.745 53.8119C333.991 54.181 334.155 54.6117 334.237 55.1039C334.31 55.4411 334.347 55.9789 334.347 56.7172H328.98C329.003 57.46 329.179 58.057 329.507 58.5082C329.835 58.9548 330.343 59.1781 331.031 59.1781C331.674 59.1781 332.186 58.9662 332.569 58.5424C332.788 58.2963 332.943 58.0114 333.034 57.6879H334.244C334.212 57.9567 334.105 58.2575 333.923 58.5902C333.745 58.9183 333.544 59.1872 333.321 59.3969C332.947 59.7614 332.485 60.0075 331.933 60.1351C331.637 60.208 331.302 60.2445 330.929 60.2445C330.017 60.2445 329.245 59.9141 328.611 59.2533C327.978 58.5879 327.661 57.6582 327.661 56.4642C327.661 55.2885 327.98 54.3337 328.618 53.6C329.256 52.8663 330.09 52.4994 331.12 52.4994ZM333.082 55.7396C333.032 55.2064 332.916 54.7803 332.733 54.4613C332.396 53.8689 331.833 53.5726 331.045 53.5726C330.48 53.5726 330.006 53.7777 329.623 54.1879C329.24 54.5935 329.037 55.1107 329.015 55.7396H333.082ZM336.596 57.6879C336.632 58.098 336.735 58.4125 336.903 58.6312C337.213 59.0277 337.751 59.226 338.516 59.226C338.972 59.226 339.373 59.128 339.72 58.932C340.066 58.7315 340.239 58.4239 340.239 58.0092C340.239 57.6947 340.1 57.4554 339.822 57.2914C339.644 57.1911 339.293 57.0749 338.769 56.9427L337.792 56.6967C337.168 56.5417 336.707 56.3685 336.411 56.1771C335.882 55.8444 335.618 55.3842 335.618 54.7963C335.618 54.1036 335.866 53.543 336.363 53.1146C336.864 52.6862 337.537 52.472 338.38 52.472C339.483 52.472 340.278 52.7956 340.766 53.4427C341.071 53.8529 341.219 54.295 341.21 54.7689H340.048C340.025 54.4909 339.927 54.238 339.754 54.0101C339.471 53.6866 338.981 53.5248 338.284 53.5248C337.819 53.5248 337.466 53.6136 337.224 53.7914C336.988 53.9691 336.869 54.2038 336.869 54.4955C336.869 54.8145 337.026 55.0697 337.341 55.2611C337.523 55.375 337.792 55.4753 338.147 55.5619L338.961 55.7601C339.845 55.9743 340.437 56.1817 340.738 56.3822C341.217 56.6967 341.456 57.1911 341.456 57.8656C341.456 58.5173 341.208 59.0801 340.711 59.5541C340.219 60.028 339.467 60.265 338.455 60.265C337.366 60.265 336.593 60.0189 336.138 59.5267C335.686 59.03 335.445 58.417 335.413 57.6879H336.596ZM343.596 57.6879C343.632 58.098 343.735 58.4125 343.903 58.6312C344.213 59.0277 344.751 59.226 345.516 59.226C345.972 59.226 346.373 59.128 346.72 58.932C347.066 58.7315 347.239 58.4239 347.239 58.0092C347.239 57.6947 347.1 57.4554 346.822 57.2914C346.644 57.1911 346.293 57.0749 345.769 56.9427L344.792 56.6967C344.168 56.5417 343.707 56.3685 343.411 56.1771C342.882 55.8444 342.618 55.3842 342.618 54.7963C342.618 54.1036 342.866 53.543 343.363 53.1146C343.864 52.6862 344.537 52.472 345.38 52.472C346.483 52.472 347.278 52.7956 347.766 53.4427C348.071 53.8529 348.219 54.295 348.21 54.7689H347.048C347.025 54.4909 346.927 54.238 346.754 54.0101C346.471 53.6866 345.981 53.5248 345.284 53.5248C344.819 53.5248 344.466 53.6136 344.224 53.7914C343.988 53.9691 343.869 54.2038 343.869 54.4955C343.869 54.8145 344.026 55.0697 344.341 55.2611C344.523 55.375 344.792 55.4753 345.147 55.5619L345.961 55.7601C346.845 55.9743 347.437 56.1817 347.738 56.3822C348.217 56.6967 348.456 57.1911 348.456 57.8656C348.456 58.5173 348.208 59.0801 347.711 59.5541C347.219 60.028 346.467 60.265 345.455 60.265C344.366 60.265 343.593 60.0189 343.138 59.5267C342.686 59.03 342.445 58.417 342.413 57.6879H343.596Z" fill="#7A90A9"/>
</svg>
