<svg width="58" height="57" viewBox="0 0 58 57" fill="none" xmlns="http://www.w3.org/2000/svg">
<path d="M13.7175 2.06507C14.948 8.90662 17.3512 15.3086 20.7295 20.8432C24.1265 26.4242 28.4566 31.1651 33.4684 34.7021C36.2725 36.6869 39.296 38.295 42.4715 39.4238C43.429 39.768 42.8445 41.6113 41.8869 41.2671C36.0019 39.1167 30.6755 35.5205 26.1169 30.8695C21.6189 26.2376 17.9424 20.4868 15.3458 14.064C13.8952 10.4392 12.8108 6.60587 12.0808 2.60095C11.9236 1.415 13.5183 0.90638 13.7175 2.06507Z" fill="#338EEF"/>
<path d="M17.0246 36.0939C25.7877 40.0884 35.736 41.5622 45.3266 40.2509C45.0619 41.1725 44.7413 42.0593 44.4766 42.9809C39.2581 36.541 34.9676 29.3606 31.9054 21.7047C31.5699 20.8742 31.7787 19.9177 32.5882 19.4914C33.3069 19.0861 34.4659 19.3437 34.8015 20.1742C37.8007 27.5578 41.8467 34.508 46.8766 40.7526C47.5612 41.6457 47.3738 43.3142 46.0266 43.4825C35.5426 44.8572 24.8962 43.2582 15.2253 38.8523C14.4293 38.5108 14.282 37.2544 14.7004 36.584C15.2793 35.7808 16.1728 35.7175 17.0246 36.0939Z" fill="#338EEF"/>
</svg>
