<svg width="25" height="24" viewBox="0 0 25 24" fill="none" xmlns="http://www.w3.org/2000/svg">
<g id=".payment icon" clip-path="url(#clip0_9294_50021)">
<g id="Vector">
<path d="M23.6477 4H2.20773C1.50081 4 0.927734 4.60836 0.927734 5.35881V18.6412C0.927734 19.3916 1.50081 20 2.20773 20H23.6477C24.3547 20 24.9277 19.3916 24.9277 18.6412V5.35881C24.9277 4.60836 24.3547 4 23.6477 4Z" fill="#2557D6"/>
<path d="M0.92783 11.5137H2.0806L2.34053 10.851H2.92245L3.18169 11.5137H5.44985V11.007L5.65231 11.5159H6.82978L7.03225 10.9995V11.5137H12.6691L12.6665 10.4258H12.7755C12.8519 10.4286 12.8742 10.4361 12.8742 10.5694V11.5137H15.7896V11.2605C16.0247 11.3937 16.3905 11.5137 16.8718 11.5137H18.0983L18.3608 10.851H18.9427L19.1994 11.5137H21.5629V10.8842L21.9208 11.5137H23.8148V7.35212H21.9404V7.8436L21.6779 7.35212H19.7546V7.8436L19.5135 7.35212H16.9155C16.4806 7.35212 16.0984 7.41629 15.7896 7.59511V7.35212H13.9967V7.59511C13.8002 7.41079 13.5325 7.35212 13.2347 7.35212H6.68479L6.2453 8.42697L5.79397 7.35212H3.73093V7.8436L3.50428 7.35212H1.74482L0.927734 9.33075L0.92783 11.5137ZM8.20453 10.9135H7.51285L7.51029 8.57651L6.53196 10.9134H5.93957L4.95871 8.57444V10.9134H3.58642L3.32719 10.2479H1.92239L1.66053 10.9134H0.927734L2.13593 7.92958H3.13836L4.28585 10.7547V7.92958H5.38703L6.27001 9.95376L7.08111 7.92958H8.20444L8.20453 10.9135ZM3.0966 9.6286L2.63484 8.43906L2.17564 9.6286H3.0966ZM10.9571 10.9134H8.70329V7.92955H10.9571V8.55089H9.37801V9.08875H10.9193V9.70038H9.37798V10.2963H10.9571L10.9571 10.9134ZM14.1333 8.73318C14.1333 9.2089 13.833 9.45471 13.6579 9.52849C13.8056 9.58787 13.9316 9.69284 13.9917 9.77977C14.0869 9.92818 14.1034 10.0607 14.1034 10.3272V10.9134H13.4229L13.4203 10.5371C13.4203 10.3576 13.4366 10.0994 13.3138 9.9558C13.2152 9.85083 13.065 9.82807 12.822 9.82807H12.0978V10.9134H11.4231V7.92955H12.9749C13.3197 7.92955 13.5738 7.93916 13.7919 8.07246C14.0053 8.20576 14.1333 8.40034 14.1333 8.73318ZM13.2805 9.17622C13.1877 9.23574 13.0781 9.23771 12.9467 9.23771H12.1271V8.57495H12.9579C13.0754 8.57495 13.1981 8.58052 13.2778 8.62876C13.3653 8.67224 13.4195 8.76474 13.4195 8.89253C13.4195 9.02298 13.368 9.12791 13.2805 9.17622ZM15.2154 10.9134H14.527V7.92955H15.2154V10.9134ZM23.2071 10.9134H22.2509L20.9721 8.67383V10.9134H19.598L19.3355 10.2478H17.9339L17.6792 10.9134H16.8897C16.5617 10.9134 16.1465 10.8367 15.9114 10.5834C15.6742 10.33 15.5509 9.98685 15.5509 9.44424C15.5509 9.00171 15.6246 8.59716 15.9146 8.27747C16.1327 8.03934 16.4743 7.92955 16.9392 7.92955H17.5924V8.5689H16.9529C16.7067 8.5689 16.5677 8.60763 16.4338 8.74565C16.3187 8.8713 16.2398 9.10879 16.2398 9.42155C16.2398 9.74121 16.2999 9.97174 16.4253 10.1223C16.5292 10.2404 16.7179 10.2762 16.8955 10.2762H17.1986L18.1495 7.92965H19.1604L20.3027 10.7519V7.92968H21.33L22.516 10.0078V7.92968H23.207L23.2071 10.9134ZM19.106 9.62863L18.6391 8.4391L18.1747 9.62863H19.106ZM24.9263 15.6779C24.7625 15.9312 24.4431 16.0596 24.0108 16.0596H22.7078V15.4196H24.0055C24.1342 15.4196 24.2243 15.4017 24.2785 15.3458C24.3039 15.321 24.3241 15.2909 24.3378 15.2574C24.3516 15.2239 24.3585 15.1877 24.3583 15.1511C24.3583 15.0641 24.3255 14.9951 24.2759 14.9537C24.2269 14.9082 24.1557 14.8875 24.0382 14.8875C23.4047 14.8647 22.6143 14.9082 22.6143 13.9637C22.6143 13.5308 22.8743 13.0752 23.5823 13.0752H24.9263L24.9263 12.4814H23.6776C23.3008 12.4814 23.0271 12.5767 22.8332 12.7251V12.4813H20.9863C20.6909 12.4813 20.3443 12.5587 20.1803 12.7251V12.4813H16.8822V12.7251C16.6197 12.5249 16.1769 12.4813 15.9724 12.4813H13.797V12.7251C13.5893 12.5125 13.1275 12.4813 12.8461 12.4813H10.4114L9.85423 13.1187L9.33241 12.4813H5.69541V16.6458H9.26393L9.83801 15.9983L10.3788 16.6458L12.5785 16.6479V15.6682H12.7947C13.0865 15.673 13.4308 15.6606 13.7345 15.5218V16.6457H15.5488V15.5603H15.6363C15.748 15.5603 15.759 15.5652 15.759 15.6832V16.6456H21.2705C21.6204 16.6456 21.9861 16.551 22.1887 16.3791V16.6456H23.9369C24.3007 16.6456 24.656 16.5917 24.9263 16.4537L24.9263 15.6779ZM13.9982 14.076C13.9982 14.9051 13.4131 15.0763 12.8233 15.0763H11.9815V16.0773H10.6701L9.83935 15.0893L8.97596 16.0773H6.30341V13.0928H9.01701L9.84713 14.0711L10.7053 13.0928H12.8612C13.3966 13.0928 13.9982 13.2495 13.9982 14.076ZM8.63423 15.4496H6.97538V14.8557H8.45663V14.2468H6.97538V13.7042H8.6669L9.40489 14.574L8.63423 15.4496ZM11.3071 15.7913L10.2712 14.5756L11.3071 13.3985V15.7913ZM12.839 14.4642H11.9671V13.7042H12.8468C13.0904 13.7042 13.2595 13.8091 13.2595 14.0701C13.2595 14.3282 13.0982 14.4642 12.839 14.4642ZM17.4068 13.0928H19.6586V13.71H18.0787V14.2526H19.6201V14.8615H18.0787V15.4553L19.6586 15.4581V16.0773H17.4068L17.4068 13.0928ZM16.5411 14.6904C16.6913 14.7489 16.814 14.854 16.8716 14.9409C16.9669 15.0866 16.9807 15.2226 16.9834 15.4857V16.0773H16.306V15.7039C16.306 15.5244 16.3223 15.2585 16.1969 15.1197C16.0984 15.0128 15.9481 14.9872 15.7019 14.9872H14.9809V16.0773H14.3029V13.0928H15.8606C16.2022 13.0928 16.451 13.1087 16.6724 13.2336C16.8854 13.3696 17.0193 13.5559 17.0193 13.8964C17.0192 14.3727 16.7187 14.6159 16.5411 14.6904ZM16.1597 14.313C16.0695 14.3697 15.9579 14.3745 15.8266 14.3745H15.007V13.7042H15.8378C15.9579 13.7042 16.0781 13.7069 16.1597 13.7581C16.2472 13.8064 16.2994 13.8989 16.2994 14.0266C16.2994 14.1543 16.2472 14.2571 16.1597 14.313ZM22.2505 14.5032C22.3819 14.6469 22.4523 14.8283 22.4523 15.1355C22.4523 15.7775 22.0728 16.0772 21.3924 16.0772H20.0783V15.4372H21.3871C21.5151 15.4372 21.6058 15.4193 21.6627 15.3634C21.7091 15.3172 21.7424 15.2501 21.7424 15.1687C21.7424 15.0817 21.7064 15.0127 21.6601 14.9713C21.6085 14.9258 21.5373 14.9051 21.4198 14.9051C20.7889 14.8823 19.9987 14.9258 19.9987 13.9813C19.9987 13.5484 20.256 13.0928 20.9633 13.0928H22.3159V13.728H21.0782C20.9555 13.728 20.8758 13.7329 20.8079 13.7819C20.734 13.8302 20.7066 13.902 20.7066 13.9966C20.7066 14.1092 20.7693 14.1858 20.8542 14.2189C20.9254 14.2451 21.0018 14.2528 21.1168 14.2528L21.48 14.2631C21.8463 14.2726 22.0977 14.3395 22.2505 14.5032ZM24.9277 13.7042H23.6981C23.5753 13.7042 23.4938 13.709 23.425 13.7581C23.3539 13.8064 23.3265 13.8781 23.3265 13.9729C23.3265 14.0854 23.3866 14.162 23.474 14.1952C23.5452 14.2213 23.6216 14.229 23.734 14.229L24.0997 14.2393C24.4687 14.249 24.715 14.316 24.8651 14.4796C24.8925 14.5023 24.9089 14.5279 24.9277 14.5534V13.7042Z" fill="white"/>
</g>
</g>
<defs>
<clipPath id="clip0_9294_50021">
<rect width="24" height="24" fill="white" transform="translate(0.927734)"/>
</clipPath>
</defs>
</svg>
