<svg width="36" height="16" viewBox="0 0 36 16" fill="none" xmlns="http://www.w3.org/2000/svg">
<g id="payment-logo">
<rect id="Rectangle 871" x="0.928711" y="0.5" width="34.9991" height="14.9996" rx="1.87495" fill="white"/>
<path id="XMLID 34" d="M8.73201 3.65048C8.34367 4.11001 7.72233 4.47246 7.10099 4.42068C7.02332 3.79934 7.32752 3.13917 7.6835 2.73141C8.07184 2.25893 8.75143 1.92237 9.30157 1.89648C9.3663 2.54371 9.11388 3.178 8.73201 3.65048ZM9.2951 4.54365C8.39545 4.49188 7.62525 5.05497 7.19808 5.05497C6.76443 5.05497 6.11073 4.56954 5.39878 4.58249C4.47324 4.59543 3.61242 5.11969 3.13994 5.95462C2.1691 7.62447 2.88752 10.0969 3.82601 11.4561C4.28554 12.1292 4.83569 12.867 5.56058 12.8411C6.24665 12.8153 6.51848 12.3946 7.34694 12.3946C8.18186 12.3946 8.42134 12.8411 9.14624 12.8282C9.89702 12.8153 10.3695 12.1551 10.829 11.482C11.3533 10.7182 11.5669 9.97391 11.5798 9.93508C11.5669 9.92214 10.13 9.37199 10.1171 7.71508C10.1041 6.33001 11.2497 5.66983 11.3015 5.631C10.6543 4.6731 9.6446 4.56954 9.2951 4.54365ZM14.4924 2.66669V12.757H16.0587V9.30727H18.2269C20.2074 9.30727 21.5989 7.94808 21.5989 5.9805C21.5989 4.01293 20.2333 2.66669 18.2787 2.66669H14.4924ZM16.0587 3.98704H17.8644C19.2236 3.98704 20.0003 4.71193 20.0003 5.98698C20.0003 7.26202 19.2236 7.99339 17.858 7.99339H16.0587V3.98704ZM24.4597 12.8347C25.4435 12.8347 26.3561 12.3363 26.7703 11.5467H26.8027V12.757H28.2525V7.7345C28.2525 6.27823 27.0875 5.33975 25.2946 5.33975C23.6312 5.33975 22.4015 6.29118 22.3562 7.59858H23.7672C23.8837 6.97724 24.4597 6.56948 25.2493 6.56948C26.2072 6.56948 26.7444 7.01607 26.7444 7.83806V8.39467L24.7898 8.51117C22.9711 8.6212 21.9873 9.36552 21.9873 10.66C21.9873 11.9674 23.0034 12.8347 24.4597 12.8347ZM24.8804 11.6373C24.0455 11.6373 23.5147 11.236 23.5147 10.6211C23.5147 9.98686 24.0261 9.61794 25.0034 9.55969L26.7444 9.44966V10.0192C26.7444 10.9642 25.9419 11.6373 24.8804 11.6373ZM30.1877 15.5013C31.7151 15.5013 32.4336 14.9187 33.0614 13.1518L35.8121 5.43683H34.2199L32.3753 11.3978H32.343L30.4984 5.43683H28.8609L31.5145 12.7829L31.3721 13.2295C31.1326 13.9867 30.7443 14.278 30.0518 14.278C29.9288 14.278 29.6893 14.265 29.5922 14.2521V15.4624C29.6828 15.4883 30.0712 15.5013 30.1877 15.5013Z" fill="black"/>
</g>
</svg>
