<svg width="36" height="16" viewBox="0 0 36 16" fill="none" xmlns="http://www.w3.org/2000/svg">
<g id="payment-logo">
<rect id="Rectangle 871" x="0.926758" y="0.5" width="34.375" height="15" rx="1.875" fill="white"/>
<g id="Group">
<path id="Vector" d="M18.0815 8.71741V12.5705H16.8604V3.05915H20.0991C20.8803 3.04398 21.6312 3.33979 22.2001 3.88589C22.7689 4.39408 23.0875 5.1298 23.0723 5.88828C23.0875 6.65435 22.7689 7.39007 22.2001 7.90584C21.6312 8.44436 20.9334 8.71741 20.1066 8.71741H18.0815ZM18.0815 4.22721V7.54935H20.1294C20.5845 7.56452 21.0244 7.38249 21.3354 7.05634C21.9801 6.43439 21.9877 5.41044 21.3657 4.76573L21.3354 4.73539C21.0244 4.40166 20.5845 4.21962 20.1294 4.23479L18.0815 4.22721ZM25.8863 5.85036C26.7889 5.85036 27.5018 6.09307 28.0252 6.57091C28.5485 7.05634 28.8064 7.71622 28.8064 8.55813V12.5629H27.6384V11.6603H27.5853C27.0771 12.4036 26.4096 12.7753 25.5677 12.7753C24.8547 12.7753 24.248 12.5629 23.7701 12.1382C23.2999 11.7438 23.0344 11.1597 23.0496 10.5454C23.0496 9.87031 23.3074 9.33937 23.8156 8.93737C24.3238 8.53538 25.0064 8.33817 25.8559 8.33817C26.5841 8.33817 27.1757 8.4747 27.6459 8.73258V8.45195C27.6459 8.03478 27.4639 7.64037 27.1453 7.3749C26.8192 7.08668 26.402 6.9274 25.9697 6.9274C25.2871 6.9274 24.7485 7.21562 24.3466 7.79207L23.2695 7.11702C23.8535 6.27511 24.7258 5.85036 25.8863 5.85036ZM24.3086 10.5757C24.3086 10.8943 24.4603 11.1901 24.7106 11.3721C24.9837 11.5845 25.3174 11.6982 25.6587 11.6907C26.1745 11.6907 26.6675 11.4859 27.0316 11.1218C27.4336 10.7426 27.6384 10.2951 27.6384 9.77929C27.2591 9.4759 26.7282 9.3242 26.0456 9.3242C25.5525 9.3242 25.1354 9.44556 24.8016 9.68069C24.4755 9.9234 24.3086 10.2192 24.3086 10.5757ZM35.5114 6.06273L31.4308 15.4376H30.1717L31.6886 12.1609L29.0036 6.07032H30.331L32.2651 10.7426H32.2954L34.184 6.07032L35.5114 6.06273Z" fill="#5F6368"/>
<path id="Vector_2" d="M13.1444 7.88473C13.1444 7.51307 13.1141 7.14141 13.0534 6.77734H7.90332V8.87833H10.8538C10.7325 9.55338 10.338 10.1602 9.7616 10.5394V11.9047H11.5213C12.5528 10.9566 13.1444 9.55338 13.1444 7.88473Z" fill="#4285F4"/>
<path id="Vector_3" d="M7.9034 13.2249C9.37485 13.2249 10.6188 12.7395 11.5213 11.9051L9.76167 10.5399C9.26866 10.8736 8.63912 11.0632 7.9034 11.0632C6.47745 11.0632 5.27147 10.1 4.83914 8.81055H3.02637V10.2213C3.95171 12.0568 5.84033 13.2249 7.9034 13.2249Z" fill="#34A853"/>
<path id="Vector_4" d="M4.83912 8.81105C4.61157 8.136 4.61157 7.40027 4.83912 6.71764V5.31445H3.02635C2.64117 6.07367 2.44043 6.91301 2.44043 7.76435C2.44043 8.61568 2.64117 9.45502 3.02635 10.2142L4.83912 8.81105Z" fill="#FBBC04"/>
<path id="Vector_5" d="M7.9034 4.46473C8.68463 4.44956 9.43553 4.74537 9.9968 5.28389L11.5517 3.72901C10.5657 2.79608 9.26108 2.28789 7.9034 2.30306C5.84033 2.30306 3.95171 3.47112 3.02637 5.31423L4.83914 6.72501C5.27147 5.428 6.47745 4.46473 7.9034 4.46473Z" fill="#EA4335"/>
</g>
</g>
</svg>
