<svg width="21" height="18" viewBox="0 0 21 18" fill="none" xmlns="http://www.w3.org/2000/svg">
<g id="mc_symbol 1" clip-path="url(#clip0_9294_50022)">
<g id="MasterCard Logo">
<path id="Vector" d="M13.5937 4.29688H7.82129V13.725H13.5937V4.29688Z" fill="#FF5F00"/>
<path id="Vector_2" d="M8.41329 9.0104C8.41257 8.10256 8.61837 7.20645 9.01511 6.38989C9.41185 5.57333 9.98913 4.85771 10.7033 4.29719C9.81878 3.60207 8.75656 3.16981 7.63801 3.04983C6.51947 2.92984 5.38974 3.12697 4.37793 3.61867C3.36612 4.11038 2.51306 4.87683 1.91624 5.83042C1.31942 6.78401 1.00293 7.88628 1.00293 9.01124C1.00293 10.1362 1.31942 11.2385 1.91624 12.1921C2.51306 13.1456 3.36612 13.9121 4.37793 14.4038C5.38974 14.8955 6.51947 15.0926 7.63801 14.9726C8.75656 14.8527 9.81878 14.4204 10.7033 13.7253C9.98891 13.1646 9.4115 12.4487 9.01475 11.6318C8.618 10.815 8.41232 9.91853 8.41329 9.0104Z" fill="#EB001B"/>
<path id="Vector_3" d="M19.8346 12.7273V12.5341H19.9179V12.4941H19.7197V12.5341H19.798V12.7273H19.8346ZM20.2194 12.7273V12.4941H20.1594L20.0895 12.6607L20.0195 12.4941H19.9596V12.7273H20.0029V12.5508L20.0678 12.7023H20.1128L20.1777 12.5508V12.7273H20.2194Z" fill="#F79E1B"/>
<path id="Vector_4" d="M20.4053 9.00886C20.4053 10.1339 20.0887 11.2362 19.4918 12.1899C18.8949 13.1435 18.0417 13.9099 17.0298 14.4016C16.0178 14.8932 14.888 15.0902 13.7694 14.97C12.6508 14.8499 11.5885 14.4174 10.7041 13.7221C11.418 13.1611 11.9951 12.4452 12.3919 11.6286C12.7888 10.812 12.995 9.91595 12.995 9.00802C12.995 8.10009 12.7888 7.20402 12.3919 6.38742C11.9951 5.57081 11.418 4.85499 10.7041 4.29398C11.5885 3.59864 12.6508 3.16617 13.7694 3.04602C14.888 2.92586 16.0178 3.12286 17.0298 3.61449C18.0417 4.10613 18.8949 4.87256 19.4918 5.82619C20.0887 6.77981 20.4053 7.88215 20.4053 9.00719V9.00886Z" fill="#F79E1B"/>
</g>
</g>
<defs>
<clipPath id="clip0_9294_50022">
<rect width="19.5" height="18" fill="white" transform="translate(0.927734)"/>
</clipPath>
</defs>
</svg>
