<svg width="30" height="10" viewBox="0 0 30 10" fill="none" xmlns="http://www.w3.org/2000/svg">
<g id="VISA-logo 1" clip-path="url(#clip0_9294_50014)">
<g id="Group">
<path id="Vector" fill-rule="evenodd" clip-rule="evenodd" d="M10.5352 9.42748L12.0565 0.589844H14.4839L12.9626 9.42748H10.5352Z" fill="#00589B"/>
<path id="Vector_2" fill-rule="evenodd" clip-rule="evenodd" d="M21.7562 0.812191C21.0588 0.567536 20.3244 0.443455 19.5848 0.445334C17.1806 0.445334 15.4997 1.6401 15.488 3.35871C15.4764 4.62784 16.6901 5.34173 17.6096 5.76147C18.529 6.18121 18.8732 6.46709 18.8615 6.85874C18.8615 7.45529 18.1133 7.723 17.4134 7.723C16.6273 7.74554 15.8466 7.58719 15.1322 7.2603L14.813 7.11322L14.4805 9.09624C15.0441 9.35073 16.0866 9.55894 17.1789 9.57051C19.7294 9.57051 21.3738 8.38896 21.3987 6.54806C21.4104 5.54829 20.7603 4.77988 19.362 4.14531C18.5157 3.74375 18.0003 3.47604 18.0003 3.06126C18.0003 2.68284 18.4426 2.29284 19.3869 2.29284C20.0097 2.27722 20.6287 2.39384 21.2025 2.63491L21.422 2.73241L21.7545 0.818801L21.7562 0.812191Z" fill="#00589B"/>
<path id="Vector_3" fill-rule="evenodd" clip-rule="evenodd" d="M27.9746 0.605469H26.0974C25.5205 0.605469 25.0799 0.77072 24.8222 1.33753L21.2275 9.44146H23.7664C23.7664 9.44146 24.1837 8.34584 24.2818 8.11945H27.386C27.4591 8.42516 27.6803 9.44146 27.6803 9.44146H29.9248L27.9746 0.605469ZM24.9818 6.30168L25.9511 3.83944C25.9262 3.86422 26.1473 3.32716 26.2687 2.99831L26.4349 3.75351C26.4349 3.75351 26.9021 5.86377 27.0002 6.30168H24.9818Z" fill="#00589B"/>
<path id="Vector_4" fill-rule="evenodd" clip-rule="evenodd" d="M8.1613 0.505859L5.78206 6.53257L5.5443 5.30971C5.09539 3.88855 3.71539 2.37155 2.17578 1.60313L4.3472 9.33193H6.911L10.7251 0.505859H8.1613Z" fill="#00589B"/>
<path id="Vector_5" fill-rule="evenodd" clip-rule="evenodd" d="M3.93519 0.594801H0.0229866L-0.00195312 0.789798C3.02739 1.52021 5.05083 3.2884 5.89213 5.41022L5.02589 1.34504C4.87957 0.78484 4.46225 0.614631 3.93519 0.589844V0.594801Z" fill="#EFA841"/>
</g>
</g>
<defs>
<clipPath id="clip0_9294_50014">
<rect width="29.9276" height="9.11857" fill="white" transform="translate(0 0.441406)"/>
</clipPath>
</defs>
</svg>
