<svg width="16" height="16" viewBox="0 0 16 16" fill="none" xmlns="http://www.w3.org/2000/svg">
<path d="M7.99566 3C7.99566 3 3.62009 3 2.52188 3.29127C1.93386 3.45896 1.44967 3.95317 1.28537 4.56217C1.00001 5.68309 1 8.00442 1 8.00442C1 8.00442 1.00001 10.3346 1.28537 11.4378C1.44967 12.0468 1.92521 12.5322 2.52188 12.6999C3.62874 13 7.99566 13 7.99566 13C7.99566 13 12.3799 13 13.4781 12.7087C14.0748 12.541 14.5503 12.0645 14.706 11.4467C15 10.3346 15 8.01325 15 8.01325C15 8.01325 15.0086 5.68309 14.706 4.56217C14.5503 3.95317 14.0748 3.4678 13.4781 3.30893C12.3799 3.00001 7.99566 3 7.99566 3ZM6.60342 5.8597L10.244 8.00442L6.60342 10.1403V5.8597Z" fill="#673DE6"/>
</svg>
