<svg width="611" height="351" xmlns="http://www.w3.org/2000/svg" fill="none" viewBox="0 0 611 351">
	<path fill="#FBFBFD" stroke="#D7E5FF" d="M1 .73h609v349H1z"/>
	<path fill="#41495B" d="M156.5 238.03h-3.42v-16h7.5c3.47 0 5.37 2.35 5.37 5.15 0 2.79-1.92 5.14-5.38 5.14h-4.08v5.71Zm3.6-8.71c1.34 0 2.37-.82 2.37-2.14 0-1.34-1.03-2.16-2.38-2.16h-3.6v4.3h3.6Zm10.96 8.71h-3.05v-11.59h3.05V228c.84-1 2.26-1.85 3.7-1.85v2.98a3.9 3.9 0 0 0-.84-.07c-1.01 0-2.36.57-2.86 1.32v7.65Zm11.05.29c-3.53 0-6.2-2.38-6.2-6.1 0-3.36 2.5-6.07 6-6.07 3.49 0 5.81 2.6 5.81 6.36v.72h-8.61c.21 1.42 1.37 2.6 3.33 2.6.99 0 2.33-.41 3.08-1.13l1.36 2.01a7.23 7.23 0 0 1-4.77 1.61Zm2.69-7.2c-.1-1.1-.87-2.47-2.88-2.47a2.67 2.67 0 0 0-2.84 2.47h5.72Zm11.41 6.91h-3.28l-4.66-11.59h3.26l3.03 8.06 3.05-8.06h3.26l-4.66 11.6Zm7.53-12.84c-.98 0-1.8-.81-1.8-1.82s.82-1.8 1.8-1.8c1.01 0 1.83.79 1.83 1.8 0 1-.82 1.82-1.83 1.82Zm1.54 12.84h-3.05v-11.59h3.05v11.6Zm8.47.29c-3.53 0-6.2-2.38-6.2-6.1 0-3.36 2.5-6.07 6-6.07 3.49 0 5.81 2.6 5.81 6.36v.72h-8.61c.22 1.42 1.37 2.6 3.34 2.6.98 0 2.32-.41 3.07-1.13l1.37 2.01a7.23 7.23 0 0 1-4.78 1.61Zm2.69-7.2c-.1-1.1-.87-2.47-2.88-2.47a2.67 2.67 0 0 0-2.84 2.47h5.72Zm18.57 6.91h-3.27l-2.45-7.9-2.44 7.9h-3.27l-3.53-11.59h3.17l2.16 7.8 2.55-7.8h2.7l2.55 7.8 2.16-7.8h3.2l-3.53 11.6Zm14.67 0h-3.4v-16h3.4v16Zm20.55 0h-3.07v-7.32c0-1.08-.48-1.85-1.73-1.85-1.08 0-1.97.72-2.4 1.35v7.82h-3.07v-7.32c0-1.08-.48-1.85-1.73-1.85-1.05 0-1.94.72-2.4 1.35v7.82h-3.05v-11.59h3.05v1.49a5.2 5.2 0 0 1 3.8-1.78c1.7 0 2.8.8 3.21 2.09a4.97 4.97 0 0 1 3.99-2.09c2.13 0 3.4 1.13 3.4 3.5v8.38Zm13.05 0h-3.07v-1.22a4.73 4.73 0 0 1-3.68 1.51c-1.84 0-4-1.25-4-3.84 0-2.74 2.16-3.74 4-3.74 1.56 0 2.9.5 3.68 1.41v-1.46c0-1.18-1.01-1.95-2.55-1.95-1.22 0-2.37.48-3.33 1.37l-1.2-2.13a7.48 7.48 0 0 1 5.06-1.83c2.66 0 5.09 1.06 5.09 4.4v7.48Zm-5.52-1.77c.98 0 1.94-.34 2.45-1.01v-1.44c-.5-.67-1.47-1.03-2.45-1.03-1.2 0-2.19.64-2.19 1.75 0 1.1.99 1.73 2.19 1.73Zm13.27 6.48a7.06 7.06 0 0 1-5-1.73l1.38-2.19a4.7 4.7 0 0 0 3.62 1.42c1.46 0 3.22-.62 3.22-2.98v-1.12a4.5 4.5 0 0 1-3.6 1.8c-2.88 0-5.12-2.02-5.12-5.88 0-3.8 2.19-5.9 5.12-5.9 1.39 0 2.66.57 3.6 1.77v-1.49h3.04v10.82c0 4.4-3.4 5.48-6.26 5.48Zm.6-7.5c.98 0 2.09-.57 2.62-1.31v-3.77a3.43 3.43 0 0 0-2.62-1.3c-1.75 0-2.95 1.2-2.95 3.2 0 1.99 1.2 3.19 2.95 3.19Zm14.13 3.08c-3.52 0-6.19-2.38-6.19-6.1 0-3.36 2.5-6.07 6-6.07 3.48 0 5.81 2.6 5.81 6.36v.72h-8.62c.22 1.42 1.37 2.6 3.34 2.6.98 0 2.33-.41 3.07-1.13l1.37 2.01a7.23 7.23 0 0 1-4.78 1.61Zm2.7-7.2c-.1-1.1-.87-2.47-2.89-2.47a2.67 2.67 0 0 0-2.83 2.47h5.71Zm25.69 6.91h-3.3l-7.62-10.44v10.44h-3.41v-16h3.5l7.42 10.05v-10.06h3.4v16.01Zm8.46.29a5.89 5.89 0 0 1-6.12-6.1c0-3.28 2.3-6.07 6.12-6.07a5.88 5.88 0 0 1 6.14 6.07 5.9 5.9 0 0 1-6.14 6.1Zm0-2.71c1.92 0 2.97-1.56 2.97-3.39 0-1.8-1.05-3.36-2.97-3.36-1.9 0-2.96 1.56-2.96 3.36 0 1.83 1.06 3.39 2.96 3.39Zm12.31 2.71c-2.13 0-3.26-1.1-3.26-3.2v-6.02h-1.92v-2.66h1.92v-3.17h3.05v3.17h2.35v2.66h-2.35v5.21c0 .75.38 1.3 1.05 1.3.46 0 .9-.17 1.06-.36l.65 2.33c-.46.4-1.28.74-2.55.74Zm25.39-.29h-3.87l-1-2.71h-6.87l-1 2.71h-3.87l6.17-16h4.27l6.17 16Zm-5.8-5.71-2.5-6.89-2.5 6.89h5Zm13.02 5.71h-3.28l-4.66-11.59h3.26l3.03 8.06 3.05-8.06h3.26l-4.66 11.6Zm16.05 0h-3.07v-1.22a4.73 4.73 0 0 1-3.67 1.51c-1.85 0-4-1.25-4-3.84 0-2.74 2.15-3.74 4-3.74 1.56 0 2.9.5 3.67 1.41v-1.46c0-1.18-1-1.95-2.54-1.95-1.23 0-2.38.48-3.34 1.37l-1.2-2.13a7.48 7.48 0 0 1 5.06-1.83c2.67 0 5.1 1.06 5.1 4.4v7.48Zm-5.52-1.77c.99 0 1.95-.34 2.45-1.01v-1.44c-.5-.67-1.46-1.03-2.45-1.03-1.2 0-2.18.64-2.18 1.75 0 1.1.98 1.73 2.18 1.73Zm10.03-11.07c-.98 0-1.8-.81-1.8-1.82s.82-1.8 1.8-1.8c1.01 0 1.83.79 1.83 1.8 0 1-.82 1.82-1.83 1.82Zm1.54 12.84h-3.05v-11.59h3.05v11.6Zm6.07 0h-3.05v-16h3.05v16Zm13.06 0h-3.08v-1.22a4.73 4.73 0 0 1-3.67 1.51c-1.85 0-4-1.25-4-3.84 0-2.74 2.15-3.74 4-3.74 1.56 0 2.9.5 3.67 1.41v-1.46c0-1.18-1-1.95-2.54-1.95-1.22 0-2.38.48-3.34 1.37l-1.2-2.13a7.48 7.48 0 0 1 5.07-1.83c2.66 0 5.08 1.06 5.08 4.4v7.48Zm-5.52-1.77c.98 0 1.94-.34 2.44-1.01v-1.44c-.5-.67-1.46-1.03-2.44-1.03-1.2 0-2.19.64-2.19 1.75 0 1.1.99 1.73 2.19 1.73Zm11.56-1.95c.53.75 1.63 1.3 2.64 1.3 1.75 0 2.93-1.37 2.93-3.39 0-1.99-1.18-3.36-2.93-3.36-1 0-2.11.58-2.64 1.35v4.1Zm0 3.72h-3.05v-16h3.05v5.9a4.4 4.4 0 0 1 3.58-1.78c2.95 0 5.13 2.3 5.13 6.07 0 3.9-2.2 6.1-5.13 6.1a4.5 4.5 0 0 1-3.58-1.78v1.5Zm14.06 0h-3.04v-16h3.05v16Zm8.47.29c-3.52 0-6.19-2.38-6.19-6.1 0-3.36 2.5-6.07 6-6.07 3.48 0 5.81 2.6 5.81 6.36v.72h-8.62c.22 1.42 1.37 2.6 3.34 2.6.98 0 2.33-.41 3.07-1.13l1.37 2.01a7.23 7.23 0 0 1-4.78 1.61Zm2.7-7.2c-.1-1.1-.87-2.47-2.89-2.47a2.67 2.67 0 0 0-2.83 2.47h5.71ZM74.87 267.03h-1.5v-10.67h-3.8v-1.33h9.11v1.33h-3.81v10.67Zm12.98 0H86.5v-5.72c0-1.55-.77-1.98-1.96-1.98-1.04 0-2.05.65-2.56 1.35v6.35h-1.35v-12h1.35v4.57a4.18 4.18 0 0 1 3.1-1.48c1.82 0 2.77.88 2.77 2.77v6.14Zm6.64.22c-2.6 0-4.45-1.86-4.45-4.57 0-2.52 1.8-4.56 4.29-4.56 2.63 0 4.17 2.05 4.17 4.66v.35h-7.02c.11 1.63 1.25 3 3.12 3 1 0 2-.4 2.7-1.11l.65.88a4.8 4.8 0 0 1-3.46 1.35Zm2.68-5.13c-.02-1.28-.88-2.88-2.86-2.88-1.85 0-2.77 1.56-2.84 2.88h5.7Zm9.9 4.91h-1.34v-7.5h-1.44v-1.2h1.44v-.66c0-1.8 1.02-2.82 2.52-2.82.52 0 .97.09 1.33.28l-.34 1.03c-.22-.13-.45-.2-.78-.2-.9 0-1.38.6-1.38 1.71v.67h1.76v1.19h-1.76v7.5Zm4.07-9.93a.9.9 0 0 1-.91-.9c0-.5.41-.92.91-.92s.9.41.9.92c0 .5-.4.9-.9.9Zm.67 9.93h-1.35v-8.7h1.35v8.7Zm4.05 0h-1.35v-8.7h1.35v1.4c.7-.9 1.7-1.59 2.9-1.59v1.39a4.46 4.46 0 0 0-.53-.04c-.84 0-1.98.68-2.37 1.39v6.15Zm7.36.22a4.66 4.66 0 0 1-3.51-1.37l.68-.97a3.94 3.94 0 0 0 2.87 1.24c1.33 0 2.07-.63 2.07-1.5 0-2.1-5.39-.8-5.39-4.03 0-1.36 1.16-2.5 3.23-2.5 1.49 0 2.53.56 3.22 1.26l-.63.94a3.36 3.36 0 0 0-2.6-1.1c-1.18 0-1.92.6-1.92 1.37 0 1.89 5.38.65 5.38 4.03 0 1.46-1.17 2.63-3.4 2.63Zm7.8 0c-1.29 0-1.94-.74-1.94-2.04v-5.68h-1.44v-1.2h1.45v-2.37h1.36v2.38h1.77v1.19h-1.77v5.4c0 .64.3 1.11.87 1.11.4 0 .74-.18.92-.38l.4 1.03c-.35.32-.84.56-1.61.56Zm11.54-.22h-1.47l-3.62-8.7h1.47l2.88 7.14 2.9-7.13h1.46l-3.62 8.7Zm5.71-9.93a.9.9 0 0 1-.92-.9c0-.5.42-.92.92-.92s.9.41.9.92c0 .5-.4.9-.9.9Zm.67 9.93h-1.35v-8.7h1.35v8.7Zm6.63.22c-2.59 0-4.44-1.86-4.44-4.57 0-2.52 1.8-4.56 4.28-4.56 2.63 0 4.18 2.05 4.18 4.66v.35h-7.02c.1 1.63 1.24 3 3.11 3 1 0 2-.4 2.7-1.11l.65.88a4.8 4.8 0 0 1-3.46 1.35Zm2.69-5.13c-.02-1.28-.89-2.88-2.87-2.88-1.85 0-2.77 1.56-2.84 2.88h5.7Zm12.4 4.91h-1.36l-2.27-6.98-2.27 6.98h-1.35l-2.77-8.7h1.4l2.13 6.94 2.28-6.93h1.17l2.27 6.93 2.13-6.93h1.42l-2.77 8.7Zm12.79.22c-2.65 0-4.3-2.05-4.3-4.57 0-2.52 1.65-4.56 4.3-4.56s4.3 2.04 4.3 4.56c0 2.52-1.66 4.57-4.3 4.57Zm0-1.2c1.85 0 2.88-1.6 2.88-3.37s-1.03-3.35-2.88-3.35c-1.85 0-2.88 1.58-2.88 3.35 0 1.78 1.03 3.36 2.88 3.36Zm8.23.98h-1.35v-7.5h-1.44v-1.2h1.44v-.66c0-1.78.99-2.82 2.52-2.82.7 0 1.3.16 1.84.66l-.56.87a1.56 1.56 0 0 0-1.06-.42c-.9 0-1.39.6-1.39 1.71v.67h1.76v1.19h-1.76v7.5Zm10.26.22c-1.3 0-1.94-.74-1.94-2.04v-5.68h-1.44v-1.2H200v-2.37h1.36v2.38h1.77v1.19h-1.77v5.4c0 .64.3 1.11.87 1.11.4 0 .74-.18.92-.38l.4 1.03c-.35.32-.84.56-1.61.56Zm10.31-.22h-1.35v-5.72c0-1.55-.77-1.98-1.96-1.98-1.04 0-2.05.65-2.56 1.35v6.35h-1.35v-12h1.35v4.57a4.18 4.18 0 0 1 3.1-1.48c1.82 0 2.77.88 2.77 2.77v6.14Zm3.38-9.93a.9.9 0 0 1-.92-.9c0-.5.42-.92.92-.92s.9.41.9.92c0 .5-.4.9-.9.9Zm.67 9.93h-1.35v-8.7h1.35v8.7Zm5.46.22a4.66 4.66 0 0 1-3.5-1.37l.68-.97a3.94 3.94 0 0 0 2.86 1.24c1.33 0 2.07-.63 2.07-1.5 0-2.1-5.38-.8-5.38-4.03 0-1.36 1.15-2.5 3.22-2.5 1.5 0 2.54.56 3.22 1.26l-.63.94a3.36 3.36 0 0 0-2.6-1.1c-1.18 0-1.92.6-1.92 1.37 0 1.89 5.38.65 5.38 4.03 0 1.46-1.16 2.63-3.4 2.63Zm14.09 0c-2.6 0-4.34-2-4.34-4.57 0-2.58 1.75-4.56 4.34-4.56 1.58 0 2.52.65 3.19 1.51l-.9.81a2.56 2.56 0 0 0-2.22-1.11c-1.83 0-3 1.42-3 3.35 0 1.92 1.17 3.36 3 3.36.9 0 1.64-.36 2.22-1.13l.9.83a3.72 3.72 0 0 1-3.19 1.5Zm11.88-.22h-1.35v-.99c-.7.8-1.7 1.2-2.88 1.2-1.46 0-3.02-.98-3.02-2.87 0-1.96 1.55-2.86 3.02-2.86 1.19 0 2.18.37 2.88 1.17v-1.57c0-1.15-.93-1.82-2.2-1.82a3.4 3.4 0 0 0-2.66 1.2l-.63-.93a4.55 4.55 0 0 1 3.48-1.44c1.85 0 3.36.83 3.36 2.94v5.97Zm-3.72-.75a2.9 2.9 0 0 0 2.37-1.08v-1.66a2.94 2.94 0 0 0-2.37-1.06c-1.28 0-2.16.79-2.16 1.89 0 1.11.88 1.9 2.16 1.9Zm18.29.75h-1.35v-5.9c0-1.1-.47-1.8-1.6-1.8-.9 0-1.86.63-2.3 1.33v6.37h-1.36v-5.9c0-1.1-.45-1.8-1.6-1.8-.88 0-1.82.65-2.28 1.35v6.35h-1.35v-8.7h1.34v1.27a3.8 3.8 0 0 1 2.83-1.48c1.31 0 2.07.72 2.32 1.62a3.66 3.66 0 0 1 2.92-1.62c1.58 0 2.43.88 2.43 2.63v6.28Zm6.98.22a3.63 3.63 0 0 1-2.94-1.53v4.62H265v-12h1.35v1.3a3.63 3.63 0 0 1 2.94-1.52c2.28 0 3.87 1.73 3.87 4.56 0 2.8-1.59 4.57-3.87 4.57Zm-.34-1.2c1.74 0 2.79-1.45 2.79-3.37 0-1.93-1.05-3.35-2.8-3.35-1.06 0-2.12.63-2.59 1.38v3.93c.47.75 1.53 1.4 2.6 1.4Zm13.14.98h-1.35v-.99c-.7.8-1.71 1.2-2.88 1.2-1.46 0-3.03-.98-3.03-2.87 0-1.96 1.55-2.86 3.03-2.86 1.19 0 2.18.37 2.88 1.17v-1.57c0-1.15-.94-1.82-2.2-1.82a3.4 3.4 0 0 0-2.66 1.2l-.63-.93a4.55 4.55 0 0 1 3.47-1.44c1.86 0 3.37.83 3.37 2.94v5.97Zm-3.73-.75a2.9 2.9 0 0 0 2.38-1.08v-1.66a2.94 2.94 0 0 0-2.38-1.06c-1.28 0-2.16.79-2.16 1.89 0 1.11.88 1.9 2.16 1.9Zm7.14-9.18a.9.9 0 0 1-.92-.9c0-.5.41-.92.92-.92.5 0 .9.41.9.92 0 .5-.4.9-.9.9Zm.66 9.93h-1.35v-8.7h1.35v8.7Zm6.19 3.53c-1.46 0-2.47-.29-3.51-1.31l.68-.98c.72.85 1.59 1.17 2.83 1.17 1.44 0 2.8-.7 2.8-2.53v-1.32a3.7 3.7 0 0 1-2.93 1.55c-2.27 0-3.87-1.7-3.87-4.5 0-2.79 1.59-4.52 3.87-4.52 1.17 0 2.23.58 2.94 1.53v-1.31h1.35v8.57c0 2.75-2.04 3.65-4.16 3.65Zm.21-4.63c1.07 0 2.11-.64 2.6-1.4v-3.82a3.29 3.29 0 0 0-2.6-1.38c-1.76 0-2.8 1.38-2.8 3.31 0 1.9 1.04 3.3 2.8 3.3Zm13.87 1.1h-1.33v-5.69c0-1.54-.8-2.01-1.97-2.01-1.06 0-2.05.65-2.57 1.35v6.35h-1.35v-8.7h1.35v1.27a4.25 4.25 0 0 1 3.11-1.48c1.8 0 2.76.92 2.76 2.81v6.1Zm15.02 0h-1.35v-1.3a3.66 3.66 0 0 1-2.94 1.52c-2.26 0-3.86-1.73-3.86-4.56 0-2.79 1.6-4.57 3.86-4.57 1.18 0 2.24.58 2.94 1.53v-4.62h1.35v12Zm-3.94-.99c1.06 0 2.12-.63 2.59-1.38v-3.93a3.23 3.23 0 0 0-2.6-1.4c-1.76 0-2.8 1.44-2.8 3.36 0 1.93 1.04 3.35 2.8 3.35Zm10.44 1.2c-2.64 0-4.3-2.04-4.3-4.56 0-2.52 1.66-4.56 4.3-4.56 2.65 0 4.3 2.04 4.3 4.56 0 2.52-1.65 4.57-4.3 4.57Zm0-1.2c1.86 0 2.88-1.58 2.88-3.36 0-1.77-1.02-3.35-2.88-3.35-1.85 0-2.88 1.58-2.88 3.35 0 1.78 1.03 3.36 2.88 3.36Zm10.45 1.2c-2.6 0-4.45-1.85-4.45-4.56 0-2.52 1.8-4.56 4.28-4.56 2.63 0 4.18 2.05 4.18 4.66v.35h-7.02c.1 1.63 1.24 3 3.11 3 1.01 0 2-.4 2.7-1.11l.65.88a4.8 4.8 0 0 1-3.45 1.35Zm2.68-5.12c-.02-1.28-.88-2.88-2.86-2.88-1.86 0-2.78 1.56-2.85 2.88h5.7Zm6.29 5.13a4.66 4.66 0 0 1-3.51-1.37l.68-.97a3.94 3.94 0 0 0 2.86 1.24c1.34 0 2.07-.63 2.07-1.5 0-2.1-5.38-.8-5.38-4.03 0-1.36 1.15-2.5 3.22-2.5 1.5 0 2.54.56 3.23 1.26l-.63.94a3.36 3.36 0 0 0-2.6-1.1c-1.18 0-1.92.6-1.92 1.37 0 1.89 5.38.65 5.38 4.03 0 1.46-1.17 2.63-3.4 2.63Zm17.47-.22h-1.33v-5.69c0-1.54-.8-2.01-1.96-2.01-1.07 0-2.06.65-2.58 1.35v6.35h-1.35v-8.7h1.35v1.27a4.25 4.25 0 0 1 3.12-1.48c1.8 0 2.75.92 2.75 2.81v6.1Zm6.51.22c-2.64 0-4.3-2.05-4.3-4.57 0-2.52 1.65-4.56 4.3-4.56s4.3 2.04 4.3 4.56c0 2.52-1.65 4.57-4.3 4.57Zm0-1.2c1.86 0 2.88-1.6 2.88-3.37s-1.03-3.35-2.88-3.35c-1.85 0-2.88 1.58-2.88 3.35 0 1.78 1.03 3.36 2.88 3.36Zm8.72 1.2c-1.3 0-1.95-.74-1.95-2.04v-5.68h-1.44v-1.2h1.44v-2.37h1.37v2.38h1.77v1.19h-1.77v5.4c0 .64.29 1.11.87 1.11.4 0 .73-.18.91-.38l.4 1.03c-.34.32-.83.56-1.6.56Zm11.57 0c-2.6 0-4.34-2-4.34-4.57 0-2.58 1.75-4.56 4.34-4.56 1.58 0 2.52.65 3.18 1.51l-.9.81a2.56 2.56 0 0 0-2.21-1.11c-1.84 0-3 1.42-3 3.35 0 1.92 1.16 3.36 3 3.36.9 0 1.64-.36 2.21-1.13l.9.83a3.72 3.72 0 0 1-3.18 1.5Zm8.9 0c-2.65 0-4.31-2.05-4.31-4.57 0-2.52 1.65-4.56 4.3-4.56s4.3 2.04 4.3 4.56c0 2.52-1.65 4.57-4.3 4.57Zm0-1.2c1.85 0 2.87-1.6 2.87-3.37s-1.02-3.35-2.88-3.35c-1.85 0-2.88 1.58-2.88 3.35 0 1.78 1.03 3.36 2.88 3.36Zm13.71.98h-1.33v-5.69c0-1.54-.8-2.01-1.96-2.01-1.06 0-2.05.65-2.58 1.35v6.35h-1.35v-8.7h1.35v1.27a4.25 4.25 0 0 1 3.12-1.48c1.8 0 2.75.92 2.75 2.81v6.1Zm4.93.22c-1.3 0-1.94-.74-1.94-2.04v-5.68h-1.44v-1.2h1.44v-2.37h1.36v2.38h1.77v1.19h-1.77v5.4c0 .64.3 1.11.87 1.11.4 0 .74-.18.92-.38l.4 1.03c-.35.32-.84.56-1.61.56Zm9.86-.22h-1.35v-.99c-.7.8-1.7 1.2-2.88 1.2-1.46 0-3.02-.98-3.02-2.87 0-1.96 1.55-2.86 3.02-2.86 1.19 0 2.18.37 2.88 1.17v-1.57c0-1.15-.93-1.82-2.2-1.82a3.4 3.4 0 0 0-2.66 1.2l-.63-.93a4.55 4.55 0 0 1 3.48-1.44c1.85 0 3.36.83 3.36 2.94v5.97Zm-3.72-.75a2.9 2.9 0 0 0 2.37-1.08v-1.66a2.94 2.94 0 0 0-2.37-1.06c-1.28 0-2.16.79-2.16 1.89 0 1.11.88 1.9 2.16 1.9Zm7.13-9.18a.9.9 0 0 1-.92-.9c0-.5.42-.92.92-.92s.9.41.9.92c0 .5-.4.9-.9.9Zm.67 9.93h-1.35v-8.7h1.35v8.7Zm9.9 0h-1.32v-5.69c0-1.54-.8-2.01-1.97-2.01-1.06 0-2.05.65-2.57 1.35v6.35h-1.35v-8.7h1.35v1.27a4.25 4.25 0 0 1 3.11-1.48c1.8 0 2.76.92 2.76 2.81v6.1Zm14.17 0h-1.36v-.99c-.7.8-1.7 1.2-2.88 1.2-1.45 0-3.02-.98-3.02-2.87 0-1.96 1.55-2.86 3.02-2.86 1.2 0 2.18.37 2.88 1.17v-1.57c0-1.15-.93-1.82-2.2-1.82a3.4 3.4 0 0 0-2.66 1.2l-.63-.93a4.55 4.55 0 0 1 3.48-1.44c1.85 0 3.37.83 3.37 2.94v5.97Zm-3.73-.75a2.9 2.9 0 0 0 2.38-1.08v-1.66a2.94 2.94 0 0 0-2.38-1.06c-1.28 0-2.16.79-2.16 1.89 0 1.11.88 1.9 2.16 1.9Zm13.67.75h-1.33v-5.69c0-1.54-.8-2.01-1.97-2.01-1.06 0-2.05.65-2.57 1.35v6.35h-1.35v-8.7h1.35v1.27a4.25 4.25 0 0 1 3.11-1.48c1.8 0 2.76.92 2.76 2.81v6.1Zm2.24 3.4.2-1.22c.2.09.52.14.74.14.6 0 .99-.2 1.3-.91l.57-1.32-3.64-8.78h1.48l2.88 7.13 2.9-7.13h1.46l-4.36 10.46c-.52 1.26-1.4 1.74-2.56 1.76a4.1 4.1 0 0 1-.97-.13Zm17.79-3.18c-2.6 0-4.34-2-4.34-4.57 0-2.58 1.75-4.56 4.34-4.56 1.58 0 2.52.65 3.18 1.51l-.9.81a2.56 2.56 0 0 0-2.21-1.11c-1.84 0-3 1.42-3 3.35 0 1.92 1.16 3.36 3 3.36.9 0 1.64-.36 2.21-1.13l.9.83a3.72 3.72 0 0 1-3.18 1.5Zm8.9 0c-2.66 0-4.31-2.05-4.31-4.57 0-2.52 1.65-4.56 4.3-4.56s4.3 2.04 4.3 4.56c0 2.52-1.65 4.57-4.3 4.57Zm0-1.2c1.84 0 2.87-1.6 2.87-3.37s-1.03-3.35-2.88-3.35c-1.85 0-2.88 1.58-2.88 3.35 0 1.78 1.03 3.36 2.88 3.36Zm13.71.98h-1.33v-5.69c0-1.54-.8-2.01-1.96-2.01-1.07 0-2.06.65-2.58 1.35v6.35h-1.35v-8.7h1.35v1.27a4.25 4.25 0 0 1 3.12-1.48c1.8 0 2.75.92 2.75 2.81v6.1Zm4.93.22c-1.3 0-1.95-.74-1.95-2.04v-5.68h-1.44v-1.2h1.44v-2.37h1.37v2.38h1.77v1.19h-1.77v5.4c0 .64.3 1.11.87 1.11.4 0 .74-.18.91-.38l.4 1.03c-.34.32-.83.56-1.6.56Zm7.02 0c-2.6 0-4.45-1.86-4.45-4.57 0-2.52 1.8-4.56 4.29-4.56 2.62 0 4.17 2.05 4.17 4.66v.35h-7.02c.11 1.63 1.24 3 3.12 3 1 0 2-.4 2.7-1.11l.64.88a4.8 4.8 0 0 1-3.45 1.35Zm2.68-5.13c-.02-1.28-.88-2.88-2.86-2.88-1.86 0-2.77 1.56-2.85 2.88h5.71Zm10.74 4.91h-1.34v-5.69c0-1.54-.79-2.01-1.96-2.01-1.06 0-2.05.65-2.57 1.35v6.35h-1.35v-8.7h1.35v1.27a4.25 4.25 0 0 1 3.11-1.48c1.8 0 2.76.92 2.76 2.81v6.1Zm4.92.22c-1.3 0-1.94-.74-1.94-2.04v-5.68h-1.44v-1.2h1.44v-2.37h1.37v2.38h1.76v1.19h-1.76v5.4c0 .64.29 1.11.86 1.11.4 0 .74-.18.92-.38l.4 1.03c-.35.32-.83.56-1.6.56Zm3.8-.04a1 1 0 0 1-.99-.99 1 1 0 0 1 1-.99 1 1 0 0 1 .98 1 1 1 0 0 1-.99.98Z"/>
	<path fill="#000" fill-opacity=".15" d="M305.5 182.3c41.4 0 75 3.73 75 8.37 0 4.63-33.6 8.36-75 8.36s-75-3.73-75-8.36c0-4.64 33.6-8.37 75-8.37Z"/>
	<path fill="#996" d="M350.6 115.8c.97-.6 1.17-4.33 1.26-5.44.3-2.52 3.32-3.62 5.26-2.31 3.41 2.51 5.17 7.35 5.65 11.48.49 4.23.1 9.88-2.82 13.2-3.12 3.63-11 4.74-15.68 4.24-1.27-.1-2.44-.4-3.6-.6l-2.25-20.77 2.44.5c2.43.51 7.4 1.02 9.64-.3h.1Z"/>
	<path fill="#C0C0A0" d="M358.2 111.77a8.29 8.29 0 0 0-2.05-2.11c-.78-.6-2.24-.1-2.34.9l-.1.7c1.47-.5 3.12-.1 4.48.51Zm2.72 14.21c.59-3.22.3-6.95-.78-10.18a6.86 6.86 0 0 0-3.02-2.41c-1.85-.81-2.82-.5-3.7.3-.1.8-.3 1.4-.48 2.01 5.06 1.72 7.2 6.75 7.98 10.38v-.1Zm-14.8-7.46c-1.76 0-3.6-.2-5.46-.6l1.75 16.73c2.34.5 5.07.5 7.5.2 1.76-6.45 0-14-3.89-16.42l.1.1Zm5.45-1.1c-.68.4-1.66.7-2.82.9 3.5 3.83 4.57 10.78 3.3 16.23 2.93-.6 5.36-1.72 6.63-3.13.3-.3.49-.7.78-1 0-5.75-2.24-11.9-7.6-13.1-.1.1-.1.1-.2.1h-.09Z"/>
	<path fill="#FBFAC4" d="M350.6 128.3c-2.34.6-4.87.7-6.73.5-.77-.1-1.46-.2-2.14-.4l-1.17-10.38c1.85.4 3.7.6 5.46.6 2.53 1.62 4.19 5.45 4.48 9.68h.1Zm7.1-14.61.3 1.81c.2 1.21.2 2.62.1 4.03a11.44 11.44 0 0 0-5.17-3.82c.2-.6.4-1.21.5-2.02.77-.7 1.84-1.1 3.7-.3l.58.3Zm-1.45-3.93c.29.5.48 1 .68 1.51a6.12 6.12 0 0 0-3.31-.1l.1-.7c.09-1.01 1.55-1.52 2.33-.91l.2.1v.1Zm-4.68 7.66c-.68.4-1.66.7-2.82.9 2.14 2.32 3.3 5.75 3.7 9.38a7.61 7.61 0 0 0 3.4-2.22c.79-.8-1.26-7.56-4.08-8.16-.1.1-.1.1-.2.1Z"/>
	<path fill="#996" d="M259.23 115.8c-.97-.6-1.17-4.33-1.27-5.44-.29-2.52-3.3-3.62-5.25-2.31-3.42 2.51-5.17 7.35-5.65 11.48-.49 4.23-.1 9.88 2.82 13.2 3.12 3.63 11 4.74 15.68 4.24 1.27-.1 2.44-.4 3.6-.6l2.25-20.77-2.44.5c-2.43.51-7.4 1.02-9.64-.3h-.1Z"/>
	<path fill="#C0C0A0" d="M251.64 111.77a8.32 8.32 0 0 1 2.04-2.11c.78-.6 2.24-.1 2.34.9l.1.7c-1.47-.5-3.12-.1-4.48.51Zm-2.73 14.21c-.59-3.22-.3-6.95.78-10.18.78-1 1.56-1.8 3.02-2.41 1.85-.81 2.82-.5 3.7.3.1.8.3 1.4.48 2.01-5.06 1.72-7.2 6.75-7.98 10.38v-.1Zm14.8-7.46c1.76 0 3.6-.2 5.46-.6l-1.75 16.73c-2.35.5-5.07.5-7.5.2-1.76-6.45 0-14 3.9-16.42l-.1.1Zm-5.45-1.1c.68.4 1.66.7 2.82.9-3.5 3.83-4.57 10.78-3.3 16.23-2.93-.6-5.36-1.72-6.63-3.13-.3-.3-.49-.7-.78-1 0-5.75 2.24-11.9 7.6-13.1.1.1.1.1.2.1h.09Z"/>
	<path fill="#FBFAC4" d="M259.23 128.3c2.34.6 4.87.7 6.72.5.78-.1 1.47-.2 2.15-.4l1.16-10.38c-1.84.4-3.7.6-5.45.6-2.53 1.62-4.19 5.45-4.48 9.68h-.1Zm-7.1-14.61-.3 1.81a18.3 18.3 0 0 0-.1 4.03 11.43 11.43 0 0 1 5.16-3.82c-.19-.6-.38-1.21-.48-2.02-.78-.7-1.85-1.1-3.7-.3l-.59.3Zm1.45-3.93c-.29.5-.48 1-.68 1.51 1.07-.3 2.14-.4 3.31-.1l-.1-.7c-.09-1.01-1.55-1.52-2.33-.91l-.2.1v.1Zm4.68 7.66c.68.4 1.66.7 2.82.9-2.14 2.32-3.3 5.75-3.7 9.38a7.61 7.61 0 0 1-3.4-2.22c-.79-.8 1.26-7.56 4.08-8.16.1.1.1.1.2.1Z"/>
	<path fill="#8ED41E" d="M270.04 111.77c-3.4-.3-6.72.4-10.03.9l2.92-2.91a41.07 41.07 0 0 1 10.23-7.16c5.36-2.82 11.5-4.93 17.63-5.54-4.29-1.91-9.16-2.82-13.73-3.93 17.63-3.83 40.22-5.24 56.4 8.97 9.25 8.16 14.31 23.28 14.31 36.98 0 51.7-85.13 51.7-85.13 0 0-6.95 1.66-13.6 4.78-19.65-1.17.3-2.25.7-3.42 1.21l-5.15 2.22 3.7-4.34a30.3 30.3 0 0 1 7.69-6.55l-.2-.2Z"/>
	<path fill="#70A91B" d="M308.23 95.85c8.28 1 16.36 3.83 23.08 9.78 8.18 7.15 12.56 20.45 12.56 32.44 0 21.97-17.53 33.35-35.64 33.96V95.85Z"/>
	<path fill="#A1E141" d="M276.86 107.04c6.43-4.44 16.95-5.85 29.61-5.14a20.95 20.95 0 0 0-7.3-5.95c5.75-.2 10.32 1.11 21.72 5.14a53.51 53.51 0 0 0-33.21-7.35 40.08 40.08 0 0 1 11.59 5.64c-11.6-1.31-24.94 4.43-30.3 9.17 3.51-.4 6.63.3 9.94 1.81-4.68 1.71-7.7 3.23-10.62 6.15 5.06-2.62 9.06-4.84 15.49-6.25-2.53-.9-3.9-2.52-6.92-3.22Z"/>
	<path fill="#70A91B" d="M305.1 94.84c11.7 0 21.14 9.47 21.14 21.26a21.22 21.22 0 0 1-21.13 21.26 21.16 21.16 0 0 1-21.14-21.26 21.22 21.22 0 0 1 21.14-21.26Z"/>
	<path fill="#70A91B" d="M271.6 135.95c.68-1.3 64.78-1.81 66.04 0 2.24 3.03.98 5.95 0 8.47H271.6c-.58-2.72-1.56-5.65 0-8.47Z"/>
	<path fill="#4B7113" d="M272.48 137.87c.68-1.72 63.12-2.42 64.38 0 2.14 4.13.88 8.16 0 11.58h-64.38c-.59-3.73-1.46-7.66 0-11.58Z"/>
	<path fill="#70A91B" d="M324.4 93.94c-.88-17.23-23.28-19.05-29.13-5.54 10.33-5.85 20.85-3.73 29.13 5.54Z"/>
	<path fill="#85C51F" d="M311.93 79.63c-6.53-1-13.64 1.91-16.56 8.66a23.57 23.57 0 0 1 11.69-3.22c.78-1.51 2.63-4.43 4.97-5.44h-.1Z"/>
	<path fill="#D3E8EF" d="M305.1 92.63c10.53 0 19 8.76 19 19.65 0 10.88-8.47 19.65-19 19.65-10.51 0-18.98-8.77-18.98-19.65 0-10.89 8.47-19.65 18.99-19.65Z"/>
	<path fill="#fff" d="M293.13 97.67c6.33-5.45 15.2-5.45 19.67.2 4.48 5.54 2.93 14.5-3.4 20.05-6.34 5.44-15.2 5.44-19.68-.2-4.48-5.55-2.92-14.51 3.4-20.05Z"/>
	<path fill="#0D82DF" d="M305.6 105.63c7.4 0 13.34 5.74 13.34 12.9 0 7.15-5.94 12.9-13.34 12.9-7.4 0-13.35-5.75-13.35-12.9 0-7.16 5.94-12.9 13.35-12.9Z"/>
	<path fill="#0399ED" d="M305.6 105.63c3.6 0 6.91 1.4 9.25 3.62a18.34 18.34 0 0 1-5.46 8.67c-5.25 4.53-12.27 5.24-17.04 2.22-.1-.5-.1-1.01-.1-1.62 0-7.15 5.94-12.9 13.35-12.9Z"/>
	<path fill="#232323" d="M305.6 110.26c4.67 0 8.57 3.73 8.57 8.26 0 4.54-3.8 8.26-8.57 8.26-4.68 0-8.58-3.72-8.58-8.26 0-4.53 3.8-8.26 8.58-8.26Z"/>
	<path fill="#323232" d="M305.6 110.26a8.8 8.8 0 0 1 7.2 3.73 15.66 15.66 0 0 1-3.4 3.83 16.09 16.09 0 0 1-11.6 4.03c-.48-1-.78-2.22-.78-3.43 0-4.53 3.8-8.26 8.58-8.26v.1Z"/>
	<path fill="#fff" d="M298.1 106.33c3.5 0 6.33 2.73 6.33 6.15a6.21 6.21 0 0 1-6.33 6.15 6.21 6.21 0 0 1-6.34-6.15 6.21 6.21 0 0 1 6.34-6.15Z"/>
	<path fill="#9CAEB3" d="M260.8 142.7c29.4-4.52 58.92-4.12 88.34 0 2.14 15.93.97 31.05 0 46.26-29.42 1.2-58.93 1.41-88.35 0-1.75-15.42-1.95-30.83 0-46.25Z"/>
	<path fill="#D3E8EF" d="M269.26 185.83c23.87.9 47.64.81 71.5 0-8.57-5.04-17.14-9.87-26.79-12.6a67.28 67.28 0 0 1-9.74 3.74c-.49.1-.49.1-.97 0a80.13 80.13 0 0 1-8.09-3.23 102.83 102.83 0 0 0-26 12.2l.1-.1Zm-5.64-37.88a177.44 177.44 0 0 0 .2 36.67 116.6 116.6 0 0 1 27.36-13.1c-11.1-6.04-18.9-14.7-27.56-23.57Zm80.25-2.42c-26-3.23-52.1-3.53-78.11 0 10.71 12.39 22.5 22.57 38.18 27.9 16.66-4.93 28.15-15.71 39.94-27.9Zm2.25 39.1c.78-12.2 1.55-24.39.29-36.58-8.77 8.97-18.12 17.53-29.03 23.47 10.13 3.13 19.58 7.76 28.84 13.1h-.1Z"/>
	<path fill="#fff" d="M269.26 185.83c11.5.4 22.99.6 34.58.6v-9.46c-.1 0-.2 0-.48-.1a78.78 78.78 0 0 1-8.09-3.23 102.85 102.85 0 0 0-26 12.2Zm-5.64-37.88a177.44 177.44 0 0 0 .2 36.67 116.6 116.6 0 0 1 27.36-13.1c-11.1-6.04-18.9-14.7-27.56-23.57Zm40.22-4.94c-12.76 0-25.42.8-38.08 2.52 10.62 12.4 22.5 22.47 38.08 27.9v-30.42Z"/>
	<path fill="#996" d="M287.29 150.26c-.1.4-.3.81-.49 1.21-.2.6-.59 1.2-1.07 1.61-1.17.91-2.63.6-3.9.1-2.82-1.2-4.77-4.13-5.94-6.95-1.36-3.22-1.46-5.54-.68-9.07 19.67-1.1 39.84-1.3 58.93-.1v.1h.29c.3 3.43 0 4.84-.78 7.66-.88 3.23-2.73 7.15-5.84 8.67-1.17.6-2.54.9-3.6.1-.5-.4-.88-1.01-1.18-1.62-.68-1.1-.87-2.71-1.07-3.93-.39.81-.87 1.31-1.65 1.52-1.27.3-2.73.5-4 .6-1.26.1-2.63.2-4 .2-2.04 0-4.28-.2-6.22-.8-.3 1.2-.78 2.31-1.95 2.72-1.27.4-2.83.6-4.19.7-1.46.1-2.92.2-4.28.2-2.25 0-4.78-.2-6.82-1.1-.78-.3-1.27-.91-1.56-1.72v-.1Z"/>
	<path fill="#C0C0A0" d="M320.3 136.46c.78 4.53.59 10.38-.68 10.68-1.95.5-9.45 1.31-13.15-.1-.97-1.91-.97-6.75-.87-10.68 5.06 0 10.13 0 14.7.1Zm-31.46.9a93.38 93.38 0 0 0-2.04 7.46c-.4 1.82-.69 3.63-.98 4.94-.39 1.81-1.26 2.12-2.92 1.41-4.29-1.91-6.52-9.37-6.33-13.9 2.92-.2 7.3-.4 12.27-.6 4.78-.11 10.13-.21 15.49-.21.48 5.54.48 12.2-.68 13.6-2.05.71-10.03 1.72-13.93-.1-1.76-.8-1.08-7.55-.98-12.5l.1-.1Zm32.25-.9c.58 2.42 1.26 4.94 1.94 8.16.39 2.02.59 3.93.88 5.24.39 2.02 1.17 2.32 2.72 1.51 3.8-2.01 5.95-9.47 5.85-14.4-2.83-.2-6.82-.41-11.4-.51Z"/>
	<path fill="#FBFAC4" d="M305.6 139.18c4.57 0 9.15 0 13.34.1.68 2.52.68 7.05-2.24 8.16-3.12.3-7.6.4-10.23-.6-.68-1.41-.88-4.54-.88-7.66Zm-16.86.3c4.2-.1 8.97-.2 13.74-.2.48 3.63 1.36 10.88-3.02 11.28-3.22.3-7.2.3-9.74-.8-1.46-.7-1.27-5.74-1.07-10.18l.1-.1Zm-11.98.6c2.05-.2 4.78-.3 7.99-.4.39 0 1.17 9.98 1.17 9.98-.4 1.81-1.27 2.12-2.92 1.41-3.41-1.51-5.56-6.55-6.14-10.88l-.1-.1Zm47.15 9.78c.39 2.01 1.17 2.32 2.72 1.51 3.12-1.61 5.07-6.85 5.66-11.38-1.86-.2-4.1-.3-6.73-.4-1.56 1.2-1.85 9.56-1.65 10.27Z"/>
	<path fill="#fff" d="M297.22 139.38c.2 3.93 0 7.86-.49 8.16-.97.6-4.57 1.41-6.33-.1-.68-.5-.58-4.33-.48-7.96 2.33-.1 4.77-.1 7.4-.2l-.1.1Zm16.36-.1c.1 2.92-.1 5.64-.48 5.84-.88.5-4.29 1.11-6.04-.1-.59-.4-.59-3.12-.49-5.84h7.01v.1Zm-30.78.5c-.1 1.11-.1 2.42-.1 3.73v4.03c0 1.51-.38 1.82-1.16 1.11-1.56-1.2-2.93-5.04-3.5-8.56 1.35-.1 3.01-.2 4.76-.3Zm48.32.1c-1.27-.1-2.73-.2-4.39-.2 0 1.11.1 2.32.1 3.63v4.33c0 1.62.3 1.92 1.07 1.21 1.37-1.3 2.63-5.14 3.22-8.97Z"/>
	<path fill="#85C51F" fill-rule="evenodd" d="M266.63 186.64c-1.07 5.04-5.94 8.36-10.8 8.16-6.73-.3-17.15-7.96-16.96-15.52.1-4.23 3.12-8.06 6.24-10.47 3.02-2.43 8.08-4.94 11.98-3.84 3.9 1.11 6.62 6.65 7.89 10.28 1.17 3.13 2.34 8.07 1.56 11.39h.1Zm76.76 0c-.78-3.32.39-8.26 1.56-11.39 1.26-3.63 4-9.17 7.89-10.28 3.9-1.1 8.96 1.41 11.98 3.84 3.11 2.41 6.14 6.24 6.23 10.47.2 7.56-10.23 15.22-16.94 15.52-4.88.2-9.75-3.12-10.82-8.16h.1Zm-.1 0Z" clip-rule="evenodd"/>
	<path fill="#70A91B" fill-rule="evenodd" d="M264.98 186.14c.1-.6.2-1.21.2-1.92-1.27-5.54-4.3-11.89-7.7-12.9-5.26-1.6-15.88 5.65-15.3 13.1 2.93 4.64 9.16 8.47 13.64 8.67 4.1.2 8.28-2.62 9.16-6.85v-.1Zm79.87 0c-.1-.6-.2-1.21-.2-1.92 1.27-5.54 4.29-11.89 7.7-12.9 5.26-1.6 15.88 5.65 15.3 13.1-2.93 4.64-9.16 8.47-13.64 8.67-4.1.2-8.28-2.62-9.16-6.85v-.1Z" clip-rule="evenodd"/>
	<path fill="#5D8D17" fill-rule="evenodd" d="M263.13 187.54c.68-1.7-.3-4.73-2.24-4.43-2.05.4-6.92 4.03-6.72 6.05.1 1.61 2.82 3.02 4.97 2.21a8.35 8.35 0 0 0 3.99-3.83Zm83.67 0c-.68-1.7.29-4.73 2.24-4.43 2.04.4 6.91 4.03 6.72 6.05-.1 1.61-2.82 3.02-4.97 2.21a8.35 8.35 0 0 1-4-3.83Zm-86.7-7.05c1.37-2.82-.87-7.76-4.28-7.36-3.6.5-11.4 6.05-11.4 10.38 0 2.73 3.61 4.64 7.41 3.53 2.82-.8 7.2-4.23 8.28-6.55Zm89.72 0c-1.37-2.82.87-7.76 4.29-7.36 3.6.5 11.39 6.05 11.39 10.38 0 2.73-3.6 4.64-7.4 3.53-2.83-.8-7.2-4.23-8.28-6.55Z" clip-rule="evenodd"/>
	<path fill="#2C440C" fill-rule="evenodd" d="M243.16 175.76c.59 1.3-.68 3.12-2.14 3.02-1.56-1.2-3.02-4.03-2.44-4.74.59-.8 3.22 0 4.58 1.72Zm123.51 0c-.59 1.3.68 3.12 2.14 3.02 1.56-1.2 3.02-4.03 2.44-4.74-.59-.8-3.22 0-4.58 1.72Zm-118.54-5.04c.38 2.01-2.24 3.73-3.51 2.82-1.65-1.71-2.24-4.73-1.46-5.44.78-.7 3.6.4 4.97 2.62Zm113.57 0c-.39 2.01 2.24 3.73 3.51 2.82 1.65-1.71 2.24-4.73 1.46-5.44-.78-.7-3.6.4-4.97 2.62Zm-106.95-3.32c.1 1.8-3.31 3.42-4.67 2.11-1.17-2.32-.88-5.14.1-5.74 1.07-.6 3.7.5 4.57 3.63Zm100.33 0c-.1 1.8 3.31 3.42 4.67 2.11 1.17-2.32.88-5.14-.1-5.74-1.06-.6-3.7.5-4.57 3.63ZM263.92 148.6c-.45-.22-.7-.7-.79-1.56-.2-1.61.3-4.13 2.14-4.53 1.86-.4 4.48 1.5 4.68 3.12l.1.1c.16 1.35-1.46 2.14-3.13 2.6 1.36.59 2.6 1.88 2.74 3.04.17 1.56-1.75 2.45-3.56 2.9 1.4.67 2.61 1.55 2 2.74h.1c-.78 1.51-4.1 2.72-5.85 2.12-1.85-.6-1.46-2.92-.68-4.43.32-.72.69-1.1 1.18-1.23a4.47 4.47 0 0 1-.11-.59c-.15-1.35.12-3.31 1.18-4.29Zm79.06-.26c-1.7-.45-3.36-1.24-3.2-2.61l.1-.1c.2-1.61 2.83-3.53 4.68-3.12 1.85.4 2.34 2.92 2.14 4.53-.1.82-.32 1.3-.73 1.52 1.1.96 1.37 2.96 1.22 4.32-.03.23-.07.44-.11.62.44.15.78.52 1.08 1.2.78 1.5 1.17 3.82-.68 4.43-1.75.6-5.06-.6-5.84-2.12h.1c-.63-1.2.6-2.09 2.02-2.75-1.8-.46-3.66-1.35-3.49-2.89.13-1.15 1.36-2.43 2.7-3.03Zm-1.25 8.67Zm-86.98-15c.3 1.3 2.73 1 4.58.6 1.85-.5 2.53-.9 2.14-2.22-.29-1.31-1.46-3.12-3.3-2.62-1.86.5-3.7 2.92-3.42 4.33v-.1Zm100.43 0c-.3 1.3-2.73 1-4.58.6-1.85-.5-2.54-.9-2.15-2.22.3-1.31 1.46-3.12 3.31-2.62 1.86.5 3.7 2.92 3.42 4.33v-.1Z" clip-rule="evenodd"/>
	<path fill="#85C51F" fill-rule="evenodd" d="m253.2 158.35.48 1.39-1.27-1.01a6.2 6.2 0 0 1-1.46-2.02c.1.8.2 1.31.4 2.02-1.86-3.13-3.51-6.55-2.44-11.08.97-4.14 4.97-6.05 7.79-6.86 1.75-.5 3.7-.8 5.45-.6 1.08.1 2.93.4 3.7 1.4.78 1.02 1.17 3.13 1.37 4.54.29 2.22.2 4.54-.1 6.75-.3 2.02-.87 3.93-1.85 5.55a6.49 6.49 0 0 1-2.82 2.62c-1.37.6-2.73.7-4.2.4-1.85-.38-3.53-1.5-5.04-3.1l-.11-.33-.1.1.2.23Zm103.42 0c-1.5 1.6-3.19 2.72-5.05 3.1-1.46.3-2.82.2-4.19-.4a6.47 6.47 0 0 1-2.82-2.62 14.86 14.86 0 0 1-1.85-5.55c-.3-2.21-.39-4.53-.1-6.75.2-1.4.59-3.52 1.37-4.53.78-1 2.63-1.31 3.7-1.41 1.75-.2 3.7.1 5.45.6 2.82.8 6.82 2.72 7.8 6.86 1.06 4.53-.6 7.95-2.44 11.08.2-.7.3-1.21.39-2.02-.4.8-.88 1.51-1.46 2.02l-1.27 1 .47-1.38.21-.23-.1-.1-.1.33Z" clip-rule="evenodd"/>
	<path fill="#A1E141" fill-rule="evenodd" d="M264.88 143c1.17 1.42 1.76 7.37.4 11.7a7.59 7.59 0 0 1-6.92-1.81c.1.6.29 1 .48 1.3-1.17-.5-2.14-2-2.82-3.72.1 1.4.3 2.01.49 2.82-1.47-.5-2.63-2.22-3.51-4.03-.78-1.61-.68-3.93.68-4.94 3.6-2.72 9.74-2.92 11.1-1.2l.1-.11Zm80.07 0c-1.17 1.42-1.76 7.37-.4 11.7a7.6 7.6 0 0 0 6.92-1.81c-.1.6-.29 1-.48 1.3 1.17-.5 2.14-2 2.82-3.72-.1 1.4-.3 2.01-.48 2.82 1.46-.5 2.62-2.22 3.5-4.03.78-1.61.69-3.93-.68-4.94-3.6-2.72-9.74-2.92-11.1-1.2l-.1-.11Z" clip-rule="evenodd"/>
</svg>
