<svg width="150" height="150" viewBox="0 0 150 150" fill="none" xmlns="http://www.w3.org/2000/svg">
<g clip-path="url(#clip0_878_814)">
<g filter="url(#filter0_d_878_814)">
<rect x="8.85059" y="17" width="135.975" height="111" rx="11.1" fill="#D8E6FA"/>
<rect x="6.42246" y="14.5719" width="140.831" height="115.856" rx="13.5281" stroke="#4885E9" stroke-width="4.85625"/>
</g>
<path d="M42.6252 25.3772C28.5963 22.0792 23.9756 44.3408 23.4189 55.8839C23.4189 68.2513 42.6252 93.8111 52.6459 80.619C62.6666 67.427 81.0378 84.7416 108.595 87.2151C136.152 89.6886 115.275 74.8475 121.956 55.8839C128.636 36.9202 96.9039 45.1654 81.0378 45.9899C65.1718 46.8144 60.1614 29.4998 42.6252 25.3772Z" fill="#D8E6FA" stroke="#A5B4CE" stroke-width="4.1625"/>
<path d="M45.0358 34.4147C35.8031 29.2583 30.8811 44.289 31.8689 56.41C32.6919 66.5061 41.7213 79.093 49.1505 71.4433C56.5797 63.7936 87.1489 79.0605 107.579 80.4949C120.746 81.4193 111.882 70.0196 114.163 59.1005C116.629 47.2952 90.5392 52.8624 78.7763 53.3405C67.0134 53.8186 57.9539 41.6293 45.0358 34.4147Z" fill="white"/>
<path d="M108.056 99.556C98.0663 99.001 97.8813 105.337 99.0376 108.575C103.894 113.431 122.625 112.043 124.706 111.35C126.178 110.859 131.644 105.8 125.4 101.637C119.156 97.4748 120.544 100.25 108.056 99.556Z" fill="white" stroke="#4885E9" stroke-width="2.775"/>
<path d="M110.379 103.145C104.291 102.9 104.178 105.689 104.883 107.114C104.883 108.335 120.104 108.946 120.527 108.335C120.949 107.725 124.755 105.893 120.949 104.061C117.144 102.229 117.99 103.45 110.379 103.145Z" fill="#6ABC53"/>
<path d="M61.8194 55.6888C55.8015 54.407 45.3817 46.6091 40.924 44.4727C34.2375 44.4727 38.1654 55.4475 41.7603 58.8934C44.2677 61.2969 72.6849 67.9731 86.8937 69.3084C104.446 70.1095 105.281 67.3856 105.281 62.8992C105.281 57.2911 69.3417 57.2911 61.8194 55.6888Z" fill="#6ABC53"/>
</g>
<defs>
<filter id="filter0_d_878_814" x="-0.168359" y="12.1438" width="149.85" height="127.65" filterUnits="userSpaceOnUse" color-interpolation-filters="sRGB">
<feFlood flood-opacity="0" result="BackgroundImageFix"/>
<feColorMatrix in="SourceAlpha" type="matrix" values="0 0 0 0 0 0 0 0 0 0 0 0 0 0 0 0 0 0 127 0" result="hardAlpha"/>
<feOffset dx="-4.1625" dy="6.9375"/>
<feComposite in2="hardAlpha" operator="out"/>
<feColorMatrix type="matrix" values="0 0 0 0 0.0431373 0 0 0 0 0.145098 0 0 0 0 0.0980392 0 0 0 1 0"/>
<feBlend mode="normal" in2="BackgroundImageFix" result="effect1_dropShadow_878_814"/>
<feBlend mode="normal" in="SourceGraphic" in2="effect1_dropShadow_878_814" result="shape"/>
</filter>
<clipPath id="clip0_878_814">
<rect width="150" height="150" fill="white"/>
</clipPath>
</defs>
</svg>
