<svg width="120" height="105" viewBox="0 0 120 105" fill="none" xmlns="http://www.w3.org/2000/svg">
<g id="Frame 39637">
<rect width="120" height="104" fill="white"/>
<g id="Group 39620">
<g id="Group 39619">
<path id="Rectangle 25867" d="M29 26C29 23.7909 30.7909 22 33 22H72.3431C73.404 22 74.4214 22.4214 75.1716 23.1716L89.8284 37.8284C90.5786 38.5786 91 39.596 91 40.6569V59V100C91 102.209 89.2091 104 87 104H33C30.7909 104 29 102.209 29 100V26Z" stroke="#D5DFFF"/>
<path id="Vector" d="M53.4197 57.8814C53.0067 56.8341 51.5245 56.8341 51.1115 57.8814L48.9542 63.3512C48.8281 63.671 48.575 63.9241 48.2553 64.0502L42.7855 66.2074C41.7382 66.6205 41.7382 68.1026 42.7855 68.5157L48.2553 70.6729C48.575 70.799 48.8281 71.0521 48.9542 71.3719L51.1115 76.8417C51.5245 77.889 53.0067 77.889 53.4197 76.8417L55.577 71.3719C55.7031 71.0521 55.9562 70.799 56.2759 70.6729L61.7457 68.5157C62.793 68.1026 62.793 66.6205 61.7457 66.2074L56.2759 64.0502C55.9562 63.9241 55.7031 63.671 55.577 63.3512L53.4197 57.8814Z" fill="#8259FF"/>
<path id="Vector_2" d="M70.2339 50.4971C69.9725 49.8343 69.0346 49.8343 68.7732 50.4971L67.408 53.9586C67.3282 54.1609 67.168 54.3211 66.9656 54.4009L63.5042 55.7661C62.8414 56.0275 62.8414 56.9654 63.5042 57.2268L66.9656 58.592C67.168 58.6718 67.3282 58.832 67.408 59.0344L68.7732 62.4958C69.0346 63.1586 69.9725 63.1586 70.2339 62.4958L71.5991 59.0344C71.6789 58.832 71.8391 58.6718 72.0414 58.592L75.5029 57.2268C76.1657 56.9654 76.1657 56.0275 75.5029 55.7661L72.0414 54.4009C71.8391 54.3211 71.6789 54.1609 71.5991 53.9586L70.2339 50.4971Z" fill="#B39EF3"/>
<path id="Vector_3" d="M70.0059 73.44C69.8249 72.9809 69.1751 72.9809 68.9941 73.44L68.0484 75.8377C67.9931 75.9779 67.8822 76.0889 67.742 76.1441L65.3443 77.0898C64.8852 77.2708 64.8852 77.9206 65.3443 78.1016L67.742 79.0473C67.8822 79.1026 67.9931 79.2135 68.0484 79.3537L68.9941 81.7514C69.1751 82.2105 69.8249 82.2105 70.0059 81.7514L70.9516 79.3537C71.0068 79.2135 71.1178 79.1026 71.258 79.0473L73.6557 78.1016C74.1148 77.9206 74.1148 77.2708 73.6557 77.0898L71.258 76.1441C71.1178 76.0889 71.0068 75.9779 70.9516 75.8377L70.0059 73.44Z" fill="#EBE4FF"/>
<path id="Vector_4" d="M9.9192 54.2035C9.46655 54.0069 9.00713 54.4663 9.20372 54.919L10.2305 57.2831C10.2905 57.4213 10.2905 57.5782 10.2305 57.7164L9.20372 60.0805C9.00713 60.5332 9.46655 60.9926 9.91921 60.796L12.2833 59.7692C12.4215 59.7092 12.5784 59.7092 12.7166 59.7692L15.0807 60.796C15.5334 60.9926 15.9928 60.5332 15.7962 60.0805L14.7695 57.7164C14.7094 57.5782 14.7094 57.4213 14.7695 57.2831L15.7962 54.919C15.9928 54.4663 15.5334 54.0069 15.0808 54.2035L12.7166 55.2303C12.5784 55.2903 12.4215 55.2903 12.2833 55.2303L9.9192 54.2035Z" fill="#D5DFFF"/>
<path id="Vector_5" d="M112.006 70.3443C111.825 69.8852 111.175 69.8852 110.994 70.3443L110.048 72.742C109.993 72.8822 109.882 72.9932 109.742 73.0484L107.344 73.9941C106.885 74.1751 106.885 74.8249 107.344 75.0059L109.742 75.9516C109.882 76.0068 109.993 76.1178 110.048 76.258L110.994 78.6557C111.175 79.1148 111.825 79.1148 112.006 78.6557L112.952 76.258C113.007 76.1178 113.118 76.0068 113.258 75.9516L115.656 75.0059C116.115 74.8249 116.115 74.1751 115.656 73.9941L113.258 73.0484C113.118 72.9932 113.007 72.8822 112.952 72.742L112.006 70.3443Z" fill="#D5DFFF"/>
</g>
<path id="Vector 548" d="M72 22.5V36.5C72 38.7091 73.7909 40.5 76 40.5H91" stroke="#D5DFFF"/>
</g>
<circle id="Ellipse 3066" cx="102" cy="86" r="2" fill="#D5DFFF"/>
</g>
</svg>
