<svg height="512" viewBox="0 0 512 512" width="512" xmlns="http://www.w3.org/2000/svg"><g id="a"><g><path d="m452.51 194.38c3.59-3.25 21.83-19.17 24.92-21.99 5 5.57 9.58 10.59 10.24 11.13 2.28 2.05 6.34 2.46 9.4.71 1.83-1.06 4.24-2.64 7.18-5.21 2.93-2.58 4.81-4.76 6.11-6.45 2.15-2.81 2.32-6.93.62-9.5-.96-1.62-20.53-25.25-22.82-27.75-2.13-2.64-22.54-25.53-24-26.72-2.28-2.06-6.34-2.46-9.4-.71-1.83 1.06-4.24 2.64-7.18 5.21-2.93 2.58-4.81 4.76-6.11 6.44-2.15 2.81-2.32 6.93-.62 9.5.44.74 4.72 6.02 9.47 11.8-2.85 2.39-20.75 17.81-24.02 20.59l26.21 32.94z" fill="#454565"/><path d="m356.57 126.14c.5-4.1 5.2-25.34 5.62-28.97 11.36-.21 21.68-.47 22.98-.67 4.69-.51 9.73-4.21 11.42-8.77 1-2.74 2.14-6.49 2.87-11.63.71-5.14.63-8.89.4-11.63-.41-4.55-4.41-8.25-8.95-8.77-2.74-.44-49.07-1.17-54.22-1.03-5.11-.14-51.64.59-54.5 1.03-4.69.51-9.73 4.22-11.42 8.77-1 2.74-2.14 6.49-2.87 11.63-.71 5.13-.63 8.89-.4 11.63.41 4.55 4.41 8.25 8.95 8.77 1.25.2 11.5.46 22.79.67-.59 3.63-5.47 24.87-6.12 28.97h63.44z" fill="#454565"/><rect fill="#f04760" height="37.83" rx="18.91" width="37.83" x="15.97" y="225.7"/><path d="m327.25 121.9c-34.31 0-67.66 10.31-96.71 27.99l-67.56-.03h-.13l-.06-.02-.04.02h-116.87c-10.42 0-18.86 8.45-18.86 18.86v.19c0 10.42 8.45 18.86 18.86 18.86l92.75.05c9.78.7 17.49 8.85 17.49 18.81v.19c0 10.42-8.45 18.86-18.86 18.86h-51.97c-10.42 0-18.86 8.45-18.86 18.86v.19c0 10.42 8.45 18.86 18.86 18.86h20.4c10.42 0 18.86 8.45 18.86 18.86v.19c0 10.42-8.45 18.86-18.86 18.86h-86.71c-10.42 0-18.86 8.45-18.86 18.86v.19c0 10.42 8.45 18.86 18.86 18.86h101.67c10.42 0 18.86 8.44 18.86 18.86v.19c0 10.42-8.45 18.86-18.86 18.86h-49.4c-10.42 0-18.86 8.45-18.86 18.86v.19c0 10.42 8.45 18.86 18.86 18.86h103.7c25.91 26.16 62.55 42.06 105.15 42.06 92.63 0 178.27-75.09 191.29-167.72s-51.52-167.72-144.15-167.72z" fill="#e03757"/><path d="m135.64 369.91c131.56-6.76 238.81-105.43 258.84-233.05-19.78-9.61-42.51-14.96-67.24-14.96-34.31 0-67.66 10.31-96.71 27.99l-67.56-.03h-.13l-.06-.02-.04.02h-116.86c-10.42 0-18.86 8.45-18.86 18.86v.19c0 10.42 8.45 18.86 18.86 18.86l92.75.05c9.78.7 17.49 8.85 17.49 18.81v.19c0 10.42-8.45 18.86-18.86 18.86h-51.97c-10.42 0-18.86 8.45-18.86 18.86v.19c0 10.42 8.45 18.86 18.86 18.86h20.4c10.42 0 18.86 8.45 18.86 18.86v.19c0 10.42-8.45 18.86-18.86 18.86h-86.71c-10.42 0-18.86 8.45-18.86 18.86v.19c0 10.42 8.45 18.86 18.86 18.86h101.67c10.42 0 18.86 8.44 18.86 18.86v.19c0 4.29-1.45 8.24-3.87 11.41z" fill="#f04760"/><path d="m389.77 272.6-79.02 121.93c-1.82 2.8-4.93 4.49-8.27 4.49h-6.19c-6.38 0-11.08-5.97-9.57-12.17l19.47-80.36h-47.47c-5.69 0-9.88-5.32-8.54-10.85l26.34-108.72c.95-3.94 4.48-6.72 8.54-6.72h54.62c5.69 0 9.88 5.32 8.54 10.85l-16.07 66.33h49.35c7.81 0 12.51 8.65 8.27 15.21z" fill="#fff"/></g></g></svg>