<svg width="56" height="56" viewBox="0 0 56 56" fill="none" xmlns="http://www.w3.org/2000/svg">
<rect width="56" height="56" rx="12" fill="#45209D"/>
<path fill-rule="evenodd" clip-rule="evenodd" d="M35 15C35.7647 15 36.3846 15.6199 36.3846 16.3846V25.6154C36.3846 26.3801 35.7647 27 35 27C34.2353 27 33.6154 26.3801 33.6154 25.6154V16.3846C33.6154 15.6199 34.2353 15 35 15Z" fill="white"/>
<path fill-rule="evenodd" clip-rule="evenodd" d="M29 21C29 20.2353 29.6199 19.6154 30.3846 19.6154H39.6154C40.3801 19.6154 41 20.2353 41 21C41 21.7647 40.3801 22.3846 39.6154 22.3846H30.3846C29.6199 22.3846 29 21.7647 29 21Z" fill="white"/>
<path fill-rule="evenodd" clip-rule="evenodd" d="M15 18.2308C15 16.4465 16.4465 15 18.2308 15H23.7692C25.5535 15 27 16.4465 27 18.2308V23.7692C27 25.5535 25.5535 27 23.7692 27H18.2308C16.4465 27 15 25.5535 15 23.7692V18.2308Z" fill="#E2DBFC"/>
<path fill-rule="evenodd" clip-rule="evenodd" d="M29 32.2308C29 30.4465 30.4465 29 32.2308 29H37.7692C39.5535 29 41 30.4465 41 32.2308V37.7692C41 39.5535 39.5535 41 37.7692 41H32.2308C30.4465 41 29 39.5535 29 37.7692V32.2308Z" fill="#C5B8F8"/>
<path fill-rule="evenodd" clip-rule="evenodd" d="M15 32.2308C15 30.4465 16.4465 29 18.2308 29H23.7692C25.5535 29 27 30.4465 27 32.2308V37.7692C27 39.5535 25.5535 41 23.7692 41H18.2308C16.4465 41 15 39.5535 15 37.7692V32.2308Z" fill="#B39EF3"/>
</svg>
